<?xml version="1.0" encoding="utf-8"?>
<!-- Generator: Adobe Illustrator 19.0.0, SVG Export Plug-In . SVG Version: 6.00 Build 0)  -->
<svg version="1.1" id="Layer_1" xmlns="http://www.w3.org/2000/svg" xmlns:xlink="http://www.w3.org/1999/xlink" x="0px" y="0px"
	 viewBox="0 0 1342 366" style="enable-background:new 0 0 1342 366;" xml:space="preserve">
<style type="text/css">
	.st0{fill:#F2BA1B;}
	.st1{fill:#FFFFFF;}
	.st2{fill:#DFE2F2;}
	.st3{fill:none;stroke:#6C8BC6;stroke-linecap:round;stroke-linejoin:round;stroke-miterlimit:10;stroke-dasharray:2.837;}
	.st4{fill:#C09131;}
	.st5{fill:#F9D285;}
	.st6{fill:#B5BFE2;}
	.st7{fill:none;stroke:#5160AB;stroke-width:0.8956;stroke-miterlimit:10;}
	.st8{fill:none;stroke:#5160AB;stroke-width:1.6716;stroke-linecap:round;stroke-linejoin:round;stroke-miterlimit:10;}
	.st9{fill:#F1F4FA;}
	.st10{stroke:#000000;stroke-miterlimit:10;}
	.st11{fill:#CD9C2B;}
	.st12{fill:#281616;}
	.st13{fill:#142E53;}
	.st14{fill:#072635;}
	.st15{fill:#E69290;}
	.st16{fill:#C7E5F1;}
	.st17{fill:#CC6463;}
	.st18{fill:none;stroke:#FFFFFF;stroke-width:0.501;stroke-miterlimit:10;}
	.st19{opacity:0.5;}
	.st20{fill:#396085;}
	.st21{fill:#5279BC;}
	.st22{fill:#E59292;}
	.st23{fill:#010101;}
	.st24{fill:#6791CB;}
	.st25{fill:#B6C0E2;}
	.st26{fill:none;stroke:#FFFFFF;stroke-width:0.8956;stroke-miterlimit:10;}
	.st27{fill:#FFFFFF;stroke:#F2BA1B;stroke-width:0.8956;stroke-miterlimit:10;}
	.st28{fill:none;stroke:#F2BA1B;stroke-width:1.6716;stroke-miterlimit:10;}
	.st29{fill:none;stroke:#F2BA1B;stroke-width:1.6716;stroke-linecap:round;stroke-miterlimit:10;}
	.st30{fill:none;stroke:#DFE2F2;stroke-width:0.7896;stroke-miterlimit:10;}
	.st31{fill:#A9AED7;}
	.st32{fill:none;stroke:#FFFFFF;stroke-width:0.8956;stroke-linecap:round;stroke-miterlimit:10;}
	.st33{fill:#6989C6;}
	.st34{fill:#4161AD;}
	.st35{fill:none;stroke:#FFFFFF;stroke-width:2;stroke-linecap:round;stroke-miterlimit:10;}
	.st36{fill:none;stroke:#DFE2F2;stroke-linecap:round;stroke-miterlimit:10;}
	.st37{fill:#7C84C0;}
</style>
<g id="XMLID_3_">
	<g id="XMLID_42_">
		<path id="XMLID_48_" class="st0" d="M402.7,342H278c-11.8,0-21.3-9.6-21.3-21.3V40c0-11.8,9.6-21.3,21.3-21.3h124.7
			c11.8,0,21.3,9.6,21.3,21.3v280.6C424,332.4,414.4,342,402.7,342z"/>
		<path id="XMLID_47_" class="st1" d="M402.2,337.4H278.5c-10.3,0-18.7-8.4-18.7-18.7V40.2c0-10.3,8.4-18.7,18.7-18.7h123.7
			c10.3,0,18.7,8.4,18.7,18.7v278.5C420.9,329,412.5,337.4,402.2,337.4z"/>
		<path id="XMLID_44_" class="st2" d="M412.9,38.5v280.4c0,6.6-5.3,11.9-11.9,11.9H277.8c-6.6,0-11.9-5.3-11.9-11.9V38.5
			c0-6.6,5.3-11.9,11.9-11.9h20.5c1.1,0,2.2,0.6,2.7,1.7l2.2,4.4c1,2,3,3.3,5.3,3.3h61.8c2.2,0,4.3-1.3,5.3-3.3l2.2-4.4
			c0.5-1,1.6-1.7,2.7-1.7H401C407.5,26.6,412.9,32,412.9,38.5z"/>
		<path id="XMLID_43_" class="st2" d="M366.2,30.8h-49.8c-1.2,0-2.1-0.9-2.1-2.1l0,0c0-1.2,0.9-2.1,2.1-2.1h49.8
			c1.2,0,2.1,0.9,2.1,2.1l0,0C368.3,29.9,367.4,30.8,366.2,30.8z"/>
	</g>
	<path id="XMLID_41_" class="st3" d="M393.8,321.1H284c-4.6,0-8.4-3.8-8.4-8.4v-38.1c0-4.6,3.8-8.4,8.4-8.4h109.8
		c4.6,0,8.4,3.8,8.4,8.4v38.1C402.1,317.4,398.4,321.1,393.8,321.1z"/>
	<path id="XMLID_1_" class="st3" d="M388.3,186.5h-54.2c-3.3,0-6-2.7-6-6V154c0-3.3,2.7-6,6-6h54.2c3.3,0,6,2.7,6,6v26.4
		C394.3,183.8,391.6,186.5,388.3,186.5z"/>
	<g id="XMLID_15_">
		<path id="XMLID_39_" class="st4" d="M400,257.1H287.4c-4,0-7.2-3.2-7.2-7.2v-47c0-4,3.2-7.2,7.2-7.2H400c4,0,7.2,3.2,7.2,7.2v47
			C407.2,253.9,404,257.1,400,257.1z"/>
		<path id="XMLID_38_" class="st5" d="M402.1,197.5v47.9c0,3.7-3,6.8-6.8,6.8h-113c-3.7,0-6.8-3-6.8-6.8v-47.9c0-3.7,3-6.8,6.8-6.8
			h113C399.1,190.8,402.1,193.8,402.1,197.5z"/>
		<path id="XMLID_37_" class="st1" d="M319,247.2h-32.7c-2.7,0-4.9-2.2-4.9-4.9v-32.7c0-2.7,2.2-4.9,4.9-4.9H319
			c2.7,0,4.9,2.2,4.9,4.9v32.7C323.9,245,321.7,247.2,319,247.2z"/>
		<g id="XMLID_22_">
			<path id="XMLID_36_" class="st6" d="M358.8,210.1h-29.3c-0.8,0-1.4-0.6-1.4-1.4l0,0c0-0.8,0.6-1.4,1.4-1.4h29.3
				c0.8,0,1.4,0.6,1.4,1.4l0,0C360.2,209.5,359.6,210.1,358.8,210.1z"/>
			<path id="XMLID_35_" class="st6" d="M345.4,215.9h-16c-0.8,0-1.4-0.6-1.4-1.4l0,0c0-0.8,0.6-1.4,1.4-1.4h16
				c0.8,0,1.4,0.6,1.4,1.4l0,0C346.9,215.2,346.2,215.9,345.4,215.9z"/>
			<path id="XMLID_34_" class="st6" d="M394.5,215.9h-43.2c-0.8,0-1.4-0.6-1.4-1.4l0,0c0-0.8,0.6-1.4,1.4-1.4h43.2
				c0.8,0,1.4,0.6,1.4,1.4l0,0C395.9,215.2,395.3,215.9,394.5,215.9z"/>
			<path id="XMLID_33_" class="st6" d="M354.2,221.6h-24.7c-0.8,0-1.4-0.6-1.4-1.4l0,0c0-0.8,0.6-1.4,1.4-1.4h24.7
				c0.8,0,1.4,0.6,1.4,1.4l0,0C355.6,221,354.9,221.6,354.2,221.6z"/>
			<path id="XMLID_32_" class="st6" d="M375.1,221.6h-15.5c-0.8,0-1.4-0.6-1.4-1.4l0,0c0-0.8,0.6-1.4,1.4-1.4h15.5
				c0.8,0,1.4,0.6,1.4,1.4l0,0C376.6,221,375.9,221.6,375.1,221.6z"/>
			<path id="XMLID_31_" class="st6" d="M394.5,221.6h-14.3c-0.8,0-1.4-0.6-1.4-1.4l0,0c0-0.8,0.6-1.4,1.4-1.4h14.3
				c0.8,0,1.4,0.6,1.4,1.4l0,0C395.9,221,395.3,221.6,394.5,221.6z"/>
			<path id="XMLID_30_" class="st6" d="M394.5,227.4h-65c-0.8,0-1.4-0.6-1.4-1.4l0,0c0-0.8,0.6-1.4,1.4-1.4h65
				c0.8,0,1.4,0.6,1.4,1.4l0,0C395.9,226.7,395.3,227.4,394.5,227.4z"/>
			<path id="XMLID_29_" class="st6" d="M365.2,233.2h-35.8c-0.8,0-1.4-0.6-1.4-1.4l0,0c0-0.8,0.6-1.4,1.4-1.4h35.8
				c0.8,0,1.4,0.6,1.4,1.4l0,0C366.7,232.5,366,233.2,365.2,233.2z"/>
			<path id="XMLID_28_" class="st6" d="M394.5,233.2H371c-0.8,0-1.4-0.6-1.4-1.4l0,0c0-0.8,0.6-1.4,1.4-1.4h23.5
				c0.8,0,1.4,0.6,1.4,1.4l0,0C395.9,232.5,395.3,233.2,394.5,233.2z"/>
			<path id="XMLID_27_" class="st6" d="M350.5,238.9h-21c-0.8,0-1.4-0.6-1.4-1.4l0,0c0-0.8,0.6-1.4,1.4-1.4h21
				c0.8,0,1.4,0.6,1.4,1.4l0,0C351.9,238.3,351.3,238.9,350.5,238.9z"/>
			<path id="XMLID_26_" class="st6" d="M377.2,238.9h-21c-0.8,0-1.4-0.6-1.4-1.4l0,0c0-0.8,0.6-1.4,1.4-1.4h21
				c0.8,0,1.4,0.6,1.4,1.4l0,0C378.6,238.3,378,238.9,377.2,238.9z"/>
			<path id="XMLID_25_" class="st6" d="M394.5,238.9h-12.2c-0.8,0-1.4-0.6-1.4-1.4l0,0c0-0.8,0.6-1.4,1.4-1.4h12.2
				c0.8,0,1.4,0.6,1.4,1.4l0,0C395.9,238.3,395.3,238.9,394.5,238.9z"/>
			<path id="XMLID_24_" class="st6" d="M358.8,244.7h-29.3c-0.8,0-1.4-0.6-1.4-1.4l0,0c0-0.8,0.6-1.4,1.4-1.4h29.3
				c0.8,0,1.4,0.6,1.4,1.4l0,0C360.2,244,359.6,244.7,358.8,244.7z"/>
			<path id="XMLID_23_" class="st6" d="M394.5,210.1h-29.3c-0.8,0-1.4-0.6-1.4-1.4l0,0c0-0.8,0.6-1.4,1.4-1.4h29.3
				c0.8,0,1.4,0.6,1.4,1.4l0,0C395.9,209.5,395.3,210.1,394.5,210.1z"/>
		</g>
		<g id="XMLID_16_">
			<path id="XMLID_21_" class="st0" d="M402.1,197.5v2H275.6v-2c0-3.7,3-6.8,6.8-6.8h113C399.1,190.8,402.1,193.8,402.1,197.5z"/>
			<g id="XMLID_17_">
				<circle id="XMLID_20_" class="st2" cx="376.7" cy="195.3" r="1.6"/>
				<circle id="XMLID_19_" class="st2" cx="384.7" cy="195.3" r="1.6"/>
				<circle id="XMLID_18_" class="st2" cx="392.8" cy="195.3" r="1.6"/>
			</g>
		</g>
	</g>
	<g id="XMLID_9_">
		<path id="XMLID_14_" class="st7" d="M314.4,186.5h-24.2c-3.9,0-7.2-3.2-7.2-7.2v-24.2c0-3.9,3.2-7.2,7.2-7.2h24.2
			c3.9,0,7.2,3.2,7.2,7.2v24.2C321.5,183.3,318.3,186.5,314.4,186.5z"/>
		<g id="XMLID_10_">
			<polyline id="XMLID_13_" class="st8" points="296.3,161.7 290.7,167.2 296.3,172.8 			"/>
			<polyline id="XMLID_12_" class="st8" points="308.3,161.7 313.8,167.2 308.2,172.8 			"/>
			<line id="XMLID_11_" class="st8" x1="304.9" y1="161.7" x2="299.7" y2="172.8"/>
		</g>
	</g>
	<g id="XMLID_4_">
		<path id="XMLID_8_" class="st0" d="M402.1,54v78.3c0,4.3-3.4,7.7-7.7,7.7H283.3c-4.2,0-7.7-3.4-7.7-7.7V54c0-4.3,3.5-7.7,7.7-7.7
			h111.1C398.7,46.4,402.1,49.8,402.1,54z"/>
		<circle id="XMLID_7_" class="st9" cx="376.5" cy="71.1" r="18.3"/>
		<path id="XMLID_6_" class="st1" d="M350,140h-66.7c-4.2,0-7.7-3.4-7.7-7.7V120l29.2-50.5c1.5-2.6,5.3-2.6,6.9,0l22,38.2l16.4,28.3
			C350.8,137.3,350.7,138.9,350,140z"/>
		<path id="XMLID_5_" class="st9" d="M378.7,140H315l18.7-32.4l10.1-17.5c1.4-2.4,4.8-2.4,6.2,0L378.7,140z"/>
	</g>
</g>
<line id="XMLID_40_" class="st10" x1="20.9" y1="349.4" x2="1314" y2="349.4"/>
<g id="XMLID_45_">
	<g id="XMLID_99_">
		<rect id="XMLID_118_" x="536.1" y="270.8" class="st0" width="52.3" height="78.6"/>
		<rect id="XMLID_115_" x="588.4" y="270.8" class="st11" width="20" height="78.6"/>
		<g id="XMLID_100_">
			<rect id="XMLID_114_" x="591.2" y="273.8" class="st6" width="14.7" height="2.5"/>
			<rect id="XMLID_113_" x="591.2" y="279.2" class="st6" width="14.7" height="2.5"/>
			<rect id="XMLID_112_" x="591.2" y="284.6" class="st6" width="14.7" height="2.5"/>
			<rect id="XMLID_111_" x="591.2" y="290" class="st6" width="14.7" height="2.5"/>
			<rect id="XMLID_110_" x="591.2" y="295.4" class="st6" width="14.7" height="2.5"/>
			<rect id="XMLID_109_" x="591.2" y="300.7" class="st6" width="14.7" height="2.5"/>
			<rect id="XMLID_108_" x="591.2" y="306.1" class="st6" width="14.7" height="2.5"/>
			<rect id="XMLID_107_" x="591.2" y="311.5" class="st6" width="14.7" height="2.5"/>
			<rect id="XMLID_106_" x="591.2" y="316.9" class="st6" width="14.7" height="2.5"/>
			<rect id="XMLID_105_" x="591.2" y="322.3" class="st6" width="14.7" height="2.5"/>
			<rect id="XMLID_104_" x="591.2" y="327.7" class="st6" width="14.7" height="2.5"/>
			<rect id="XMLID_103_" x="591.2" y="333.1" class="st6" width="14.7" height="2.5"/>
			<rect id="XMLID_102_" x="591.2" y="338.5" class="st6" width="14.7" height="2.5"/>
			<rect id="XMLID_101_" x="591.2" y="343.8" class="st6" width="14.7" height="2.5"/>
		</g>
	</g>
	<g id="XMLID_46_">
		<path id="XMLID_96_" class="st12" d="M527.6,349.4h26.6c0,0,1.5-4.7-1.7-10.6c0,0-2.1,1.7-8.5,0.6c0,0-2.7,2.3-4.5,3.2
			C537.5,343.4,526.9,345.5,527.6,349.4z"/>
		<path id="XMLID_95_" class="st13" d="M529.5,274.4c1.7,10.2,9.6,44.9,13,65.3c6.2,0.5,9.2-0.2,10.8-0.5
			c-0.3-7.1-0.9-24.2-0.9-31.7c0.1-12.7,0.7-29.3-4.9-38.5l-18.7,1.5c0.1,1,0.2,1.8,0.3,2.4C529.2,273.5,529.4,274,529.5,274.4z"/>
		<path id="XMLID_92_" class="st12" d="M479.5,349.4h26.6c0,0,1.5-4.7-1.7-10.6c0,0-2.1,1.7-8.5,0.6c0,0-2.7,2.3-4.5,3.2
			C489.5,343.4,478.8,345.5,479.5,349.4z"/>
		<path id="XMLID_91_" class="st14" d="M495.1,339.2c5.1,1.3,8.8,1.1,10.5,0.9c1.4-8.2,3.6-26.3,5.7-34.8c3.1-13.2,6.2-31.3,4-37.8
			l-18.4-4.6C496.8,263.5,495.3,319,495.1,339.2z"/>
		<path id="XMLID_90_" class="st14" d="M568.4,244L568.4,244c-0.4-3.6-0.8-6.3-0.8-6.3l-20.6,5l-17.5,4c-6.5,1.4-14.3,3.2-21.2,4.7
			c-7.7,1.8-12.9,7.6-11.2,15.4l1.9,9.4c10.8-0.1,61.8-5,66.1-7.2C570.1,266.6,571.6,257.8,568.4,244z"/>
		<path id="XMLID_89_" class="st13" d="M599.1,244L599.1,244c-0.4-3.6-2.1-7.5-2.1-7.5l-19.2,6.3l-17.5,4
			c-6.5,1.4-14.3,3.2-21.2,4.7c-7.7,1.8-12.9,7.6-11.2,15.4l1.9,9.4c10.8-0.1,56.1-1.7,66.1-7.2C600.7,266.4,602.3,257.8,599.1,244z
			"/>
		<g id="XMLID_87_">
			<path id="XMLID_88_" class="st15" d="M541.5,214.5c0,0,9.1-4.1,11.7,0c1.4,2.3,0.4,6.5-2.7,8.2c-3.1,1.8-20.7,9.2-37.4,13.4
				c0,0-0.7-2.3-1.9-4.7c0,0,7.5-3.1,14.9-8.3C533.5,217.9,541.5,214.5,541.5,214.5L541.5,214.5z"/>
		</g>
		<path id="XMLID_86_" class="st15" d="M543.8,186l-7.8,31.3c0,0,0.8,7.9,8.8,4c8-3.9,13.3-28.8,13.3-28.8L543.8,186z"/>
		<path id="XMLID_85_" class="st1" d="M557,203.5c-1-0.2-1.9-0.5-2.8-0.8c-0.9-0.3-1.8-0.5-2.6-0.8c-7.4-2.6-11.5-5.6-11.5-5.6
			c2.3-10.2,5.2-17,7.7-21.5c0.1-0.1,0.1-0.2,0.2-0.3c0.1-0.1,0.1-0.2,0.2-0.3c1.3-2.2,3.3-4.1,5.4-5.7c0.2-0.2,0.4-0.3,0.7-0.5
			l0.9,16.3l0.2,1.7L557,203.5z"/>
		<path id="XMLID_84_" class="st16" d="M557,203.5c-1-0.2-1.9-0.5-2.8-0.8c-0.9-0.3-1.8-0.5-2.6-0.8c1.6-11,3-17.9,3-17.9l0.8,2
			L557,203.5z"/>
		<path id="XMLID_83_" class="st1" d="M603.3,175.2c-0.2,4.8-1,12.6-1.8,20.4c-0.2,2.5-0.5,5-0.6,7.4c-0.1,1.5-2.4,9.5-2.5,10.9
			c-0.4,6.8-3.7,11.9-0.6,22.3c0.8,2.5,0.9,3.8,0.9,4.8c0,0.7-0.9,1.5-1.3,1.7c-1.3,0.8-3.9,1.3-7.1,1.7h0
			c-6.2,0.8-14.6,0.9-19.7,0.9c-6.8,0-17-1.1-18.3-2.8c-1.2-1.6-0.1-3.9,0.5-7c2.5-14.2,1.6-21.7,1.5-31.9c0-0.3,0-0.5,0-0.8
			c-0.3-15.8-1.3-29.4-0.6-34.3c0.2-0.2,0.4-0.3,0.7-0.5c1.1-0.7,2.1-1.4,3.2-2c0.1,0,0.2-0.1,0.3-0.2c0.3-0.2,0.6-0.3,0.9-0.5
			c0.1-0.1,0.2-0.1,0.4-0.2c2.3-1.1,5.7-2.3,7.6-3c0.2-0.1,0.5-0.2,0.7-0.2c1.8-0.1,3.8-0.1,5.9-0.1c1.8,0.1,4.7,0.3,7.8,0.7
			c0,0,0,0,0,0c3.5,0.4,7.3,1.1,10.3,1.9c0,0,0,0,0.1,0c0.6,0.2,4.3,1.6,8.1,5.7C600.8,171.5,602.1,173.2,603.3,175.2z"/>
		<path id="XMLID_82_" class="st16" d="M597.8,236.2c0.8,2.5,0.9,3.8,0.9,4.8c0,0.7-0.9,1.5-1.3,1.7c-1.3,0.8-3.9,1.3-7.1,1.7
			c1.3-0.2,3.6-2.2,3.6-4.1c0-1.3-1.7-10.1-1.2-15.8c0.5-5.7,1.4-14.7-0.4-22c-1.8-7.2-3.4-16.8-3.4-16.8l9.9,6c0,0,1.3,1.8,2.7,4
			c-0.2,2.5-0.5,5-0.6,7.4C600.7,204.5,594.6,225.8,597.8,236.2z"/>
		<g id="XMLID_62_">
			<path id="XMLID_81_" class="st13" d="M554.1,133.4c0,0,0.9,10.4,4.3,11.1c3.4,0.7,2.6-3.7,2.6-3.7l-0.5-4.9L554.1,133.4z"/>
			<path id="XMLID_80_" class="st15" d="M570,171c-6.7-0.8-4.2-7.4-3.3-8.9c0.2-0.1,1.4-0.4,1.5-0.5c0,0,0,0,0,0
				c0.2-0.2,0.4-0.4,0.5-0.8c0.7-1.7,0.4-5.2,0.3-5.4c0,0,0,0,0,0v-0.6c0.1-0.4,0.2-0.8,0.3-1.2l3.5-2.8l7.5-5.9c0,0-2,9.9-0.4,16.1
				c0.1,0.5,0.4,1.1,1,1.5c0,0,0,0,0,0c0.2,0.1,0.4,0.2,0.7,0.3C583.6,163.7,581.1,172.3,570,171z"/>
			<path id="XMLID_79_" class="st17" d="M576,151.2c0,0-0.1,6.6-7.2,9.6c0.7-1.7,0.4-5.2,0.3-5.4l3-2.3L576,151.2z"/>
			<path id="XMLID_78_" class="st15" d="M555.8,134.8c0,0,1.6,21.5,7.4,23.4c0,0,7.4,0.7,12.7-6.5c1.5-2.1,3.5-2.5,4.1-5
				c1-4,2.5-11.5,0.6-16C578,124.3,556,119.2,555.8,134.8z"/>
			<path id="XMLID_77_" class="st13" d="M580.7,127.2c-0.1-3.9-4.1-5.4-4.1-5.4c-3.9-1.8-12.1-1-20.6,0.8c-2,0.4-4.5-0.8-5.9,0.2
				c-1.7,1.2,0,6.5,0,6.5c3.3,9.9,15.3,6.7,18.9,5.4c0.9,2.5,0.7,6.1,2.9,7.9c1.2,1,3.3,1.1,5.5,0.7c0.3,0.5,1.3,0.9,1.5,1.6
				c0.7,2.3,0.6,5.9,0.6,8.7l1-0.5C580.6,152.4,591.1,127.5,580.7,127.2z"/>
			<g id="XMLID_72_">
				
					<ellipse id="XMLID_76_" transform="matrix(0.9858 -0.1677 0.1677 0.9858 -15.9816 95.8131)" class="st18" cx="559.2" cy="142.5" rx="2.6" ry="3.3"/>
				
					<ellipse id="XMLID_75_" transform="matrix(0.9858 -0.1677 0.1677 0.9858 -15.6618 96.9738)" class="st18" cx="566.3" cy="141.2" rx="2.6" ry="3.3"/>
				<path id="XMLID_74_" class="st18" d="M561.7,142.1c0,0,0.3-0.5,1.9-0.4"/>
				<line id="XMLID_73_" class="st18" x1="568.8" y1="141.2" x2="574.8" y2="140.2"/>
			</g>
			<g id="XMLID_70_">
				<path id="XMLID_71_" class="st15" d="M575.3,147.9c4.1,1.6,5.4-8.6,1.5-9.1c-3-0.3-3.1,3.8-3.1,3.8S572.9,147,575.3,147.9z"/>
			</g>
			<g id="XMLID_63_" class="st19">
				<g id="XMLID_67_">
					<path id="XMLID_116_" class="st17" d="M576.7,140.4c0,0-0.3,0.3-0.5,0.7c-0.2,0.5-0.5,1.1-0.5,1.7c0,0.3,0,0.7,0,1
						c0,0.3,0,0.6,0.1,0.9c0,0.3,0.1,0.5,0.1,0.7c0,0.2,0,0.3,0,0.3s-0.1-0.1-0.1-0.2c-0.1-0.1-0.2-0.3-0.3-0.6
						c-0.1-0.3-0.2-0.6-0.3-0.9c-0.1-0.4-0.1-0.7-0.1-1.1c0-0.4,0.1-0.8,0.3-1.1c0.2-0.3,0.4-0.6,0.6-0.8
						C576.3,140.4,576.7,140.4,576.7,140.4z"/>
				</g>
				<g id="XMLID_64_">
					<path id="XMLID_97_" class="st17" d="M577.3,142.3c0,0-0.2,0-0.4,0.1c-0.2,0.1-0.5,0.2-0.7,0.5c-0.2,0.2-0.4,0.5-0.4,0.7
						c-0.1,0.2-0.1,0.4-0.1,0.4l-0.7-0.2c0,0,0.1-0.2,0.2-0.4c0.2-0.2,0.4-0.5,0.8-0.7c0.3-0.2,0.7-0.3,0.9-0.3
						C577.1,142.3,577.3,142.3,577.3,142.3z"/>
				</g>
			</g>
		</g>
		<path id="XMLID_61_" class="st15" d="M615.1,218.7C615.1,218.7,615.1,218.7,615.1,218.7c-1.8,2.1-8.7,3.7-12,0.7
			c-1-0.9-2.2-3.4-3.4-6.4c-2.9-7.8-5.7-19.4-5.7-19.4l15.4-7.9c0,0,2,8.9,3.7,17.4c0,0,0,0.1,0,0.2c0.6,2.7,1.1,5.4,1.5,7.7
			c0,0.1,0,0.1,0,0.2C615,213.9,615.3,216.7,615.1,218.7z"/>
		<path id="XMLID_60_" class="st1" d="M588.1,182.8c1.5,6.2,6.2,18,6.2,18c3.3,0.5,7.7-0.1,11.3-1.4c4.2-1.5,7.2-4.7,7.2-4.7
			s-3.1-8.7-5.9-15c-2.5-5.6-4-7.7-5.1-8.9c-1.6-1.7-4.3-3.7-6.1-4.6L588.1,182.8z"/>
		<path id="XMLID_59_" class="st1" d="M607.6,186.8l-9.1-3.9l-7.1-18.4c0,0,1.3,0.4,3,1.1c0,0,0,0,0,0c0,0,0.1,0,0.2,0.1
			c0,0,0.1,0,0.1,0.1c1.5,0.7,7.5,4.2,11.6,17c0,0.1,0.1,0.2,0.1,0.3c0.4,1.5,0.8,2.7,0.9,3.3c0,0.1,0,0.1,0,0.2
			C607.6,186.6,607.6,186.7,607.6,186.8z"/>
		<g id="XMLID_52_">
			<path id="XMLID_58_" class="st15" d="M615.1,218.7C615.1,218.7,615.1,218.7,615.1,218.7c-0.1,1.1-0.4,2-1,2.2
				c-0.1,0.1-1.4,0.8-1.4,0.9c-1.9,1.2-5.3,3.1-9.6,5c-10.3,4.5-25.3,9.6-33.4,12c0,0-0.8-2.3-2-4.7c0,0,7.3-3.4,14.5-8.9
				c7.2-5.5,17.6-12.2,17.6-12.2l2.6-3.1c0,0,9.3-8.6,10.8-6.8c0,0,0,0.1,0,0.2c0.2,0.9,1,4.2,1.5,7.7c0,0.1,0,0.1,0,0.2
				C615,213.9,615.3,216.7,615.1,218.7z"/>
			<path id="XMLID_55_" class="st15" d="M568.6,233.5c0,0-1.8,1.1-3.7,0.7c-1-0.2-1.4-0.6-2.2-0.8c-0.8-0.1-2.8-0.4-3.8-0.9
				c-1-0.5-1.4-0.5-1.4,0.5c0,1,2,1.9,2.5,2.1c0.5,0.3,1.2,1.2,1.3,1.3c0.1,0.1-3.3,1.9-4.2,1.5c0,0-0.3,0.8-0.1,1.3
				c0.2,0.5,0.8,0.6,0.9,0.8c0.1,0.2-0.2,0.7,0,1.1c0.1,0.4,0.8,0.4,1,0.9c0.2,0.6,0,0.6,0.2,1.2c0.2,0.6,1,0.7,1.1,1
				c0.1,0.3,0.1,0.7,0.4,0.9c0.3,0.2,3.3-0.8,4.5-1.2c1.1-0.5,4-4.7,7.3-6.2L568.6,233.5z"/>
		</g>
		<path id="XMLID_51_" class="st20" d="M584.1,252.5h-23.5v-2.3h23.5c0.6,0,1.1,0.5,1.1,1.1l0,0C585.2,252,584.7,252.5,584.1,252.5z
			"/>
		<path id="XMLID_50_" class="st20" d="M571.4,252.5h-58.8c-0.7,0-1.3-0.5-1.5-1.1L499,208c-0.3-1,0.5-1.9,1.5-1.9h56.9
			c1.3,0,2.5,0.9,2.8,2.2l12,43.2C572.3,252,571.9,252.5,571.4,252.5z"/>
		<path id="XMLID_49_" class="st21" d="M569.2,252.5h-58.8c-0.7,0-1.3-0.5-1.5-1.1l-12-43.3c-0.3-1,0.5-1.9,1.5-1.9h56.9
			c1.3,0,2.5,0.9,2.8,2.2l12,43.2C570.2,252,569.8,252.5,569.2,252.5z"/>
	</g>
</g>
<g id="XMLID_65_">
	<path id="XMLID_142_" class="st22" d="M261.1,224.5l6.8-7c0,0,0.2-3.1,0.6-3.8c0.4-0.7,1.3-3.1,1.8-3.4c0.5-0.3,1.4,0,1.4,0
		s0.9-0.3,1.4-0.3c0.4,0,1.2,0.4,1.2,0.4s1-0.1,1.4-0.1c0.4,0,0.6,0.1,0.6,0.1s1.6-1.9,2.4-2.5c0.8-0.6,2-1.8,2.4-1.8
		c0.3,0,0.5,0.6,0.2,1.2S280,209,280,209l-3.1,4.7c0,0,0.5-0.2,0.8-0.4c0.3-0.2,2.2-1.9,2.3-2c0.1-0.1,1-0.6,1.5-0.1
		s-3.3,5.1-3.9,5.7c-0.6,0.6-4,2.3-4,2.3s-3.6,6.5-4,7C269.3,226.7,261.1,224.5,261.1,224.5z"/>
	<path id="XMLID_139_" class="st22" d="M267.5,192.2c0,0-3.8,22.1-7.4,22.6c0,0-14.3,0.6-17.5-16.8c-2.8-15,8.3-18.3,13.5-17.1
		C261.3,182,268.6,182.8,267.5,192.2z"/>
	<path id="XMLID_136_" class="st22" d="M254.8,211.3c0,0-2,2.7-2.7,9.2c0,0-6,0.9-11.5-2c0,0,3-9.2,3.3-19.2"/>
	<path id="XMLID_135_" class="st13" d="M250.8,177.2c-7.8,1.7-7.2,6.6-7.2,6.6c-3.7,0.9-4.4,2.4-4.4,9.2c0,6.8,2.5,14.9,3.8,15.5
		c1.3,0.7,9,0.7,9.6,0.5c0.6-0.2,3.3-6.4,2.7-7.5c-0.6-1.1,0-5.4,1.8-5.5c1.8-0.2,1.4,2.6,1.4,2.6l1.5-0.3l1.1-2.8
		c10.3,0.6,13-11.2,13-11.2C271.7,182.6,258.6,175.5,250.8,177.2z"/>
	<path id="XMLID_134_" class="st15" d="M164,326.5l7.9,1.1l-2.6,9.2l-8.6-2.2c0,0-3.5-4.7,1.8-8.2
		C162.8,326.3,163.6,326.4,164,326.5z"/>
	<path id="XMLID_133_" class="st23" d="M223,302.8l-11.7-35.3c0,0-3.5-1.3-5.3,0c0,0-12.1,6.5-10.8,25.1c1,14,3.9,29.2,5.1,35.3
		l-31.1-1.1c0,0-3.8,4.6-1.4,10.5c0,0,39.1,10.5,44.6,11.5c4.5,0.8,9.4,1.4,11.7-0.6C228.3,344.6,223,302.8,223,302.8z"/>
	<path id="XMLID_132_" class="st15" d="M200.8,326.5l7.9,1.1l-2.6,9.2l-8.6-2.2c0,0-3.5-4.7,1.8-8.2
		C199.6,326.3,200.4,326.4,200.8,326.5z"/>
	<path id="XMLID_131_" class="st21" d="M198,331.3c-0.2,1.8,1.4,3.5,1.1,3.9c-0.3,0.5-5.6,9.4-5.6,9.4s4,1.7,3.4,4.3h-10.2
		c0,0-2.7-2.4-2.6-5.8c0,0,0.7-3.9,2.5-7.4c1.8-3.5,5.9-11.4,5.9-11.4s1.2-0.5,3.4,0.1c2.5,0.7,4.9,2.2,4.9,2.2
		S198.4,326.8,198,331.3z"/>
	<path id="XMLID_130_" class="st13" d="M279.3,340.8c-2.5-9.4-26.1-49.3-34.1-60.1c-16.4-7.1-33.9-13.2-33.9-13.2
		c-7.2,1.7-10.8,16.3-6.7,26c2.8,6.7,20.7,23.4,31.6,33.3l-30.3,0c0,0-3.6,5.3-0.3,10.4c0,0,50.4,11.5,54.8,12.1
		c4.4,0.6,14.3,0,14.3,0S281.4,348.6,279.3,340.8z"/>
	<path id="XMLID_129_" class="st21" d="M161.2,331.3c-0.2,1.8,1.4,3.5,1.1,3.9c-0.3,0.5-5.6,9.4-5.6,9.4s4,1.7,3.4,4.3h-10.2
		c0,0-2.7-2.4-2.6-5.8c0,0,0.7-3.9,2.5-7.4c1.8-3.5,5.9-11.4,5.9-11.4s1.2-0.5,3.4,0.1c2.5,0.7,4.9,2.2,4.9,2.2
		S161.6,326.8,161.2,331.3z"/>
	<path id="XMLID_127_" class="st22" d="M317.3,217.7L301,246.3l-11.6-11.6l-9.6,14.3l2.8,1.3l-1,0.8c0,0,22.5,10.9,25.2,8.5
		c2.7-2.4,15.2-38.8,15.2-38.8L317.3,217.7z"/>
	<path id="XMLID_119_" class="st21" d="M291.5,236.5c0,0-3.1,12.9-9.2,19.1l-15.7-6c0,0-7.3,12.3-14.4,21.7
		c-2.7,3.6-3.6,8.7-6.9,9.4c-0.2-0.1-0.4-0.1-0.6-0.2c-8.7-2.6-21.6,0.2-32.2-3.8c-11.7-4.4-9.5-6.8-9.5-6.8s7.1-12.8,11.2-26.4
		c1.8-6,3.1-11.6,3.9-15.9c1.5-7.7,7.7-13.7,15.4-14.8c0.1,0,0.2,0,0.3,0c8.9-1.1,32.2,1.6,36.7,3.6S291.5,236.5,291.5,236.5z"/>
	<path id="XMLID_117_" class="st24" d="M266.5,249.6c0,0-7.3,12.3-14.4,21.7c-2.7,3.6-3.6,8.7-6.9,9.4c1.4-0.5,3.8-7.9,4.6-9.6
		c0.8-1.7,2.2-3.3,5.1-9.2c2.9-5.8,6.8-14.4,6.8-14.4L266.5,249.6z"/>
	<g id="XMLID_68_">
		<path id="XMLID_143_" class="st23" d="M236.3,326.8c0,0,0.2-0.1,0.7-0.1c0.4,0,1.1-0.1,1.8-0.2c1.5-0.1,3.5,0,5.5,0.3
			c1,0.1,2,0.3,2.9,0.5c0.9,0.2,1.8,0.5,2.5,0.7c0.7,0.2,1.3,0.5,1.7,0.7c0.4,0.2,0.6,0.3,0.6,0.3s-0.3,0-0.7-0.1
			c-0.4-0.1-1-0.2-1.8-0.3c-1.5-0.2-3.4-0.6-5.4-0.8c-1-0.2-2-0.3-2.9-0.4c-0.9-0.1-1.8-0.2-2.5-0.3
			C237.2,326.9,236.3,326.8,236.3,326.8z"/>
	</g>
	<path id="XMLID_66_" class="st22" d="M329.4,207.2c-0.3,0-1.9,1.3-2.7,2l0.9-1.8c0,0,1.2-1.2,1.7-1.8c0.4-0.7,0.2-1.3-0.1-1.3
		c-0.2,0-1.7,1.1-2.6,1.8l0.2-0.4c0,0,1.2-1.2,1.7-1.8c0.4-0.7,0.2-1.3-0.1-1.3c-0.3,0-3.2,2.3-3.2,2.3l-1.4,1.8l1-2
		c0,0,0.5-0.7,0.9-1.4c0.4-0.7,0.1-0.9-0.1-1.2s-2.1,1.2-2.6,1.7c-0.5,0.6-2,2.9-2.1,3.2l-1.6,3.3c-0.1-1-0.3-2.6-0.4-3.6
		c-0.2-1.5-1.5-1.8-1.6-1.1c0,0.7-0.8,4.3-0.6,6.2c0.2,1.9,0.5,3.2,0.6,4.3c0.1,1.1-1,3.3-1,3.3s4.5,2.8,5.3,2
		c0.7-0.8,2.3-2.7,3.1-4c1.1-1.7,1.8-4,1.8-4l1.4-3c0,0,1.2-1.2,1.7-1.8C330,207.8,329.8,207.2,329.4,207.2z"/>
</g>
<g id="XMLID_69_">
	<path id="XMLID_161_" class="st2" d="M72,294.4c-0.2-1.3-0.2-2.6,0.1-3.9c1.1-4.3,2.4-12.4-0.4-21.1c-4.7-14.6-23.6-27.5-23.6-27.5
		s5.1,21.5,9.4,30.7c3.1,6.7,8.5,14.3,11.5,18.4c0.8,1.1,1.4,2.4,1.7,3.8c3.1,16.9,2.6,30,2.6,30.3l1.4,0.1
		C74.7,324.8,75.1,311.6,72,294.4z"/>
	<path id="XMLID_156_" class="st25" d="M87.1,280.7c3.8-11.9,5.5-25.9,5.5-25.9s-17,14-18.4,24.8c-0.9,6.6,0.2,12,1.2,15.1
		c0.4,1.3,0.5,2.7,0.4,4.1c-1.7,15.9-0.4,28.2-0.4,28.4l1.3-0.1c0-0.2-1.3-11.6,0.2-26.6c0.2-2.1,1-4,2.3-5.6
		C81.7,291.8,85.2,286.8,87.1,280.7z"/>
	<path id="XMLID_152_" class="st2" d="M104.4,254.3c0,0-18.3,6.8-23.1,21.7c-2.9,9.1-1.5,17.5-0.4,21.8c0.3,1.2,0.3,2.5,0,3.7
		c-4.3,17.2-4.4,35-4.4,35.2H78c0-0.2,0.1-17.6,4.2-34.5c0.4-1.7,1.1-3.2,2.2-4.6c3.1-4.2,8.4-11.8,11.5-18.4
		C100.2,269.9,104.4,254.3,104.4,254.3z"/>
	<path id="XMLID_145_" class="st25" d="M72.1,317.3c-0.5-6.3-2.2-11.9-4.2-16.6c-0.4-0.9-0.6-2-0.4-3c0.3-2,0.4-5-0.4-8.9
		c-1.5-7.3-11.2-23.2-25.3-24.1c0,0,4.9,7.8,7.4,14.3c3.2,8.3,7.7,16.9,15.2,20.2c1.3,0.6,2.3,1.7,2.9,3c1.8,4.4,3.3,9.5,3.7,15.1
		L72.1,317.3z"/>
	<g id="XMLID_93_">
		<g id="XMLID_473_">
			<path id="XMLID_474_" class="st0" d="M62.6,349.4h23.2l6-36.8c0.3-1.6-1-3.1-2.6-3.1h-30c-1.7,0-2.9,1.5-2.6,3.1L62.6,349.4z"/>
		</g>
	</g>
</g>
<g id="XMLID_2_">
	<path id="XMLID_175_" class="st2" d="M1236,293.4c-0.2-1.3-0.2-2.6,0.1-3.9c1.1-4.3,2.4-12.4-0.4-21.1
		c-4.7-14.6-23.6-27.5-23.6-27.5s5.1,21.5,9.4,30.7c3.1,6.7,8.5,14.3,11.5,18.4c0.8,1.1,1.4,2.4,1.7,3.8c3.1,16.9,2.6,30,2.6,30.3
		l1.4,0.1C1238.7,323.8,1239.1,310.6,1236,293.4z"/>
	<path id="XMLID_172_" class="st25" d="M1251.1,279.7c3.8-11.9,5.5-25.9,5.5-25.9s-17,14-18.4,24.8c-0.9,6.6,0.2,12,1.2,15.1
		c0.4,1.3,0.5,2.7,0.4,4.1c-1.7,15.9-0.4,28.2-0.4,28.4l1.3-0.1c0-0.2-1.3-11.6,0.2-26.6c0.2-2.1,1-4,2.3-5.6
		C1245.7,290.8,1249.2,285.8,1251.1,279.7z"/>
	<path id="XMLID_169_" class="st2" d="M1268.4,253.3c0,0-18.3,6.8-23.1,21.7c-2.9,9.1-1.5,17.5-0.4,21.8c0.3,1.2,0.3,2.5,0,3.7
		c-4.3,17.2-4.4,35-4.4,35.2h1.5c0-0.2,0.1-17.6,4.2-34.5c0.4-1.7,1.1-3.2,2.2-4.6c3.1-4.2,8.4-11.8,11.5-18.4
		C1264.2,268.9,1268.4,253.3,1268.4,253.3z"/>
	<path id="XMLID_153_" class="st25" d="M1236.1,316.3c-0.5-6.3-2.2-11.9-4.2-16.6c-0.4-0.9-0.6-2-0.4-3c0.3-2,0.4-5-0.4-8.9
		c-1.5-7.3-11.2-23.2-25.3-24.1c0,0,4.9,7.8,7.4,14.3c3.2,8.3,7.7,16.9,15.2,20.2c1.3,0.6,2.3,1.7,2.9,3c1.8,4.4,3.3,9.5,3.7,15.1
		L1236.1,316.3z"/>
	<g id="XMLID_137_">
		<g id="XMLID_475_">
			<path id="XMLID_482_" class="st0" d="M1226.6,348.4h23.2l6-36.8c0.3-1.6-1-3.1-2.6-3.1h-30c-1.7,0-2.9,1.5-2.6,3.1L1226.6,348.4z
				"/>
		</g>
	</g>
</g>
<g id="XMLID_190_">
	<path id="XMLID_199_" class="st26" d="M600.2,89.1h-53.1c-3.4,0-6.2,2.8-6.2,6.2v12.5c0,3.1,2.3,5.7,5.4,6.1
		c0.4,0.1,0.8,0.4,0.8,0.9v6.9c0,0.4,0.5,0.6,0.7,0.2l5.4-7.6c0.2-0.2,0.4-0.4,0.7-0.4h46.2c3.4,0,6.2-2.8,6.2-6.2V95.2
		C606.3,91.8,603.6,89.1,600.2,89.1z"/>
	<g id="XMLID_191_">
		<circle id="XMLID_198_" class="st26" cx="553.2" cy="101.5" r="2"/>
		<circle id="XMLID_197_" class="st26" cx="563.5" cy="101.5" r="2"/>
		<circle id="XMLID_196_" class="st26" cx="573.7" cy="101.5" r="2"/>
		<circle id="XMLID_195_" class="st26" cx="583.9" cy="101.5" r="2"/>
		<circle id="XMLID_194_" class="st26" cx="594.1" cy="101.5" r="2"/>
	</g>
</g>
<g id="XMLID_181_">
	<path id="XMLID_188_" class="st26" d="M180.9,144H234c3.4,0,6.2,2.8,6.2,6.2v12.5c0,3.1-2.3,5.7-5.4,6.1c-0.4,0.1-0.8,0.4-0.8,0.9
		v6.9c0,0.4-0.5,0.6-0.7,0.2l-5.4-7.6c-0.2-0.2-0.4-0.4-1.7-0.4h-46.2c-2.4,0-5.2-2.8-5.2-6.2v-12.5
		C174.7,146.8,177.5,144,180.9,144z"/>
	<g id="XMLID_182_">
		<circle id="XMLID_187_" class="st26" cx="227.8" cy="156.4" r="2"/>
		<circle id="XMLID_186_" class="st26" cx="217.6" cy="156.4" r="2"/>
		<circle id="XMLID_185_" class="st26" cx="207.4" cy="156.4" r="2"/>
		<circle id="XMLID_184_" class="st26" cx="197.2" cy="156.4" r="2"/>
		<circle id="XMLID_183_" class="st26" cx="187" cy="156.4" r="2"/>
	</g>
</g>
<g id="XMLID_140_">
	<path id="XMLID_180_" class="st27" d="M501.4,60.2h-96.7c-5.3,0-9.7-4.3-9.7-9.7l0,0c0-5.3,4.3-9.7,9.7-9.7h96.7
		c5.3,0,9.7,4.3,9.7,9.7l0,0C511,55.8,506.7,60.2,501.4,60.2z"/>
	<g id="XMLID_149_">
		<circle id="XMLID_179_" class="st28" cx="494.8" cy="49.8" r="5.1"/>
		<line id="XMLID_178_" class="st29" x1="498.4" y1="53.5" x2="501.3" y2="56.3"/>
	</g>
</g>
<g id="XMLID_206_">
	<g id="XMLID_286_">
		<path id="XMLID_295_" class="st30" d="M746.9,113.2V103c0-1-0.8-1.8-1.8-1.8h-2.6c-0.8,0-1.5-0.5-1.6-1.3c-0.9-4-2.5-7.7-4.6-11.1
			c-0.4-0.7-0.3-1.5,0.2-2.1l1.9-1.9c0.7-0.7,0.7-1.9,0-2.6l-7.2-7.2c-0.7-0.7-1.9-0.7-2.6,0l-1.9,1.9c-0.6,0.6-1.4,0.6-2.1,0.2
			c-3.4-2.1-7.1-3.7-11.1-4.6c-0.8-0.2-1.3-0.9-1.3-1.6v-2.6c0-1-0.8-1.8-1.8-1.8h-10.2c-1,0-1.8,0.8-1.8,1.8v2.6
			c0,0.8-0.5,1.5-1.3,1.6c-4,0.9-7.7,2.5-11.1,4.6c-0.7,0.4-1.5,0.3-2.1-0.2L682,75c-0.7-0.7-1.9-0.7-2.6,0l-7.2,7.2
			c-0.7,0.7-0.7,1.9,0,2.6l1.9,1.9c0.6,0.6,0.6,1.4,0.2,2.1c-2.1,3.4-3.7,7.1-4.6,11.1c-0.2,0.8-0.9,1.3-1.6,1.3h-2.6
			c-1,0-1.8,0.8-1.8,1.8v10.2c0,1,0.8,1.8,1.8,1.8h2.6c0.8,0,1.5,0.5,1.6,1.3c0.9,4,2.5,7.7,4.6,11.1c0.4,0.7,0.3,1.5-0.2,2.1
			l-1.9,1.9c-0.7,0.7-0.7,1.9,0,2.6l7.2,7.2c0.7,0.7,1.9,0.7,2.6,0l1.9-1.9c0.6-0.6,1.4-0.6,2.1-0.2c3.4,2.1,7.1,3.6,11.1,4.6
			c0.8,0.2,1.3,0.9,1.3,1.6v2.6c0,1,0.8,1.8,1.8,1.8h10.2c1,0,1.8-0.8,1.8-1.8v-2.6c0-0.8,0.5-1.5,1.3-1.6c4-0.9,7.7-2.5,11.1-4.6
			c0.7-0.4,1.5-0.3,2.1,0.2l1.9,1.9c0.7,0.7,1.9,0.7,2.6,0l7.2-7.2c0.7-0.7,0.7-1.9,0-2.6l-1.9-1.9c-0.6-0.6-0.6-1.4-0.2-2.1
			c2.1-3.4,3.7-7.1,4.6-11.1c0.2-0.8,0.9-1.3,1.6-1.3h2.6C746.1,115,746.9,114.2,746.9,113.2z M705.2,137c-16,0-28.9-12.9-28.9-28.9
			c0-15.9,12.9-28.9,28.9-28.9c16,0,28.9,12.9,28.9,28.9C734.1,124.1,721.2,137,705.2,137z"/>
		<path id="XMLID_287_" class="st0" d="M794,147.9v-7c0-0.7-0.6-1.2-1.2-1.2H791c-0.5,0-1-0.4-1.1-0.9c-0.6-2.7-1.7-5.3-3.1-7.6
			c-0.3-0.5-0.2-1,0.2-1.4l1.3-1.3c0.5-0.5,0.5-1.3,0-1.7l-4.9-4.9c-0.5-0.5-1.3-0.5-1.7,0l-1.3,1.3c-0.4,0.4-1,0.4-1.4,0.1
			c-2.3-1.4-4.8-2.5-7.6-3.1c-0.5-0.1-0.9-0.6-0.9-1.1v-1.8c0-0.7-0.6-1.2-1.2-1.2h-7c-0.7,0-1.2,0.6-1.2,1.2v1.8
			c0,0.5-0.4,1-0.9,1.1c-2.7,0.6-5.3,1.7-7.6,3.1c-0.5,0.3-1,0.2-1.4-0.2l-1.3-1.3c-0.5-0.5-1.3-0.5-1.7,0l-4.9,4.9
			c-0.5,0.5-0.5,1.3,0,1.7l1.3,1.3c0.4,0.4,0.4,1,0.2,1.4c-1.4,2.3-2.5,4.8-3.1,7.6c-0.1,0.5-0.6,0.9-1.1,0.9h-1.8
			c-0.7,0-1.2,0.6-1.2,1.2v7c0,0.7,0.6,1.2,1.2,1.2h1.8c0.5,0,1,0.4,1.1,0.9c0.6,2.7,1.7,5.3,3.1,7.6c0.3,0.5,0.2,1-0.2,1.4
			l-1.3,1.3c-0.5,0.5-0.5,1.3,0,1.7l4.9,4.9c0.5,0.5,1.3,0.5,1.7,0l1.3-1.3c0.4-0.4,1-0.4,1.4-0.2c2.3,1.4,4.8,2.5,7.6,3.1
			c0.5,0.1,0.9,0.6,0.9,1.1v1.8c0,0.7,0.6,1.2,1.2,1.2h7c0.7,0,1.2-0.6,1.2-1.2v-1.8c0-0.5,0.4-1,0.9-1.1c2.7-0.6,5.3-1.7,7.5-3.1
			c0.5-0.3,1-0.2,1.4,0.2l1.3,1.3c0.5,0.5,1.3,0.5,1.7,0l4.9-4.9c0.5-0.5,0.5-1.3,0-1.7l-1.3-1.3c-0.4-0.4-0.4-1-0.2-1.4
			c1.4-2.3,2.5-4.8,3.1-7.6c0.1-0.5,0.6-0.9,1.1-0.9h1.8C793.5,149.2,794,148.6,794,147.9z M765.6,163c-10.3,0-18.6-8.3-18.6-18.6
			c0-10.2,8.3-18.6,18.6-18.6c10.3,0,18.6,8.3,18.6,18.6C784.2,154.7,775.9,163,765.6,163z"/>
	</g>
	<g id="XMLID_249_">
		<circle id="XMLID_283_" class="st0" cx="662.5" cy="329.5" r="3.4"/>
		<circle id="XMLID_280_" class="st0" cx="1116.1" cy="237" r="3.4"/>
		<circle id="XMLID_277_" class="st0" cx="1109.3" cy="116.1" r="3.4"/>
		<circle id="XMLID_274_" class="st31" cx="987.6" cy="75" r="2.1"/>
		<circle id="XMLID_271_" class="st0" cx="673.6" cy="46.7" r="2.1"/>
		<circle id="XMLID_268_" class="st0" cx="720.6" cy="177.5" r="2.1"/>
		<circle id="XMLID_265_" class="st0" cx="642.7" cy="332.9" r="2.1"/>
		<circle id="XMLID_262_" class="st0" cx="1066.5" cy="331.5" r="3.4"/>
		<circle id="XMLID_259_" class="st0" cx="1138.5" cy="331.5" r="3.4"/>
		<circle id="XMLID_256_" class="st0" cx="734.1" cy="37.4" r="3.4"/>
		<circle id="XMLID_253_" class="st31" cx="963.2" cy="191.5" r="4.5"/>
		<circle id="XMLID_250_" class="st0" cx="629.1" cy="135.5" r="4.5"/>
	</g>
	<g id="XMLID_245_">
		<path id="XMLID_204_" class="st1" d="M620.8,67.8h-5.7c-0.4,0-0.7-0.3-0.7-0.7v-5.7c0-0.4,0.3-0.7,0.7-0.7h5.7
			c0.4,0,0.7,0.3,0.7,0.7v5.7C621.5,67.5,621.2,67.8,620.8,67.8z"/>
		<path id="XMLID_203_" class="st1" d="M630.2,67.8h-5.7c-0.4,0-0.7-0.3-0.7-0.7v-5.7c0-0.4,0.3-0.7,0.7-0.7h5.7
			c0.4,0,0.7,0.3,0.7,0.7v5.7C630.9,67.5,630.6,67.8,630.2,67.8z"/>
		<path id="XMLID_246_" class="st1" d="M639.6,67.8h-5.7c-0.4,0-0.7-0.3-0.7-0.7v-5.7c0-0.4,0.3-0.7,0.7-0.7h5.7
			c0.4,0,0.7,0.3,0.7,0.7v5.7C640.3,67.5,640,67.8,639.6,67.8z"/>
	</g>
	<g id="XMLID_216_">
		<g id="XMLID_529_">
			<g id="XMLID_534_">
				<path id="XMLID_535_" class="st0" d="M1099.4,314.6h-5.7c-0.4,0-0.7-0.3-0.7-0.7v-5.7c0-0.4,0.3-0.7,0.7-0.7h5.7
					c0.4,0,0.7,0.3,0.7,0.7v5.7C1100.1,314.3,1099.8,314.6,1099.4,314.6z"/>
			</g>
			<g id="XMLID_532_">
				<path id="XMLID_533_" class="st0" d="M1108.8,314.6h-5.7c-0.4,0-0.7-0.3-0.7-0.7v-5.7c0-0.4,0.3-0.7,0.7-0.7h5.7
					c0.4,0,0.7,0.3,0.7,0.7v5.7C1109.5,314.3,1109.2,314.6,1108.8,314.6z"/>
			</g>
			<g id="XMLID_530_">
				<path id="XMLID_531_" class="st0" d="M1118.2,314.6h-5.7c-0.4,0-0.7-0.3-0.7-0.7v-5.7c0-0.4,0.3-0.7,0.7-0.7h5.7
					c0.4,0,0.7,0.3,0.7,0.7v5.7C1118.9,314.3,1118.6,314.6,1118.2,314.6z"/>
			</g>
		</g>
	</g>
	<g id="XMLID_207_">
		<g id="XMLID_498_">
			<path id="XMLID_501_" class="st0" d="M664.9,310.7h-5.7c-0.4,0-0.7-0.3-0.7-0.7v-5.7c0-0.4,0.3-0.7,0.7-0.7h5.7
				c0.4,0,0.7,0.3,0.7,0.7v5.7C665.6,310.4,665.3,310.7,664.9,310.7z"/>
			<path id="XMLID_500_" class="st0" d="M674.3,310.7h-5.7c-0.4,0-0.7-0.3-0.7-0.7v-5.7c0-0.4,0.3-0.7,0.7-0.7h5.7
				c0.4,0,0.7,0.3,0.7,0.7v5.7C675,310.4,674.7,310.7,674.3,310.7z"/>
			<path id="XMLID_499_" class="st0" d="M683.7,310.7H678c-0.4,0-0.7-0.3-0.7-0.7v-5.7c0-0.4,0.3-0.7,0.7-0.7h5.7
				c0.4,0,0.7,0.3,0.7,0.7v5.7C684.4,310.4,684.1,310.7,683.7,310.7z"/>
		</g>
	</g>
	<g id="XMLID_210_">
		<g id="XMLID_424_">
			<path id="XMLID_430_" class="st0" d="M971.7,342H847c-11.8,0-21.3-9.6-21.3-21.3V40c0-11.8,9.6-21.3,21.3-21.3h124.7
				c11.8,0,21.3,9.6,21.3,21.3v280.6C993,332.4,983.4,342,971.7,342z"/>
			<path id="XMLID_429_" class="st1" d="M971.2,337.4H847.5c-10.3,0-18.7-8.4-18.7-18.7V40.2c0-10.3,8.4-18.7,18.7-18.7h123.7
				c10.3,0,18.7,8.4,18.7,18.7v278.5C989.9,329,981.5,337.4,971.2,337.4z"/>
			<path id="XMLID_426_" class="st2" d="M981.9,38.5v280.4c0,6.6-5.3,11.9-11.9,11.9H846.8c-6.6,0-11.9-5.3-11.9-11.9V38.5
				c0-6.6,5.3-11.9,11.9-11.9h20.5c1.1,0,2.2,0.6,2.7,1.7l2.2,4.4c1,2,3,3.3,5.3,3.3h61.8c2.2,0,4.3-1.3,5.3-3.3l2.2-4.4
				c0.5-1,1.6-1.7,2.7-1.7H970C976.5,26.6,981.9,32,981.9,38.5z"/>
			<path id="XMLID_425_" class="st2" d="M935.2,30.8h-49.8c-1.2,0-2.1-0.9-2.1-2.1l0,0c0-1.2,0.9-2.1,2.1-2.1h49.8
				c1.2,0,2.1,0.9,2.1,2.1l0,0C937.3,29.9,936.4,30.8,935.2,30.8z"/>
		</g>
		<path id="XMLID_423_" class="st3" d="M962.8,321.1H853c-4.6,0-8.4-3.8-8.4-8.4v-38.1c0-4.6,3.8-8.4,8.4-8.4h109.8
			c4.6,0,8.4,3.8,8.4,8.4v38.1C971.1,317.4,967.4,321.1,962.8,321.1z"/>
		<path id="XMLID_422_" class="st3" d="M957.3,186.5h-54.2c-3.3,0-6-2.7-6-6V154c0-3.3,2.7-6,6-6h54.2c3.3,0,6,2.7,6,6v26.4
			C963.3,183.8,960.6,186.5,957.3,186.5z"/>
		<g id="XMLID_392_">
			<path id="XMLID_421_" class="st4" d="M969,257.1H856.4c-4,0-7.2-3.2-7.2-7.2v-47c0-4,3.2-7.2,7.2-7.2H969c4,0,7.2,3.2,7.2,7.2v47
				C976.2,253.9,973,257.1,969,257.1z"/>
			<path id="XMLID_420_" class="st5" d="M971.1,197.5v47.9c0,3.7-3,6.8-6.8,6.8h-113c-3.7,0-6.8-3-6.8-6.8v-47.9
				c0-3.7,3-6.8,6.8-6.8h113C968.1,190.8,971.1,193.8,971.1,197.5z"/>
			<path id="XMLID_419_" class="st1" d="M888,247.2h-32.7c-2.7,0-4.9-2.2-4.9-4.9v-32.7c0-2.7,2.2-4.9,4.9-4.9H888
				c2.7,0,4.9,2.2,4.9,4.9v32.7C892.9,245,890.7,247.2,888,247.2z"/>
			<g id="XMLID_399_">
				<path id="XMLID_418_" class="st6" d="M927.8,210.1h-29.3c-0.8,0-1.4-0.6-1.4-1.4l0,0c0-0.8,0.6-1.4,1.4-1.4h29.3
					c0.8,0,1.4,0.6,1.4,1.4l0,0C929.2,209.5,928.6,210.1,927.8,210.1z"/>
				<path id="XMLID_417_" class="st6" d="M914.4,215.9h-16c-0.8,0-1.4-0.6-1.4-1.4l0,0c0-0.8,0.6-1.4,1.4-1.4h16
					c0.8,0,1.4,0.6,1.4,1.4l0,0C915.9,215.2,915.2,215.9,914.4,215.9z"/>
				<path id="XMLID_416_" class="st6" d="M963.5,215.9h-43.2c-0.8,0-1.4-0.6-1.4-1.4l0,0c0-0.8,0.6-1.4,1.4-1.4h43.2
					c0.8,0,1.4,0.6,1.4,1.4l0,0C964.9,215.2,964.3,215.9,963.5,215.9z"/>
				<path id="XMLID_415_" class="st6" d="M923.2,221.6h-24.7c-0.8,0-1.4-0.6-1.4-1.4l0,0c0-0.8,0.6-1.4,1.4-1.4h24.7
					c0.8,0,1.4,0.6,1.4,1.4l0,0C924.6,221,923.9,221.6,923.2,221.6z"/>
				<path id="XMLID_414_" class="st6" d="M944.1,221.6h-15.5c-0.8,0-1.4-0.6-1.4-1.4l0,0c0-0.8,0.6-1.4,1.4-1.4h15.5
					c0.8,0,1.4,0.6,1.4,1.4l0,0C945.6,221,944.9,221.6,944.1,221.6z"/>
				<path id="XMLID_413_" class="st6" d="M963.5,221.6h-14.3c-0.8,0-1.4-0.6-1.4-1.4l0,0c0-0.8,0.6-1.4,1.4-1.4h14.3
					c0.8,0,1.4,0.6,1.4,1.4l0,0C964.9,221,964.3,221.6,963.5,221.6z"/>
				<path id="XMLID_412_" class="st6" d="M963.5,227.4h-65c-0.8,0-1.4-0.6-1.4-1.4l0,0c0-0.8,0.6-1.4,1.4-1.4h65
					c0.8,0,1.4,0.6,1.4,1.4l0,0C964.9,226.7,964.3,227.4,963.5,227.4z"/>
				<path id="XMLID_411_" class="st6" d="M934.2,233.2h-35.8c-0.8,0-1.4-0.6-1.4-1.4l0,0c0-0.8,0.6-1.4,1.4-1.4h35.8
					c0.8,0,1.4,0.6,1.4,1.4l0,0C935.7,232.5,935,233.2,934.2,233.2z"/>
				<path id="XMLID_406_" class="st6" d="M963.5,233.2H940c-0.8,0-1.4-0.6-1.4-1.4l0,0c0-0.8,0.6-1.4,1.4-1.4h23.5
					c0.8,0,1.4,0.6,1.4,1.4l0,0C964.9,232.5,964.3,233.2,963.5,233.2z"/>
				<path id="XMLID_405_" class="st6" d="M919.5,238.9h-21c-0.8,0-1.4-0.6-1.4-1.4l0,0c0-0.8,0.6-1.4,1.4-1.4h21
					c0.8,0,1.4,0.6,1.4,1.4l0,0C920.9,238.3,920.3,238.9,919.5,238.9z"/>
				<path id="XMLID_404_" class="st6" d="M946.2,238.9h-21c-0.8,0-1.4-0.6-1.4-1.4l0,0c0-0.8,0.6-1.4,1.4-1.4h21
					c0.8,0,1.4,0.6,1.4,1.4l0,0C947.6,238.3,947,238.9,946.2,238.9z"/>
				<path id="XMLID_403_" class="st6" d="M963.5,238.9h-12.2c-0.8,0-1.4-0.6-1.4-1.4l0,0c0-0.8,0.6-1.4,1.4-1.4h12.2
					c0.8,0,1.4,0.6,1.4,1.4l0,0C964.9,238.3,964.3,238.9,963.5,238.9z"/>
				<path id="XMLID_401_" class="st6" d="M927.8,244.7h-29.3c-0.8,0-1.4-0.6-1.4-1.4l0,0c0-0.8,0.6-1.4,1.4-1.4h29.3
					c0.8,0,1.4,0.6,1.4,1.4l0,0C929.2,244,928.6,244.7,927.8,244.7z"/>
				<path id="XMLID_400_" class="st6" d="M963.5,210.1h-29.3c-0.8,0-1.4-0.6-1.4-1.4l0,0c0-0.8,0.6-1.4,1.4-1.4h29.3
					c0.8,0,1.4,0.6,1.4,1.4l0,0C964.9,209.5,964.3,210.1,963.5,210.1z"/>
			</g>
			<g id="XMLID_393_">
				<path id="XMLID_398_" class="st0" d="M971.1,197.5v2H844.6v-2c0-3.7,3-6.8,6.8-6.8h113C968.1,190.8,971.1,193.8,971.1,197.5z"/>
				<g id="XMLID_394_">
					<circle id="XMLID_397_" class="st2" cx="945.7" cy="195.3" r="1.6"/>
					<circle id="XMLID_396_" class="st2" cx="953.7" cy="195.3" r="1.6"/>
					<circle id="XMLID_395_" class="st2" cx="961.8" cy="195.3" r="1.6"/>
				</g>
			</g>
		</g>
		<g id="XMLID_309_">
			<path id="XMLID_387_" class="st7" d="M883.4,186.5h-24.2c-3.9,0-7.2-3.2-7.2-7.2v-24.2c0-3.9,3.2-7.2,7.2-7.2h24.2
				c3.9,0,7.2,3.2,7.2,7.2v24.2C890.5,183.3,887.3,186.5,883.4,186.5z"/>
			<g id="XMLID_310_">
				<polyline id="XMLID_386_" class="st8" points="865.3,161.7 859.7,167.2 865.3,172.8 				"/>
				<polyline id="XMLID_352_" class="st8" points="877.3,161.7 882.8,167.2 877.2,172.8 				"/>
				<line id="XMLID_349_" class="st8" x1="873.9" y1="161.7" x2="868.7" y2="172.8"/>
			</g>
		</g>
		<g id="XMLID_278_">
			<path id="XMLID_305_" class="st0" d="M971.1,54v78.3c0,4.3-3.4,7.7-7.7,7.7H852.3c-4.2,0-7.7-3.4-7.7-7.7V54
				c0-4.3,3.5-7.7,7.7-7.7h111.1C967.7,46.4,971.1,49.8,971.1,54z"/>
			<circle id="XMLID_304_" class="st9" cx="945.5" cy="71.1" r="18.3"/>
			<path id="XMLID_303_" class="st1" d="M919,140h-66.7c-4.2,0-7.7-3.4-7.7-7.7V120l29.2-50.5c1.5-2.6,5.3-2.6,6.9,0l22,38.2
				l16.4,28.3C919.8,137.3,919.7,138.9,919,140z"/>
			<path id="XMLID_300_" class="st9" d="M947.7,140H884l18.7-32.4l10.1-17.5c1.4-2.4,4.8-2.4,6.2,0L947.7,140z"/>
		</g>
	</g>
</g>
<g id="XMLID_211_">
	<g id="XMLID_388_">
		<path id="XMLID_391_" class="st11" d="M955.3,348.8h-21.9c-4.3,0-7.7-3.5-7.7-7.7v-21.9c0-4.3,3.5-7.7,7.7-7.7h21.9
			c4.3,0,7.7,3.5,7.7,7.7v21.9C963,345.4,959.5,348.8,955.3,348.8z"/>
		<path id="XMLID_390_" class="st0" d="M948.5,348.8h-21.9c-4.3,0-7.7-3.5-7.7-7.7v-21.9c0-4.3,3.5-7.7,7.7-7.7h21.9
			c4.3,0,7.7,3.5,7.7,7.7v21.9C956.2,345.4,952.7,348.8,948.5,348.8z"/>
		<path id="XMLID_389_" class="st1" d="M933.1,323.1l10.7,6.2c0.7,0.4,0.7,1.3,0,1.7l-10.7,6.2c-0.7,0.4-1.5-0.1-1.5-0.9V324
			C931.6,323.2,932.5,322.7,933.1,323.1z"/>
	</g>
	<g id="XMLID_381_">
		<path id="XMLID_209_" class="st11" d="M1191.5,348.8h-28.6c-5.6,0-10.1-4.5-10.1-10.1v-28.6c0-5.6,4.5-10.1,10.1-10.1h28.6
			c5.6,0,10.1,4.5,9.1,10.1v28.6C1201.6,344.3,1197.1,348.8,1191.5,348.8z"/>
		<path id="XMLID_208_" class="st0" d="M1182.6,348.8H1154c-5.6,0-10.1-4.5-10.1-10.1v-28.6c0-5.6,4.5-10.1,10.1-10.1h28.6
			c5.6,0,10.1,4.5,10.1,10.1v28.6C1192.7,344.3,1188.2,348.8,1182.6,348.8z"/>
		<circle id="XMLID_383_" class="st1" cx="1168.3" cy="312" r="5.9"/>
		<path id="XMLID_382_" class="st1" d="M1180.5,331.9v8.7c0,0.8-0.6,1.4-1.4,1.4h-21.6c-0.8,0-1.4-0.6-1.4-1.4v-8.7
			c0-6.8,5.5-12.2,12.2-12.2l0,0C1175.1,319.6,1180.5,325.1,1180.5,331.9z"/>
	</g>
	<g id="XMLID_374_">
		<path id="XMLID_380_" class="st9" d="M1059.2,112.6H1040c-0.8,0-1.4-0.6-1.4-1.4l0,0c0-0.8,0.6-1.4,1.4-1.4h19.2
			c0.8,0,1.4,0.6,1.4,1.4l0,0C1060.6,111.9,1060,112.6,1059.2,112.6z"/>
		<path id="XMLID_379_" class="st9" d="M1078.4,112.6h-13.9c-0.8,0-1.4-0.6-1.4-1.4l0,0c0-0.8,0.6-1.4,1.4-1.4h13.9
			c0.8,0,1.4,0.6,1.4,1.4l0,0C1079.8,111.9,1079.2,112.6,1078.4,112.6z"/>
		<path id="XMLID_378_" class="st9" d="M1048.1,118.9h-8.2c-0.8,0-1.4-0.6-1.4-1.4l0,0c0-0.8,0.6-1.4,1.4-1.4h8.2
			c0.8,0,1.4,0.6,1.4,1.4l0,0C1049.6,118.3,1048.9,118.9,1048.1,118.9z"/>
		<path id="XMLID_377_" class="st9" d="M1078.4,118.9H1053c-0.8,0-1.4-0.6-1.4-1.4l0,0c0-0.8,0.6-1.4,1.4-1.4h25.4
			c0.8,0,1.4,0.6,1.4,1.4l0,0C1079.8,118.3,1079.2,118.9,1078.4,118.9z"/>
		<path id="XMLID_376_" class="st9" d="M1065.3,125.3H1040c-0.8,0-1.4-0.6-1.4-1.4l0,0c0-0.8,0.6-1.4,1.4-1.4h25.3
			c0.8,0,1.4,0.6,1.4,1.4l0,0C1066.7,124.6,1066.1,125.3,1065.3,125.3z"/>
		<path id="XMLID_375_" class="st9" d="M1078.4,125.3h-8.2c-0.8,0-1.4-0.6-1.4-1.4l0,0c0-0.8,0.6-1.4,1.4-1.4h8.2
			c0.8,0,1.4,0.6,1.4,1.4l0,0C1079.8,124.6,1079.2,125.3,1078.4,125.3z"/>
	</g>
	<g id="XMLID_353_">
		<path id="XMLID_373_" class="st0" d="M199,243.8h-66.5c-2.1,0-3.8-1.7-3.8-3.8v-33.3c0-2.1,1.7-3.8,3.8-3.8H199
			c2.1,0,3.8,1.7,3.8,3.8V240C202.8,242.1,201.1,243.8,199,243.8z"/>
		<line id="XMLID_372_" class="st32" x1="131.8" y1="208.4" x2="199.6" y2="208.4"/>
		<circle id="XMLID_371_" class="st1" cx="197.9" cy="205.6" r="0.8"/>
		<circle id="XMLID_370_" class="st1" cx="193.6" cy="205.6" r="0.8"/>
		<circle id="XMLID_369_" class="st1" cx="189.3" cy="205.6" r="0.8"/>
		<g id="XMLID_354_">
			<g id="XMLID_362_">
				<path id="XMLID_368_" class="st33" d="M144.4,213.9h-11.5c-0.6,0-1.1-0.5-1.1-1.1l0,0c0-0.6,0.5-1.1,1.1-1.1h11.5
					c0.6,0,1.1,0.5,1.1,1.1l0,0C145.6,213.4,145.1,213.9,144.4,213.9z"/>
				<path id="XMLID_367_" class="st33" d="M144.4,219.1h-11.5c-0.6,0-1.1-0.5-1.1-1.1l0,0c0-0.6,0.5-1.1,1.1-1.1h11.5
					c0.6,0,1.1,0.5,1.1,1.1l0,0C145.6,218.6,145.1,219.1,144.4,219.1z"/>
				<path id="XMLID_366_" class="st33" d="M144.4,224.4h-11.5c-0.6,0-1.1-0.5-1.1-1.1l0,0c0-0.6,0.5-1.1,1.1-1.1h11.5
					c0.6,0,1.1,0.5,1.1,1.1l0,0C145.6,223.9,145.1,224.4,144.4,224.4z"/>
				<path id="XMLID_365_" class="st33" d="M144.4,229.6h-11.5c-0.6,0-1.1-0.5-1.1-1.1l0,0c0-0.6,0.5-1.1,1.1-1.1h11.5
					c0.6,0,1.1,0.5,1.1,1.1l0,0C145.6,229.1,145.1,229.6,144.4,229.6z"/>
				<path id="XMLID_364_" class="st33" d="M144.4,234.9h-11.5c-0.6,0-1.1-0.5-1.1-1.1l0,0c0-0.6,0.5-1.1,1.1-1.1h11.5
					c0.6,0,1.1,0.5,1.1,1.1l0,0C145.6,234.4,145.1,234.9,144.4,234.9z"/>
				<path id="XMLID_363_" class="st33" d="M144.4,240.1h-11.5c-0.6,0-1.1-0.5-1.1-1.1l0,0c0-0.6,0.5-1.1,1.1-1.1h11.5
					c0.6,0,1.1,0.5,1.1,1.1l0,0C145.6,239.6,145.1,240.1,144.4,240.1z"/>
			</g>
			<g id="XMLID_355_">
				<path id="XMLID_361_" class="st34" d="M198.5,213.9h-49.6c-0.6,0-1.1-0.5-1.1-1.1l0,0c0-0.6,0.5-1.1,1.1-1.1h49.6
					c0.6,0,1.1,0.5,1.1,1.1l0,0C199.6,213.4,199.1,213.9,198.5,213.9z"/>
				<path id="XMLID_360_" class="st34" d="M198.5,219.1h-49.6c-0.6,0-1.1-0.5-1.1-1.1l0,0c0-0.6,0.5-1.1,1.1-1.1h49.6
					c0.6,0,1.1,0.5,1.1,1.1l0,0C199.6,218.6,199.1,219.1,198.5,219.1z"/>
				<path id="XMLID_359_" class="st34" d="M198.5,224.4h-49.6c-0.6,0-1.1-0.5-1.1-1.1l0,0c0-0.6,0.5-1.1,1.1-1.1h49.6
					c0.6,0,1.1,0.5,1.1,1.1l0,0C199.6,223.9,199.1,224.4,198.5,224.4z"/>
				<path id="XMLID_358_" class="st34" d="M198.5,229.6h-49.6c-0.6,0-1.1-0.5-1.1-1.1l0,0c0-0.6,0.5-1.1,1.1-1.1h49.6
					c0.6,0,1.1,0.5,1.1,1.1l0,0C199.6,229.1,199.1,229.6,198.5,229.6z"/>
				<path id="XMLID_357_" class="st34" d="M198.5,234.9h-49.6c-0.6,0-1.1-0.5-1.1-1.1l0,0c0-0.6,0.5-1.1,1.1-1.1h49.6
					c0.6,0,1.1,0.5,1.1,1.1l0,0C199.6,234.4,199.1,234.9,198.5,234.9z"/>
				<path id="XMLID_356_" class="st34" d="M198.5,240.1h-49.6c-0.6,0-1.1-0.5-1.1-1.1l0,0c0-0.6,0.5-1.1,1.1-1.1h49.6
					c0.6,0,1.1,0.5,1.1,1.1l0,0C199.6,239.6,199.1,240.1,198.5,240.1z"/>
			</g>
		</g>
	</g>
	<g id="XMLID_328_">
		<circle id="XMLID_350_" class="st30" cx="1230.2" cy="50.6" r="30.5"/>
		<circle id="XMLID_347_" class="st0" cx="1230.2" cy="50.6" r="26.5"/>
		<circle id="XMLID_346_" class="st1" cx="1230.2" cy="50.6" r="2.4"/>
		<path id="XMLID_345_" class="st1" d="M1230,50.1L1230,50.1c-0.4,0.2-0.8,0.1-1-0.3l-7.8-14.1c-0.2-0.4-0.1-0.8,0.3-1l0,0
			c0.4-0.2,0.8-0.1,1,0.3l7.8,14.1C1230.5,49.4,1230.3,49.9,1230,50.1z"/>
		<path id="XMLID_344_" class="st1" d="M1230.6,51L1230.6,51c0.3-0.3,0.8-0.3,1.1,0l6.8,6.8c0.3,0.3,0.3,0.8,0,1.1l0,0
			c-0.3,0.3-0.8,0.3-1.1,0l-6.8-6.8C1230.3,51.7,1230.3,51.3,1230.6,51z"/>
		<g id="XMLID_339_">
			<line id="XMLID_343_" class="st35" x1="1230.4" y1="29.3" x2="1230.4" y2="26.3"/>
			<line id="XMLID_342_" class="st35" x1="1251.5" y1="50.7" x2="1254.5" y2="50.7"/>
			<line id="XMLID_341_" class="st35" x1="1230.1" y1="71.8" x2="1230.1" y2="74.9"/>
			<line id="XMLID_340_" class="st35" x1="1209" y1="50.4" x2="1205.9" y2="50.4"/>
		</g>
		<g id="XMLID_334_" class="st19">
			<line id="XMLID_338_" class="st36" x1="1219.7" y1="32.1" x2="1218.2" y2="29.5"/>
			<line id="XMLID_337_" class="st36" x1="1248.7" y1="40.1" x2="1251.3" y2="38.6"/>
			<line id="XMLID_336_" class="st36" x1="1240.7" y1="69.1" x2="1242.2" y2="71.7"/>
			<line id="XMLID_335_" class="st36" x1="1211.7" y1="61.1" x2="1209.1" y2="62.6"/>
		</g>
		<g id="XMLID_329_" class="st19">
			<line id="XMLID_333_" class="st36" x1="1211.9" y1="39.8" x2="1209.3" y2="38.3"/>
			<line id="XMLID_332_" class="st36" x1="1241" y1="32.3" x2="1242.5" y2="29.6"/>
			<line id="XMLID_331_" class="st36" x1="1248.5" y1="61.3" x2="1251.2" y2="62.9"/>
			<line id="XMLID_330_" class="st36" x1="1219.5" y1="68.9" x2="1217.9" y2="71.5"/>
		</g>
	</g>
	<g id="XMLID_306_">
		<path id="XMLID_205_" class="st11" d="M466.9,359.2h-32.4c-5.3,0-9.6-4.3-9.6-9.6v-32.4c0-5.3,4.3-9.6,9.6-9.6h32.4
			c5.3,0,9.6,4.3,9.6,9.6v32.4C476.5,354.9,472.2,359.2,466.9,359.2z"/>
		<path id="XMLID_326_" class="st0" d="M464.8,354.8h-36.2c-4.2,0-7.7-3.4-7.7-7.7v-36.2c0-4.2,3.4-7.7,7.7-7.7h36.2
			c4.2,0,7.7,3.4,7.7,7.7v36.2C472.5,351.3,469,354.8,464.8,354.8z"/>
		<g id="XMLID_307_">
			<g id="XMLID_314_">
				<path id="XMLID_318_" class="st2" d="M455.6,323.1h-0.3v-3c0-4.8-3.9-8.8-8.8-8.8c-4.8,0-8.8,3.9-8.8,8.8v3h-0.1
					c-1.4,0-2.5,1.1-2.5,2.5v11.1c0,1.4,1.1,2.5,2.5,2.5h17.9c1.4,0,2.5-1.1,2.5-2.5v-11.1C458.1,324.2,457,323.1,455.6,323.1z
					 M440,320.2c0-3.6,2.9-6.6,6.6-6.6c3.6,0,6.6,2.9,6.6,6.6v3H440V320.2z"/>
				<path id="XMLID_315_" class="st37" d="M449.6,328.8c0-1.8-1.6-3.2-3.5-2.8c-1.1,0.2-2,1.1-2.2,2.2c-0.3,1.3,0.3,2.5,1.4,3.1
					c0.2,0.1,0.3,0.3,0.3,0.6l-0.5,1.8c-0.3,1.1,0.5,2.2,1.7,2.2c1.1,0,2-1.1,1.7-2.2l-0.5-1.8c-0.1-0.2,0.1-0.5,0.3-0.6
					C449,330.8,449.6,329.9,449.6,328.8z"/>
			</g>
			<path id="XMLID_311_" class="st2" d="M457.1,343.1h-20.7c-0.6,0-1.1-0.5-1.1-1.1l0,0c0-0.6,0.5-1.1,1.1-1.1h20.7
				c0.6,0,1.1,0.5,1.1,1.1l0,0C458.1,342.6,457.6,343.1,457.1,343.1z"/>
			<path id="XMLID_308_" class="st2" d="M457.1,346.6h-20.7c-0.6,0-1.1-0.5-1.1-1.1l0,0c0-0.6,0.5-1.1,1.1-1.1h20.7
				c0.6,0,1.1,0.5,1.1,1.1l0,0C458.1,346.2,457.6,346.6,457.1,346.6z"/>
		</g>
	</g>
	<g id="XMLID_264_">
		<g id="XMLID_297_">
			<path id="XMLID_299_" class="st11" d="M1176.8,252.8h-19.1c-3.1,0-5.6-2.5-5.6-5.6v-19.1c0-3.1,2.5-5.6,5.6-5.6h19.1
				c3.1,0,5.6,2.5,5.6,5.6v19.1C1182.4,250.2,1179.9,252.8,1176.8,252.8z"/>
			<path id="XMLID_298_" class="st0" d="M1175.6,250.1h-21.3c-2.5,0-4.5-2-4.5-4.5v-21.3c0-2.5,2-4.5,4.5-4.5h21.3
				c2.5,0,4.5,2,4.5,4.5v21.3C1180.1,248.1,1178.1,250.1,1175.6,250.1z"/>
		</g>
		<g id="XMLID_266_">
			<g id="XMLID_276_">
				<path id="XMLID_296_" class="st1" d="M1158.8,244c-0.1,0-0.2,0-0.3,0c-0.5-0.1-0.8-0.7-0.6-1.2l4.6-16.2
					c0.1-0.5,0.7-0.8,1.2-0.6c0.5,0.1,0.8,0.7,0.6,1.2l-4.6,16.2C1159.6,243.8,1159.2,244,1158.8,244z"/>
			</g>
			<g id="XMLID_273_">
				<path id="XMLID_275_" class="st1" d="M1166.5,244c-0.1,0-0.2,0-0.3,0c-0.5-0.1-0.8-0.7-0.6-1.2l4.6-16.2
					c0.1-0.5,0.7-0.8,1.2-0.6c0.5,0.1,0.8,0.7,0.6,1.2l-4.6,16.2C1167.3,243.8,1166.9,244,1166.5,244z"/>
			</g>
			<g id="XMLID_270_">
				<path id="XMLID_272_" class="st1" d="M1173.1,232.2h-16.2c-0.5,0-0.9-0.4-0.9-0.9s0.4-0.9,0.9-0.9h16.2c0.5,0,0.9,0.4,0.9,0.9
					S1173.6,232.2,1173.1,232.2z"/>
			</g>
			<g id="XMLID_267_">
				<path id="XMLID_269_" class="st1" d="M1173.1,239.6h-16.2c-0.5,0-0.9-0.4-0.9-0.9c0-0.5,0.4-0.9,0.9-0.9h16.2
					c0.5,0,0.9,0.4,0.9,0.9C1174,239.2,1173.6,239.6,1173.1,239.6z"/>
			</g>
		</g>
	</g>
	<g id="XMLID_214_">
		<path id="XMLID_263_" class="st9" d="M811.1,156.4h-11.7c-0.7,0-1.3-0.6-1.3-1.3l0,0c0-0.7,0.6-1.3,1.3-1.3h11.7
			c0.7,0,1.3,0.6,1.3,1.3l0,0C812.4,155.9,811.8,156.4,811.1,156.4z"/>
		<path id="XMLID_261_" class="st9" d="M823,162.2h-23.6c-0.7,0-1.3-0.6-1.3-1.3l0,0c0-0.7,0.6-1.3,1.3-1.3H823
			c0.7,0,1.3,0.6,1.3,1.3l0,0C824.2,161.6,823.7,162.2,823,162.2z"/>
		<path id="XMLID_260_" class="st9" d="M802.2,167.9h-2.8c-0.7,0-1.3-0.6-1.3-1.3l0,0c0-0.7,0.6-1.3,1.3-1.3h2.8
			c0.7,0,1.3,0.6,1.3,1.3l0,0C803.5,167.3,802.9,167.9,802.2,167.9z"/>
		<path id="XMLID_257_" class="st9" d="M823,167.9h-16.4c-0.7,0-1.3-0.6-1.3-1.3l0,0c0-0.7,0.6-1.3,1.3-1.3H823
			c0.7,0,1.3,0.6,1.3,1.3l0,0C824.2,167.3,823.7,167.9,823,167.9z"/>
		<path id="XMLID_215_" class="st9" d="M823,156.4h-7.1c-0.7,0-1.3-0.6-1.3-1.3l0,0c0-0.7,0.6-1.3,1.3-1.3h7.1
			c0.7,0,1.3,0.6,1.3,1.3l0,0C824.2,155.9,823.7,156.4,823,156.4z"/>
	</g>
	<path id="XMLID_212_" class="st1" d="M756.8,332c-1.5,0-3,0.4-4.2,1.1c-0.5-4.4-4.2-7.8-8.7-7.8c-4.8,0-8.8,3.9-8.8,8.8
		c0,0.3,0,0.6,0.1,1c-0.4-0.1-0.8-0.1-1.2-0.1c-3.7,0-6.7,3-6.7,6.7c0,3.7,3,6.7,6.7,6.7h22.9c4.5,0,8.2-3.7,8.2-8.2
		C765,335.7,761.3,332,756.8,332z"/>
</g>
<g id="XMLID_281_">
	<path id="XMLID_437_" class="st30" d="M105.9,77.2V67c0-1-0.8-1.8-1.8-1.8h-2.6c-0.8,0-1.5-0.5-1.6-1.3c-0.9-4-2.5-7.7-4.6-11.1
		c-0.4-0.7-0.3-1.5,0.2-2.1l1.9-1.9c0.7-0.7,0.7-1.9,0-2.6L90.1,39c-0.7-0.7-1.9-0.7-2.6,0l-1.9,1.9c-0.6,0.6-1.4,0.6-2.1,0.2
		c-3.4-2.1-7.1-3.7-11.1-4.6c-0.8-0.2-1.3-0.9-1.3-1.6v-2.6c0-1-0.8-1.8-1.8-1.8H59.1c-1,0-1.8,0.8-1.8,1.8v2.6
		c0,0.8-0.5,1.5-1.3,1.6c-4,0.9-7.7,2.5-11.1,4.6c-0.7,0.4-1.5,0.3-2.1-0.2L41,39c-0.7-0.7-1.9-0.7-2.6,0l-7.2,7.2
		c-0.7,0.7-0.7,1.9,0,2.6l1.9,1.9c0.6,0.6,0.6,1.4,0.2,2.1c-2.1,3.4-3.7,7.1-4.6,11.1c-0.2,0.8-0.9,1.3-1.6,1.3h-2.6
		c-1,0-1.8,0.8-1.8,1.8v10.2c0,1,0.8,1.8,1.8,1.8h2.6c0.8,0,1.5,0.5,1.6,1.3c0.9,4,2.5,7.7,4.6,11.1c0.4,0.7,0.3,1.5-0.2,2.1
		l-1.9,1.9c-0.7,0.7-0.7,1.9,0,2.6l7.2,7.2c0.7,0.7,1.9,0.7,2.6,0l1.9-1.9c0.6-0.6,1.4-0.6,2.1-0.2c3.4,2.1,7.1,3.6,11.1,4.6
		c0.8,0.2,1.3,0.9,1.3,1.6v2.6c0,1,0.8,1.8,1.8,1.8h10.2c1,0,1.8-0.8,1.8-1.8v-2.6c0-0.8,0.5-1.5,1.3-1.6c4-0.9,7.7-2.5,11.1-4.6
		c0.7-0.4,1.5-0.3,2.1,0.2l1.9,1.9c0.7,0.7,1.9,0.7,2.6,0l7.2-7.2c0.7-0.7,0.7-1.9,0-2.6l-1.9-1.9c-0.6-0.6-0.6-1.4-0.2-2.1
		c2.1-3.4,3.7-7.1,4.6-11.1c0.2-0.8,0.9-1.3,1.6-1.3h2.6C105.1,79,105.9,78.2,105.9,77.2z M64.2,101c-16,0-28.9-12.9-28.9-28.9
		c0-15.9,12.9-28.9,28.9-28.9c16,0,28.9,12.9,28.9,28.9C93.1,88.1,80.2,101,64.2,101z"/>
	<path id="XMLID_282_" class="st5" d="M153,111.9v-7c0-0.7-0.6-1.2-1.2-1.2H150c-0.5,0-1-0.4-1.1-0.9c-0.6-2.7-1.7-5.3-3.1-7.6
		c-0.3-0.5-0.2-1,0.2-1.4l1.3-1.3c0.5-0.5,0.5-1.3,0-1.7l-4.9-4.9c-0.5-0.5-1.3-0.5-1.7,0l-1.3,1.3c-0.4,0.4-1,0.4-1.4,0.1
		c-2.3-1.4-4.8-2.5-7.6-3.1c-0.5-0.1-0.9-0.6-0.9-1.1v-1.8c0-0.7-0.6-1.2-1.2-1.2h-7c-0.7,0-1.2,0.6-1.2,1.2v1.8
		c0,0.5-0.4,1-0.9,1.1c-2.7,0.6-5.3,1.7-7.6,3.1c-0.5,0.3-1,0.2-1.4-0.2l-1.3-1.3c-0.5-0.5-1.3-0.5-1.7,0l-4.9,4.9
		c-0.5,0.5-0.5,1.3,0,1.7l1.3,1.3c0.4,0.4,0.4,1,0.2,1.4c-1.4,2.3-2.5,4.8-3.1,7.6c-0.1,0.5-0.6,0.9-1.1,0.9h-1.8
		c-0.7,0-1.2,0.6-1.2,1.2v7c0,0.7,0.6,1.2,1.2,1.2h1.8c0.5,0,1,0.4,1.1,0.9c0.6,2.7,1.7,5.3,3.1,7.6c0.3,0.5,0.2,1-0.2,1.4l-1.3,1.3
		c-0.5,0.5-0.5,1.3,0,1.7l4.9,4.9c0.5,0.5,1.3,0.5,1.7,0l1.3-1.3c0.4-0.4,1-0.4,1.4-0.2c2.3,1.4,4.8,2.5,7.6,3.1
		c0.5,0.1,0.9,0.6,0.9,1.1v1.8c0,0.7,0.6,1.2,1.2,1.2h7c0.7,0,1.2-0.6,1.2-1.2v-1.8c0-0.5,0.4-1,0.9-1.1c2.7-0.6,5.3-1.7,7.5-3.1
		c0.5-0.3,1-0.2,1.4,0.2l1.3,1.3c0.5,0.5,1.3,0.5,1.7,0l4.9-4.9c0.5-0.5,0.5-1.3,0-1.7l-1.3-1.3c-0.4-0.4-0.4-1-0.2-1.4
		c1.4-2.3,2.5-4.8,3.1-7.6c0.1-0.5,0.6-0.9,1.1-0.9h1.8C152.5,113.2,153,112.6,153,111.9z M124.6,127c-10.3,0-18.6-8.3-18.6-18.6
		c0-10.2,8.3-18.6,18.6-18.6c10.3,0,18.6,8.3,18.6,18.6C143.2,118.7,134.9,127,124.6,127z"/>
</g>
</svg>
