<?xml version="1.0" encoding="utf-8"?>
<!-- Generator: Adobe Illustrator 19.0.0, SVG Export Plug-In . SVG Version: 6.00 Build 0)  -->
<svg version="1.1" id="Layer_1" xmlns="http://www.w3.org/2000/svg" xmlns:xlink="http://www.w3.org/1999/xlink" x="0px" y="0px"
	 viewBox="0 0 1342 366" style="enable-background:new 0 0 1342 366;" xml:space="preserve">
<style type="text/css">
	.st0{fill:#F2BA1B;}
	.st1{fill:#CFE9EB;}
	.st2{fill:#54C0A5;}
	.st3{fill:#FFFFFF;}
	.st4{fill:#FDEFE8;}
	.st5{fill:#00A5D4;}
	.st6{fill:#76256D;}
	.st7{fill:#E7E3E9;}
	.st8{fill:#E6C6B4;}
	.st9{fill:#F1886E;}
	.st10{fill:#FBAC3C;}
	.st11{fill:none;stroke:#FFFFFF;stroke-linecap:round;stroke-miterlimit:10;}
	.st12{fill:#190F0E;}
	.st13{fill:#C63051;}
	.st14{fill:#FBAB3B;}
	.st15{fill:#2C2D70;}
	.st16{fill:#1E1E50;}
	.st17{fill:#181030;}
	.st18{opacity:0.45;fill:#051F24;}
	.st19{fill:#FFCD02;}
	.st20{fill:#F6882E;}
	.st21{fill:#EE243D;}
	.st22{fill:#0B334C;}
	.st23{fill:#F8A286;}
	.st24{fill:#473763;}
	.st25{fill:#F58E86;}
	.st26{fill:#1D91A2;}
	.st27{fill:#3BB0C8;}
	.st28{fill:#EF4966;}
	.st29{fill:#FAC1BE;}
	.st30{fill:#F59199;}
	.st31{fill:#56150F;}
	.st32{fill:#6D2F24;}
	.st33{fill:#F48D79;}
	.st34{fill:#EF4B64;}
	.st35{fill:#28444F;}
	.st36{fill:#DE4B9B;}
	.st37{fill:#CC8579;}
	.st38{fill:#F9CDE0;}
	.st39{fill:#D78928;}
	.st40{fill:#0CA1DC;}
	.st41{fill:#05324C;}
	.st42{fill:#08202F;}
	.st43{fill:#015682;}
	.st44{fill:#CB3353;}
	.st45{fill:#F6968D;}
	.st46{fill:#00486A;}
	.st47{fill:#0EA2DD;}
	.st48{fill:#07547E;}
	.st49{fill:#463A63;}
	.st50{fill:#CC852A;}
	.st51{fill:#FCB661;}
	.st52{font-family:'Agan65';}
	.st53{font-size:13.1883px;}
	.st54{fill:#D4C3BB;}
	.st55{fill:#EDBEA4;}
	.st56{fill:none;stroke:#181030;stroke-linecap:round;stroke-linejoin:round;stroke-miterlimit:10;}
	.st57{fill:#EEC79A;}
	.st58{fill:#B68D5F;}
	.st59{fill:none;stroke:#FFFFFF;stroke-linecap:round;stroke-linejoin:round;stroke-miterlimit:10;}
	.st60{fill:none;stroke:#FFFFFF;stroke-width:4;stroke-linecap:round;stroke-linejoin:round;stroke-miterlimit:10;}
	.st61{fill:#E0E0E0;}
	.st62{fill:none;stroke:#000000;stroke-miterlimit:10;}
	.st63{opacity:0.7;fill:#F2BA1B;}
	.st64{fill:#F5F5F5;}
	.st65{fill:#FAFBFB;}
	.st66{fill:#263238;}
	.st67{opacity:0.2;fill:#FFFFFF;}
	.st68{opacity:0.4;fill:#FFFFFF;}
	.st69{fill:#5274B8;}
	.st70{opacity:0.6;fill:#FFFFFF;enable-background:new    ;}
	.st71{opacity:0.1;enable-background:new    ;}
	.st72{opacity:0.2;enable-background:new    ;}
	.st73{fill:none;stroke:#FFFFFF;stroke-miterlimit:10;}
	.st74{fill:none;stroke:#FFFFFF;stroke-miterlimit:10;stroke-dasharray:4.961,4.961;}
	.st75{fill:none;stroke:#FFFFFF;stroke-miterlimit:10;stroke-dasharray:4.9124,4.9124;}
	.st76{fill:#5274B8;stroke:#FFFFFF;stroke-miterlimit:10;}
	.st77{fill:none;stroke:#FFFFFF;stroke-width:1.5;stroke-linecap:round;stroke-linejoin:round;stroke-miterlimit:10;}
	.st78{opacity:0.5;fill:#FFFFFF;}
	.st79{fill:none;stroke:#5274B8;stroke-miterlimit:10;}
	.st80{fill:#FFFFFF;stroke:#5274B8;stroke-miterlimit:10;}
	.st81{opacity:0.7;fill:#FFFFFF;}
	.st82{opacity:0.4;enable-background:new    ;}
	.st83{opacity:0.9;fill:#FFFFFF;}
	.st84{opacity:0.6;fill:#FFFFFF;}
	.st85{opacity:0.1;}
	.st86{opacity:0.3;enable-background:new    ;}
	.st87{fill:#EBB376;}
	.st88{fill:none;stroke:#263238;stroke-width:0.5;stroke-linecap:round;stroke-linejoin:round;stroke-miterlimit:10;}
	.st89{opacity:0.2;fill:#FFFFFF;enable-background:new    ;}
	.st90{opacity:0.3;fill:#FFFFFF;enable-background:new    ;}
	.st91{fill:#B97964;}
	.st92{opacity:0.4;fill:#FFFFFF;enable-background:new    ;}
	.st93{fill:#A24F40;}
	.st94{fill:none;stroke:#FFFFFF;stroke-width:2;stroke-linecap:round;stroke-linejoin:round;stroke-miterlimit:10;}
</style>
<g id="XMLID_381_">
	<g id="XMLID_391_">
		<path id="XMLID_393_" class="st0" d="M442.4,75.1c0-1.6,0-3.2,0-4.8c0.1-0.6,0.1-1.2,0.2-1.7c1-8.9,4.4-16.7,10.4-23.4
			c6.4-7.1,14.2-11.5,23.6-13.1c1.6-0.3,3.1-0.4,4.7-0.6c1.6,0,3.2,0,4.8,0c0.2,0,0.4,0.1,0.6,0.1c6.5,0.5,12.5,2.3,18,5.7
			c10.7,6.6,17.3,16,19.6,28.4c0.3,1.5,0.4,3.1,0.6,4.7c0,1.6,0,3.2,0,4.8c-0.1,0.6-0.1,1.2-0.2,1.7c-1,8.9-4.4,16.7-10.4,23.4
			c-6.4,7.1-14.2,11.5-23.6,13.1c-1.6,0.3-3.1,0.4-4.7,0.6c-1.6,0-3.2,0-4.8,0c-0.2,0-0.4-0.1-0.6-0.1c-6.5-0.5-12.5-2.3-18-5.7
			c-10.7-6.6-17.3-16-19.6-28.4C442.8,78.2,442.6,76.7,442.4,75.1z M518.6,72.7c0-19.2-15.6-34.8-34.8-34.9
			c-19.2,0-34.8,15.6-34.9,34.8c-0.1,19.2,15.6,34.9,34.9,34.9C503,107.5,518.6,91.9,518.6,72.7z"/>
		<path id="XMLID_392_" class="st0" d="M480.5,63.3c0-3.1,0-6.3,0-9.4c0-2.4,2.2-4,4.4-3.1c1.3,0.5,2,1.7,2,3.4c0,5.3,0,10.6,0,16
			c0,1,0.3,1.5,1,2c3.4,2.5,6.8,5.1,10.3,7.7c1.2,0.9,1.8,2,1.4,3.5c-0.6,2.2-3,3.1-4.9,1.8c-1.2-0.8-2.3-1.7-3.5-2.6
			c-2.9-2.2-5.9-4.4-8.8-6.6c-1.3-0.9-1.8-2.1-1.8-3.6C480.5,69.3,480.5,66.3,480.5,63.3z"/>
	</g>
	<path id="XMLID_390_" class="st1" d="M569.2,360.5H108.9c0,0-30.3-116.8,78.7-141.9c109-25.2,17.6-39.3,2.9-81
		C175.8,95.9,323.4-44.3,405.4,84.8c82.1,129.1,72.8,129.8,106.8,62.7C546.3,80.5,569.2,360.5,569.2,360.5z"/>
	<circle id="XMLID_389_" class="st1" cx="130.1" cy="155.8" r="9.4"/>
	<circle id="XMLID_388_" class="st1" cx="153.4" cy="72.1" r="4.2"/>
	<circle id="XMLID_387_" class="st1" cx="100.5" cy="89.2" r="4.6"/>
	<circle id="XMLID_386_" class="st1" cx="208.6" cy="52" r="3.5"/>
	<circle id="XMLID_385_" class="st1" cx="71" cy="328.9" r="4.9"/>
	<circle id="XMLID_384_" class="st1" cx="535.8" cy="107.8" r="3.7"/>
	<circle id="XMLID_383_" class="st1" cx="406.8" cy="40.3" r="3.9"/>
	<circle id="XMLID_382_" class="st1" cx="432.2" cy="11.3" r="2.3"/>
</g>
<g id="XMLID_355_">
	<g id="XMLID_372_">
		<path id="XMLID_378_" class="st2" d="M549,306.5c-16.6,6.3-28.8,24-35.7,36.8c14.2-30.6,44.5-99.4,23.6-86.6
			c-20.1,12.3-27.1,63.2-29.3,87.6c1.6-28.3,2.9-93.1-18.7-99.7c-22.6-7,3.5,72.4,13.9,102c-5.7-13.6-17.6-34.7-35.2-30.1
			c-25.6,6.8,39.2,40.9,39.2,40.9C555.4,326.1,576.1,296.2,549,306.5z"/>
		<g id="XMLID_373_">
			<path id="XMLID_377_" class="st3" d="M555.6,308.5c-0.1-0.1-0.3-0.2-0.4-0.1c-5.9,4-12.9,10-19.7,16.2c0,0,0,0,0,0
				c-3.8,3.5-7.5,7.1-11,10.6l3.2-10c0-0.1,0-0.3-0.2-0.3c-0.1,0-0.3,0-0.3,0.2l-3.5,11c-9.2,9.2-16.1,16.7-16.2,16.9
				c-0.1,0.1-0.1,0.3,0,0.4c0.1,0,0.1,0.1,0.2,0.1c0.1,0,0.1,0,0.2-0.1c0.1-0.1,1.9-2.1,4.9-5.2l7.8-2.4c0.1,0,0.2-0.2,0.2-0.3
				c0-0.1-0.2-0.2-0.3-0.2l-6.9,2.1c5.3-5.5,13.6-14.1,22.4-22.2l8.8-0.8c0.1,0,0.3-0.1,0.2-0.3c0-0.1-0.1-0.3-0.3-0.2l-8.1,0.8
				c6.5-6,13.3-11.7,19-15.6C555.7,308.8,555.7,308.6,555.6,308.5z"/>
			<path id="XMLID_376_" class="st3" d="M508.7,349.3C508.7,349.3,508.8,349.3,508.7,349.3c0.2,0,0.3-0.1,0.3-0.2
				c0-0.2,0.6-3.4,1.8-8.7l5.1-6.8c0.1-0.1,0.1-0.3-0.1-0.4c-0.1-0.1-0.3-0.1-0.4,0.1l-4.5,5.9c2.2-10.3,6.1-27.1,11-42.9l11.1-8
				c0.1-0.1,0.1-0.3,0.1-0.4c-0.1-0.1-0.3-0.1-0.4-0.1l-10.5,7.6c4.9-15.5,10.8-29.9,17.1-35.8c0.1-0.1,0.1-0.3,0-0.4
				c-0.1-0.1-0.3-0.1-0.4,0c-4,3.8-7.9,10.9-11.4,19.5l-0.7-9.4c0-0.1-0.1-0.3-0.3-0.2c-0.1,0-0.3,0.1-0.2,0.3l0.8,10.4c0,0,0,0,0,0
				c-2,5-3.9,10.5-5.6,16.1c0,0.1-0.1,0.1-0.1,0.2c-1.8,5.9-3.5,11.9-5,17.7l-1.8-9.7c0-0.1-0.2-0.2-0.3-0.2c-0.1,0-0.2,0.2-0.2,0.3
				l2,10.8c0,0,0,0,0,0c-4.7,18.1-7.6,33.5-7.7,33.9C508.5,349.2,508.6,349.3,508.7,349.3z"/>
			<path id="XMLID_375_" class="st3" d="M490.2,337.4l-2.9-9.5c0-0.1-0.2-0.2-0.3-0.2c-0.1,0-0.2,0.2-0.2,0.3l2.7,8.7
				c-3.3-2.6-6.8-5.3-9.9-7.6c0,0,0,0,0,0c-6.8-5.1-12.4-9.1-12.5-9.1c-0.1-0.1-0.3-0.1-0.4,0.1c-0.1,0.1-0.1,0.3,0.1,0.4
				c0.1,0.1,5.3,3.7,11.8,8.6h-8.4c-0.1,0-0.3,0.1-0.3,0.3c0,0.1,0.1,0.3,0.3,0.3h9.1c9.3,7,21,16.2,25.2,21.4
				c0.1,0.1,0.1,0.1,0.2,0.1c0.1,0,0.1,0,0.2-0.1c0.1-0.1,0.1-0.3,0-0.4C502.2,347.4,496.5,342.4,490.2,337.4z"/>
			<path id="XMLID_374_" class="st3" d="M506.7,327.1c-0.1,0-0.3,0-0.3,0.2l-2.6,8.3c-0.9-9.1-2.5-22.5-4.4-36.3l4.5-13.4
				c0-0.1,0-0.3-0.2-0.3c-0.1,0-0.3,0-0.3,0.2l-4.2,12.4c-1.4-10-3.1-20-4.9-28.6l2.5-12.7c0-0.1-0.1-0.3-0.2-0.3
				c-0.2,0-0.3,0.1-0.3,0.2l-2.2,11.5c-2.1-9.4-4.3-16.8-6.8-20.2c-0.1-0.1-0.3-0.1-0.4-0.1c-0.1,0.1-0.1,0.3-0.1,0.4
				c3.4,4.8,6.6,18.3,9.3,33.8l-10.9-6.2c-0.1-0.1-0.3,0-0.4,0.1c-0.1,0.1,0,0.3,0.1,0.4l11.2,6.4c1.8,10.4,3.3,21.7,4.6,31.8
				l-7.6-4.3c-0.1-0.1-0.3,0-0.4,0.1c-0.1,0.1,0,0.3,0.1,0.4l7.9,4.5c2.2,17.4,3.4,31.4,3.5,31.7c0,0.1,0.1,0.2,0.3,0.2c0,0,0,0,0,0
				c0.1,0,0.3-0.1,0.2-0.3c-0.1-0.7-0.4-4.4-1-10l2.9-9.5C506.9,327.3,506.9,327.1,506.7,327.1z"/>
		</g>
	</g>
	<path id="XMLID_356_" class="st2" d="M101.2,336c1.2-2.2,11-20.7,5.9-30.9c-0.7-1.4-1.3-2-2.1-2c-0.9,0-2.9,0-4.2,16.6
		c-0.4,5.1-0.6,10.2-0.7,13.3c-0.1-0.3-0.2-0.6-0.3-0.9c0-0.1,0-0.2-0.1-0.2c-1.1-3-2.3-6.2-3.6-9.4c0-0.1,0-0.2-0.1-0.3
		c-0.5-1.4-1.1-2.7-1.7-4.1c0.8-2.5,8.7-30.3,1.4-39.5c-0.7-0.9-1.4-1.4-2.1-1.4c-0.3,0-0.7,0.1-1.1,0.5c-3,3.4-0.8,27,0.2,36.6
		c-3.1-7.2-6.5-14.5-10.1-20.8c0-0.1-0.1-0.1-0.1-0.2c-2.6-4.6-5.3-8.6-8-11.8c-0.2-0.2-0.5-0.3-0.8-0.1c-0.2,0.2-0.3,0.5-0.1,0.8
		c2.3,2.7,4.6,6,6.8,9.8c-4.6-2.9-15.8-9.7-19.8-9.7c-0.8,0-1.4,0.3-1.7,0.8c-0.4,0.8-0.2,1.9,0.9,3.7c3.9,6.7,10.8,8.1,15.9,8.1
		c0,0,0,0,0,0c2.9,0,5.2-0.4,6.1-0.7c4.4,7.9,8.6,17.2,12.2,26.1C89,316,74.1,303.4,69,303.4c-0.7,0-1.2,0.2-1.6,0.6
		c-0.4,0.4-0.6,1.1-0.6,1.9c0.3,9,25.2,16.2,28.3,17.1c1.1,2.8,2.1,5.5,3.1,8.2c-3.8-1.7-15.3-6.7-22.6-6.7c-2.8,0-4.8,0.8-5.7,2.2
		c-0.7,1-0.5,1.9-0.3,2.4c1.3,2.5,9,3.8,22.7,3.8c0,0,0,0,0,0c3.1,0,5.6-0.1,6.5-0.1c4.4,12.1,7.2,21.4,7.2,21.6
		c0.1,0.2,0.3,0.4,0.5,0.4c0.1,0,0.1,0,0.2,0c0.3-0.1,0.5-0.4,0.4-0.7C107.1,353.8,104.8,346.3,101.2,336z M101.9,319.8
		c1.2-15.2,2.9-15.6,3.1-15.6c0,0,0.4,0,1.1,1.4c4.1,8.1-2.3,22.5-4.9,27.9C101.3,330.5,101.5,325.1,101.9,319.8z M93.4,278.5
		c0.2-0.2,0.3-0.2,0.3-0.2c0.1,0,0.5,0.1,1.2,1c5.9,7.4,1.1,28.4-0.9,35.9C92.8,303.8,90.9,281.3,93.4,278.5z M75.9,294L75.9,294
		c-4.8,0-11.3-1.3-15-7.6c-1.1-1.9-0.9-2.5-0.9-2.6c0.1-0.2,0.5-0.2,0.7-0.2c3.9,0,16.2,7.6,20,10C79.7,293.7,78,294,75.9,294z
		 M67.9,305.8c0-0.5,0.1-0.9,0.3-1.1c0.2-0.2,0.4-0.3,0.8-0.3c4.2,0,16.9,10.2,24.4,16.8C86.7,319.2,68.1,312.9,67.9,305.8z
		 M92.3,331.8C92.3,331.8,92.3,331.8,92.3,331.8c-12.7,0-20.6-1.2-21.7-3.2c-0.1-0.2-0.2-0.6,0.2-1.2c0.8-1.2,2.4-1.8,4.8-1.8
		c6.5,0,16.8,4.2,21.2,6.2C95.7,331.7,94.1,331.8,92.3,331.8z"/>
</g>
<g id="XMLID_30_">
	<path id="XMLID_291_" class="st1" d="M1233.2,356.5H772.9c0,0-30.3-116.8,78.7-141.9c109-25.2,17.6-39.3,2.9-81
		c-14.8-41.7,132.8-181.8,214.9-52.8c82.1,129.1,72.8,129.8,106.8,62.7C1210.3,76.5,1233.2,356.5,1233.2,356.5z"/>
	<circle id="XMLID_288_" class="st1" cx="794.1" cy="151.8" r="9.4"/>
	<circle id="XMLID_42_" class="st1" cx="817.4" cy="68.1" r="4.2"/>
	<circle id="XMLID_41_" class="st1" cx="764.5" cy="85.2" r="4.6"/>
	<circle id="XMLID_38_" class="st1" cx="872.6" cy="48" r="3.5"/>
	<circle id="XMLID_37_" class="st1" cx="735" cy="324.9" r="4.9"/>
	<circle id="XMLID_36_" class="st1" cx="1199.8" cy="103.8" r="3.7"/>
	<circle id="XMLID_35_" class="st1" cx="1070.8" cy="36.3" r="3.9"/>
	<circle id="XMLID_34_" class="st1" cx="1096.2" cy="7.3" r="2.3"/>
</g>
<g id="XMLID_8_">
	<g id="XMLID_266_">
		<path id="XMLID_354_" class="st0" d="M400.6,336.6H165.3c-4.7,0-8.5-3.8-8.5-8.5V146c0-4.7,3.8-8.5,8.5-8.5h235.3
			c4.7,0,8.5,3.8,8.5,8.5v182.1C409.1,332.8,405.3,336.6,400.6,336.6z"/>
		<g id="XMLID_271_">
			<rect id="XMLID_351_" x="167.3" y="147.1" class="st4" width="231.4" height="177.2"/>
			<g id="XMLID_279_">
				<g id="XMLID_330_">
					<rect id="XMLID_348_" x="270" y="167.9" class="st3" width="123.9" height="112.1"/>
					<rect id="XMLID_345_" x="273.5" y="173.6" class="st5" width="117" height="7.8"/>
					<g id="XMLID_340_">
						<circle id="XMLID_344_" class="st6" cx="385.2" cy="192.4" r="3.7"/>
						<circle id="XMLID_343_" class="st6" cx="385.2" cy="205.8" r="3.7"/>
						<circle id="XMLID_342_" class="st6" cx="385.2" cy="219.5" r="3.7"/>
						<circle id="XMLID_341_" class="st6" cx="385.2" cy="234" r="3.7"/>
					</g>
					<g id="XMLID_331_">
						<rect id="XMLID_339_" x="273.5" y="188.3" class="st7" width="103.4" height="3.2"/>
						<rect id="XMLID_338_" x="273.5" y="193.6" class="st7" width="50.6" height="3.2"/>
						<rect id="XMLID_337_" x="273.5" y="201.8" class="st7" width="103.4" height="3.2"/>
						<rect id="XMLID_336_" x="273.5" y="207" class="st7" width="50.6" height="3.2"/>
						<rect id="XMLID_335_" x="273.5" y="215.4" class="st7" width="103.4" height="3.2"/>
						<rect id="XMLID_334_" x="273.5" y="220.7" class="st7" width="50.6" height="3.2"/>
						<rect id="XMLID_333_" x="273.5" y="229.9" class="st7" width="103.4" height="3.2"/>
						<rect id="XMLID_332_" x="273.5" y="235.2" class="st7" width="50.6" height="3.2"/>
					</g>
				</g>
				<g id="XMLID_309_">
					<g id="XMLID_323_">
						<rect id="XMLID_327_" x="173.1" y="264.1" class="st8" width="36.1" height="5.7"/>
						<rect id="XMLID_324_" x="173.1" y="274.8" class="st8" width="36.1" height="5.7"/>
					</g>
					<g id="XMLID_310_">
						<g id="XMLID_619_">
							<path id="XMLID_623_" class="st9" d="M263.2,234.2c0,14.2,0,28.4,0,42.6c0,0.1-0.1,0.2-0.1,0.2c-0.2,1.2-0.8,2.2-1.7,2.9
								c-0.7,0.6-1.6,0.9-2.5,1.1c-14.2,0-28.4,0-42.6,0c-0.1,0-0.1-0.1-0.2-0.1c-1.2-0.2-2.2-0.8-3-1.7c-0.6-0.7-0.9-1.6-1.1-2.5
								c0-14.2,0-28.4,0-42.6c0-0.1,0.1-0.2,0.1-0.2c0.2-1.2,0.8-2.2,1.7-2.9c0.7-0.6,1.6-0.9,2.5-1.1c14.2,0,28.4,0,42.6,0
								c0.1,0,0.1,0.1,0.2,0.1c1.2,0.2,2.2,0.8,3,1.7C262.7,232.4,263,233.3,263.2,234.2z M260,255.4c0-6.8,0-13.7,0-20.5
								c0-1.3-0.6-1.9-1.9-1.9c-13.7,0-27.3,0-41,0c-1.3,0-1.9,0.6-1.9,1.9c0,13.6,0,27.3,0,40.9c0,1.3,0.6,1.9,1.9,1.9
								c13.6,0,27.3,0,40.9,0c1.4,0,1.9-0.6,1.9-2C260,269.1,260,262.3,260,255.4z"/>
							<path id="XMLID_622_" class="st9" d="M240.8,261.2c0.9-0.9,1.8-1.8,2.7-2.7c0.3-0.3,0.6-0.6,0.8-0.8c0.8-0.7,1.7-0.7,2.4,0
								c0,0,0.1,0.1,0.1,0.1c2.5,2.5,5.1,5.1,7.6,7.6c0.3,0.3,0.5,0.7,0.6,1c0.2,0.9-0.5,1.8-1.4,1.9c-0.1,0-0.3,0-0.4,0
								c-10.5,0-20.9,0-31.4,0c-1,0-1.7-0.4-1.8-1.3c-0.1-0.6,0.1-1.1,0.5-1.5c1.1-1.1,2.2-2.2,3.4-3.4c2.5-2.5,5-5,7.5-7.5
								c1-1,1.8-1,2.8,0c2.1,2.1,4.1,4.1,6.2,6.2C240.5,260.9,240.6,261,240.8,261.2z"/>
							<path id="XMLID_620_" class="st9" d="M242.4,242.7c2.6,0,4.8,2.2,4.8,4.8c0,2.6-2.2,4.8-4.8,4.8c-2.6,0-4.8-2.2-4.8-4.8
								C237.6,244.8,239.8,242.6,242.4,242.7z"/>
						</g>
					</g>
				</g>
				<g id="XMLID_306_">
					<rect id="XMLID_308_" x="173.1" y="283.1" class="st10" width="162.1" height="36.8"/>
					<circle id="XMLID_307_" class="st9" cx="365.7" cy="301.5" r="15.8"/>
				</g>
				<g id="XMLID_296_">
					<rect id="XMLID_303_" x="174.3" y="167.9" class="st8" width="90.6" height="5.7"/>
					<rect id="XMLID_300_" x="174.3" y="178.5" class="st8" width="90.6" height="5.7"/>
					<rect id="XMLID_297_" x="174.3" y="189.5" class="st8" width="30.9" height="5.7"/>
				</g>
				<g id="XMLID_280_">
					<line id="XMLID_293_" class="st11" x1="176.9" y1="313.7" x2="330.7" y2="313.7"/>
					<line id="XMLID_290_" class="st11" x1="176.9" y1="307.2" x2="330.7" y2="307.2"/>
					<line id="XMLID_287_" class="st11" x1="176.9" y1="301.5" x2="330.7" y2="301.5"/>
					<line id="XMLID_284_" class="st11" x1="176.9" y1="295" x2="330.7" y2="295"/>
					<line id="XMLID_281_" class="st11" x1="176.9" y1="289" x2="330.7" y2="289"/>
				</g>
			</g>
			<g id="XMLID_272_">
				<rect id="XMLID_278_" x="167.3" y="147.1" class="st12" width="231.4" height="12.8"/>
				<circle id="XMLID_277_" class="st13" cx="173.3" cy="153.5" r="3.6"/>
				<circle id="XMLID_276_" class="st14" cx="183" cy="153.5" r="3.6"/>
				<circle id="XMLID_273_" class="st4" cx="193.1" cy="153.5" r="3.6"/>
			</g>
		</g>
		<path id="XMLID_6_" class="st15" d="M331.9,355.2H234v-2.6c0-3,2.5-5.5,5.5-5.5h87c3,0,5.5,2.5,5.5,5.5V355.2z"/>
		<polygon id="XMLID_269_" class="st16" points="283,336.6 256,336.6 260.2,347.1 283,347.1 305.8,347.1 310,336.6 		"/>
		<polygon id="XMLID_268_" class="st17" points="310,336.6 258.4,342.8 256,336.6 		"/>
		<path id="XMLID_5_" class="st12" d="M516.8,360.5H55.4c-1,0-1.8-0.8-1.8-1.8V357c0-1,0.8-1.8,1.8-1.8h461.4c1,0,1.8,0.8,1.8,1.8
			v1.7C518.5,359.7,517.8,360.5,516.8,360.5z"/>
	</g>
	<g id="XMLID_248_">
		<path id="XMLID_263_" class="st18" d="M248,152.3c0.1,0,0.2,0.1,0.3,0.1l-12.9,4.6c-3.1,1.1-4.8,4.6-3.7,7.7
			c1.1,3.1,4.6,4.8,7.7,3.7l18.1-6.4c2.1-0.8,3.6-2.6,3.9-4.6c0.3,0,0.6-0.1,0.8-0.1c0.7,1.2,1.8,2.3,3.3,2.8l18.1,6.4
			c3.1,1.1,6.6-0.5,7.7-3.7c1.1-3.1-0.5-6.6-3.7-7.7l-12.4-4.4c4.5-2.3,15.1-13.1,15.1-13.1l0,0l0,0l0,0h-68.8
			C229.6,142.7,240.1,148.4,248,152.3L248,152.3z"/>
		<path id="XMLID_255_" class="st18" d="M180.8,224.5l1.5,1.3l0.6-3.4l-0.6-0.5l3.4-1.6l2.7-7.2l-1.9,1.2l6.5-4.1l12.4-16.3l-20,4
			l-28.4,17.8v17.1l18.7-11.7l0,0l-13.6,11.2l-5.1,0.8v10.2l8.3-2.6L180.8,224.5z M179.4,218.7l-0.3,0.7l2.7,2.1l-3-2.3L179.4,218.7
			z"/>
		<path id="XMLID_252_" class="st18" d="M402.7,139.7v21.8h-6.9v50.5h13.3v-60.6C409.1,146.5,406.6,142.2,402.7,139.7z"/>
		<rect id="XMLID_249_" x="275" y="297.3" class="st18" width="87.9" height="39.3"/>
	</g>
	<g id="XMLID_212_">
		<g id="XMLID_231_">
			
				<rect id="XMLID_245_" x="68.3" y="227.2" transform="matrix(0.8479 -0.5302 0.5302 0.8479 -104.1517 105.897)" class="st19" width="128.3" height="14.5"/>
			
				<rect id="XMLID_242_" x="66.4" y="227.8" transform="matrix(0.8479 -0.5302 0.5302 0.8479 -102.8183 104.4149)" class="st20" width="128.3" height="7.2"/>
			
				<rect id="XMLID_239_" x="77.4" y="258.7" transform="matrix(0.8479 -0.5301 0.5301 0.8479 -128.4993 83.9908)" class="st21" width="9.6" height="14.5"/>
			
				<rect id="XMLID_238_" x="86" y="255.5" transform="matrix(0.8479 -0.5302 0.5302 0.8479 -126.0207 86.24)" class="st22" width="2.6" height="14.5"/>
			<polygon id="XMLID_235_" class="st23" points="183,194.3 203.1,190.3 190.7,206.6 			"/>
			<polygon id="XMLID_232_" class="st24" points="203.1,190.3 194.3,192.1 197.7,197.4 			"/>
		</g>
		<polygon id="XMLID_230_" class="st25" points="138.7,228.4 137.3,232.5 130.9,226.9 134.4,223.4 		"/>
		<polygon id="XMLID_229_" class="st25" points="132.6,315.3 125.7,327.7 121.3,327.7 125,312.1 		"/>
		<polygon id="XMLID_228_" class="st25" points="96.2,321.7 89.2,334.2 84.8,334.2 88.6,318.5 		"/>
		<polygon id="XMLID_227_" class="st26" points="97.9,323 102.1,316.8 100,315.5 119.1,253 101.3,249.5 99.3,253.5 86.5,310.4 
			84.8,310.3 84.1,319.5 		"/>
		<path id="XMLID_226_" class="st17" d="M116.4,252.5l-15.1-3l-2,4l-0.5,2.2c0,0-0.5,2.9,1.7,5.6c2.2,2.7,12.2,12.5,12.2,12.5
			l6-19.6L116.4,252.5z"/>
		<path id="XMLID_225_" class="st27" d="M145.6,284.7L145.6,284.7L145.6,284.7c1-3.1,0.2-6.7-2.4-9l-29.8-26.8
			c-3.5-3.2-8.9-2.9-12.1,0.6c-3.2,3.5-2.9,8.9,0.6,12.1l26.5,23.9l-8.1,23.4c0,0-1.7,0.6-2.1,0.6c-0.4,0,1.1,7.4,1.1,7.4l14.7-1.7
			l3.9-6.4h-1.8l9-23.1C145.3,285.3,145.5,285,145.6,284.7z"/>
		<path id="XMLID_224_" class="st17" d="M125.7,260.1L125.7,260.1l-12.3-11.2c-3.5-3.2-8.9-2.9-12.1,0.6c-0.1,0.1-0.2,0.3-0.4,0.4
			l18.7,12L125.7,260.1z"/>
		<polygon id="XMLID_223_" class="st28" points="176.4,215.3 180.7,218.7 180.1,222.1 178.6,220.8 163,237.1 130.5,247.2 
			125.7,258.4 125.7,260.1 120.1,261.2 97.9,247.3 98.4,244.9 129.5,225.9 131.1,226.1 139.3,231.7 159.7,228.7 173.4,217.5 
			172.2,216.2 		"/>
		<polygon id="XMLID_222_" class="st13" points="129.5,225.9 108.6,232.2 104.3,241.3 		"/>
		<circle id="XMLID_221_" class="st29" cx="141.5" cy="218.2" r="10.6"/>
		
			<ellipse id="XMLID_220_" transform="matrix(0.9973 7.346494e-002 -7.346494e-002 0.9973 16.4405 -9.5144)" class="st30" cx="137.6" cy="218.7" rx="2.9" ry="5.3"/>
		<path id="XMLID_219_" class="st31" d="M152.6,214.2c0,0-0.4-11.5-15.7-7.1c0,0,3.3-4-1.3-5.1c0,0,3.4-5.4-7.5-4.4
			c-10.9,1-16.7,12.2-13.6,16.8c3,4.5,7.2-3.8,7.2-3.8s1.3,6.4,7.4,1.4h1.6c0,0-3,11.3,2.9,13.9c5.9,2.6,5.2-2.6,5.2-2.6
			s-3.4-2.3-1.2-6.1c2.2-3.8,3.4-1.1,2.8,0.9c-0.6,2-2.5,7,2.5-0.8c0,0,2.7,2.2,3.3-0.8c0,0,2.7,2,3-0.7l0,0c0,0,3.5,4.6,2.6-0.5
			c0.5,1.7,0.5,4-0.4,7.1C151.2,222.4,154.7,220.7,152.6,214.2z"/>
		<path id="XMLID_218_" class="st22" d="M115.8,330.6h23.9c0,0,0.9-4.5-12-6.7c0,0-2.6,4.3-5.7,0.6
			C122,324.6,115.5,323.7,115.8,330.6z"/>
		<path id="XMLID_217_" class="st22" d="M78,333l22.9,6.8c0,0,2.1-4.1-9.6-9.8c0,0-3.7,3.4-5.7-1.1C85.7,329,79.7,326.3,78,333z"/>
		<polygon id="XMLID_216_" class="st17" points="120.4,308.9 136.2,308.7 120.7,308 		"/>
		<polygon id="XMLID_215_" class="st17" points="86.5,310.4 100,315.5 86.8,309.2 		"/>
		<polygon id="XMLID_214_" class="st17" points="104.3,241.3 129.5,225.9 105.1,239.5 		"/>
		<polygon id="XMLID_213_" class="st29" points="176.9,215.7 179.3,210.5 180,211.1 179.6,213.5 186.1,209.5 183.5,216.6 
			180.1,218.2 		"/>
	</g>
	<g id="XMLID_150_">
		<g id="XMLID_205_">
			<g id="XMLID_209_">
				<rect id="XMLID_211_" x="389.4" y="297.9" class="st32" width="2.3" height="57.3"/>
				<rect id="XMLID_210_" x="424.5" y="297.9" class="st32" width="2.3" height="57.3"/>
			</g>
			<rect id="XMLID_206_" x="384.9" y="293.4" class="st33" width="46" height="4.8"/>
		</g>
		<g id="XMLID_191_">
			<path id="XMLID_195_" class="st34" d="M435.4,340.5c-3.2,7-8.1,3-8.1,3c-1.3,1.3-2.4,2.5-3.4,3.7c-6.8,3.2-8.2,7.9-8.2,7.9l4.1,0
				l0,0c0,0,0,0,0,0.1h10l12.5-9.7C444.9,340.9,435.4,340.5,435.4,340.5z M420.1,354.3c0,0,0,0.1,0,0.1
				C420,354.3,420.1,354.3,420.1,354.3z M420.8,352.4C420.8,352.5,420.7,352.5,420.8,352.4C420.7,352.5,420.8,352.5,420.8,352.4z"/>
			<path id="XMLID_192_" class="st34" d="M386.2,338.7c0,0-1.5,6.1,6.2,6c0,0,3.8,8.7-1.6,8.4L366,340.5
				C366,340.5,371.1,333.1,386.2,338.7z"/>
		</g>
		<g id="XMLID_169_">
			<path id="XMLID_190_" class="st35" d="M424.5,293.4h-37.7l-12.3-26.7c-0.4-0.9-0.1-1.9,0.6-2.5l0,0c0.4-0.3,0.8-0.4,1.2-0.4H411
				L424.5,293.4z"/>
			<polygon id="XMLID_187_" class="st3" points="409.8,265.4 376.9,265.4 387.9,289.3 420.4,289.3 			"/>
			<polygon id="XMLID_184_" class="st36" points="379.8,269 388.8,288.1 400.1,288.1 391.7,269 			"/>
			<polygon id="XMLID_181_" class="st37" points="376.9,265.4 409.8,265.4 410.9,267.9 378.1,267.9 			"/>
			
				<ellipse id="XMLID_178_" transform="matrix(0.8985 -0.4389 0.4389 0.8985 -75.7863 205.2366)" class="st3" cx="406" cy="266.5" rx="0.4" ry="0.5"/>
			
				<ellipse id="XMLID_175_" transform="matrix(0.8985 -0.4389 0.4389 0.8985 -75.6369 205.883)" class="st3" cx="407.4" cy="266.5" rx="0.4" ry="0.5"/>
			
				<ellipse id="XMLID_172_" transform="matrix(0.8985 -0.4389 0.4389 0.8985 -75.4974 206.4944)" class="st3" cx="408.8" cy="266.5" rx="0.4" ry="0.5"/>
			<polygon id="XMLID_171_" class="st38" points="393.3,269 393.9,270.3 411.2,270.3 410.4,269 			"/>
			<polygon id="XMLID_170_" class="st38" points="394.3,270.7 394.8,272 412.1,272 411.3,270.7 			"/>
		</g>
		<polygon id="XMLID_168_" class="st39" points="404.3,308.7 421.8,342.4 436.5,333.8 419,295.2 416,292.7 		"/>
		<polygon id="XMLID_167_" class="st17" points="427,312.9 413.5,326.6 404.3,308.7 416,292.7 419,295.2 		"/>
		<path id="XMLID_166_" class="st10" d="M469.8,303.7c0,0-2,8.2-17.5,8.2c-15.5,0-25.9,0-25.9,0l-27.3,31l-12.6-9.8l29.5-40.4
			l27.7-0.5C443.7,292.3,468.8,300,469.8,303.7z"/>
		<g id="XMLID_163_">
			<polygon id="XMLID_165_" class="st17" points="414.3,294.9 431.2,297.6 435.6,292.3 416,292.7 			"/>
			<path id="XMLID_164_" class="st17" d="M443.7,292.3l24.7,14c1.2-1.4,1.5-2.6,1.5-2.6C468.8,300,443.7,292.3,443.7,292.3z"/>
		</g>
		<path id="XMLID_162_" class="st40" d="M403.3,284.8l-0.9,7.1l28.9,5.7l11.9-17.1l0.6,11.8l26.7,11.7c0,0,6.2,3.7,4-6.4
			c-2.2-10.1-14.9-47.1-14.9-47.1l0.5-4.3l-13.3,4l-3.2,2.8l-21.3,29.5L403.3,284.8z"/>
		<path id="XMLID_161_" class="st29" d="M403.2,285.4c0,0-10.7,0.3-14.3,6.1l13.5,0.4L403.2,285.4z"/>
		<polygon id="XMLID_160_" class="st25" points="453.8,245.1 454.6,247.7 446.4,250.3 443.8,252.5 442.8,246.1 		"/>
		<circle id="XMLID_159_" class="st29" cx="446" cy="235.9" r="12.1"/>
		
			<ellipse id="XMLID_158_" transform="matrix(0.9549 0.297 -0.297 0.9549 89.8211 -123.9537)" class="st30" cx="452.9" cy="233.6" rx="4" ry="5.9"/>
		<path id="XMLID_157_" class="st41" d="M459,219.3c-6-9.9-24.6-1.7-25.7,0.4c-4.4,8,2.5,9.6,2.5,9.6c-2.8,3.7,6.9-1.6,6.9-1.6
			c-1.2,2.8,3.1,3.4,5.3,3.6h0c0,0,0,5.8,1.5,6.9c0,0-1-5,0.7-7.8v0c1.3-1.2,3.7-2.6,5.3,0.6c2.2,4.6-3.4,8.1-3.4,8.1
			c-3.3,7.2,1.6,6.1,1.6,6.1c8.4,0.8,8-12.7,8-12.7C468.9,225.7,459,219.3,459,219.3z"/>
		<polygon id="XMLID_156_" class="st29" points="425,340.6 430,347.1 436.5,342.9 433.6,335.5 		"/>
		<polygon id="XMLID_155_" class="st29" points="388.5,334.7 384.3,341.9 390.7,346.4 396.5,340.9 		"/>
		<g id="XMLID_151_">
			<path id="XMLID_4_" class="st42" d="M426.9,355.3l-0.7-0.2c-0.4-0.1-0.6-0.6-0.5-1l12.7-40.4c0.1-0.4,0.6-0.6,1-0.5l0.7,0.2
				c0.4,0.1,0.6,0.6,0.5,1l-12.7,40.4C427.7,355.2,427.3,355.4,426.9,355.3z"/>
			<path id="XMLID_3_" class="st42" d="M485.3,355.3l0.7-0.2c0.4-0.1,0.6-0.6,0.5-1l-12.7-40.4c-0.1-0.4-0.6-0.6-1-0.5l-0.7,0.2
				c-0.4,0.1-0.6,0.6-0.5,1l12.7,40.4C484.5,355.2,484.9,355.4,485.3,355.3z"/>
			<path id="XMLID_152_" class="st43" d="M494.4,261.8c-0.7-0.3-1.6,0-1.9,0.7l-21.6,49.4H437c-0.8,0-1.4,0.6-1.4,1.4
				c0,0.8,0.6,1.4,1.4,1.4h40.3c0.8,0,1.4-0.6,1.4-1.4c0-0.8-0.6-1.4-1.4-1.4H474l21.1-48.3C495.4,262.9,495.1,262.1,494.4,261.8z"
				/>
		</g>
	</g>
	<g id="XMLID_130_">
		<path id="XMLID_2_" class="st44" d="M259.3,157.1l21.7,7.7c2.1,0.8,4.5-0.4,5.2-2.5l1.3-3.7c0.8-2.1-0.4-4.5-2.5-5.2l-21.7-7.7
			c-2.1-0.8-4.5,0.4-5.2,2.5l-1.3,3.7C256.1,154,257.2,156.4,259.3,157.1z"/>
		<path id="XMLID_148_" class="st45" d="M257.1,152.8l10.6,5.8c0,0,4.3,0.1,5.1-4.2c0.8-4.3-1.3-4.8-1.3-4.8l-7.2-5.1L257.1,152.8z"
			/>
		<path id="XMLID_1_" class="st28" d="M255,159.1l-21.7,7.7c-2.1,0.8-4.5-0.4-5.2-2.5l-1.3-3.7c-0.8-2.1,0.4-4.5,2.5-5.2l21.7-7.7
			c2.1-0.8,4.5,0.4,5.2,2.5l1.3,3.7C258.2,156,257.1,158.4,255,159.1z"/>
		<polygon id="XMLID_146_" class="st25" points="258.3,81.5 253.9,80.3 249.6,81.5 248.8,82.9 253.9,89.1 259.1,82.9 		"/>
		<path id="XMLID_145_" class="st14" d="M276.3,89.4c0,0-2.6-2.1-8.3-3.1c-5.7-1-8.8-3.4-8.8-3.4s-2.6,2.4-5.2,2.4s-5.2-2.4-5.2-2.4
			s-3.1,2.5-8.8,3.4c-5.7,1-8.3,3.1-8.3,3.1c-7.6,7.4-9,48.1-9,48.1h31.3h31.3C285.2,137.5,283.9,96.8,276.3,89.4z"/>
		<g id="XMLID_142_">
			<path id="XMLID_144_" class="st17" d="M236.6,94.3c0,0-4.9,36.3-3.9,43.2h1.9L236.6,94.3z"/>
			<path id="XMLID_143_" class="st17" d="M271.9,94.3c0,0,4.9,36.3,3.9,43.2h-1.9L271.9,94.3z"/>
		</g>
		<path id="XMLID_141_" class="st46" d="M261.5,145.9c0,0-19-18.7-30.8-24.5c-11.8-5.9-18.5-6.9-18.5-6.9s-7.4,4.9-6.7,10.8
			c0.6,5.9,42.2,27.7,48.8,29.6C260.9,156.7,263.2,150.2,261.5,145.9z"/>
		<path id="XMLID_140_" class="st17" d="M261.5,145.9c0,0-14.6-14.4-26.2-21.9l0,0l0.1,16.6l15.8,1.8l-7.6,7.7
			c5,2.5,8.9,4.2,10.6,4.7C260.9,156.7,263.2,150.2,261.5,145.9z"/>
		<path id="XMLID_137_" class="st47" d="M285.2,140.6h-49.8V110c0-4.1,3.4-7.5,7.5-7.5h34.8c4.1,0,7.5,3.4,7.5,7.5V140.6z"/>
		<path id="XMLID_136_" class="st29" d="M257.1,154.8l-10.6,5.8c0,0-4.3,0.1-5.1-4.2c-0.8-4.3,1.3-4.8,1.3-4.8l7.2-5.1L257.1,154.8z
			"/>
		<path id="XMLID_135_" class="st48" d="M249.6,145.9c0,0,19-18.7,30.8-24.5c11.8-5.9,18.5-6.9,18.5-6.9s7.4,4.9,6.7,10.8
			c-0.6,5.9-42.2,27.7-48.8,29.6C250.2,156.7,247.9,150.2,249.6,145.9z"/>
		
			<ellipse id="XMLID_134_" transform="matrix(0.9057 -0.4239 0.4239 0.9057 -7.5364 110.2756)" class="st30" cx="244.1" cy="72.1" rx="3.2" ry="4.4"/>
		
			<ellipse id="XMLID_133_" transform="matrix(-0.9057 -0.4239 0.4239 -0.9057 472.0712 249.1705)" class="st30" cx="263.8" cy="72.1" rx="3.2" ry="4.4"/>
		<circle id="XMLID_132_" class="st29" cx="253.9" cy="72.7" r="9.8"/>
		<path id="XMLID_131_" class="st49" d="M261.8,66.7c0,0-5.9,4.2-6.3,2c-0.3-2.2,0.2-3.8,0.2-3.8s-9.9,6.9-10,3.4c0,0-0.2,5-1.4,6.5
			l-0.5-4c0,0-0.1-3-1.6-2.8c0,0-3.5-1.3-2.5-4.8c0,0-3.5-0.1-1.6-4.9c1.9-4.8,8.4-9,16.2-9.8c7.8-0.8,11.8,4.5,12.3,7.9
			s3.7,12.1,0.3,13.2c0,0-0.6-2.1-3.2-1.7c0,0,0.6,6.9-0.7,8.2C263.1,76.2,263.5,69.5,261.8,66.7z"/>
	</g>
	<polygon id="XMLID_127_" class="st36" points="78,355.2 186.9,355.2 186.9,316.8 167.3,316.8 167.3,330.6 120.4,330.6 120.4,342.8 
		78,342.8 	"/>
	<g id="XMLID_119_">
		<rect id="XMLID_126_" x="93.6" y="102.4" class="st10" width="65.5" height="37.1"/>
		<polygon id="XMLID_125_" class="st50" points="93.6,139.5 124.9,113.5 159.1,139.5 		"/>
		<polygon id="XMLID_124_" class="st51" points="93.6,102.4 124.9,121.6 159.1,102.4 		"/>
		<circle id="XMLID_123_" class="st28" cx="156.9" cy="100.1" r="10.6"/>
		<g id="XMLID_120_">
			<text id="XMLID_644_" transform="matrix(1 0 0 1 153.0117 104.0503)" class="st3 st52 st53">8</text>
		</g>
	</g>
	<g id="XMLID_107_">
		<path id="XMLID_116_" class="st15" d="M107.7,198.7v-9.8h-4.2c-0.3-1-0.7-1.9-1.2-2.8l3-3l-6.9-6.9l-3,3c-0.9-0.5-1.8-0.9-2.8-1.2
			v-4.2h-9.8v4.2c-1,0.3-1.9,0.7-2.8,1.2l-3-3l-6.9,6.9l3,3c-0.5,0.9-0.9,1.8-1.2,2.8h-4.2v9.8H72c0.3,1,0.7,1.9,1.2,2.8l-3,3
			l6.9,6.9l3-3c0.9,0.5,1.8,0.9,2.8,1.2v4.2h9.8v-4.2c1-0.3,1.9-0.7,2.8-1.2l3,3l6.9-6.9l-3-3c0.5-0.9,0.9-1.8,1.2-2.8H107.7z
			 M87.7,206.2c-6.9,0-12.4-5.6-12.4-12.4c0-6.9,5.6-12.4,12.4-12.4c6.9,0,12.4,5.6,12.4,12.4C100.2,200.6,94.6,206.2,87.7,206.2z"
			/>
		<path id="XMLID_108_" class="st47" d="M115.9,168.5v-5.7h-2.5c-0.2-0.6-0.4-1.1-0.7-1.6l1.7-1.7l-4.1-4.1l-1.7,1.7
			c-0.5-0.3-1.1-0.5-1.6-0.7v-2.5h-5.7v2.5c-0.6,0.2-1.1,0.4-1.6,0.7l-1.7-1.7l-4.1,4.1l1.7,1.7c-0.3,0.5-0.5,1.1-0.7,1.6h-2.5v5.7
			H95c0.2,0.6,0.4,1.1,0.7,1.6l-1.7,1.7l4.1,4.1l1.7-1.7c0.5,0.3,1.1,0.5,1.6,0.7v2.5h5.7v-2.5c0.6-0.2,1.1-0.4,1.6-0.7l1.7,1.7
			l4.1-4.1l-1.7-1.7c0.3-0.5,0.5-1.1,0.7-1.6H115.9z M104.2,172.9c-4,0-7.3-3.3-7.3-7.3c0-4,3.3-7.3,7.3-7.3c4,0,7.3,3.3,7.3,7.3
			C111.5,169.6,108.2,172.9,104.2,172.9z"/>
	</g>
	<g id="XMLID_79_">
		<rect id="XMLID_104_" x="269.8" y="293.6" class="st5" width="87.9" height="61.6"/>
		<rect id="XMLID_101_" x="274.5" y="302.8" class="st3" width="78" height="48.4"/>
		<g id="XMLID_94_">
			<rect id="XMLID_100_" x="283.2" y="340.5" class="st36" width="5.4" height="8.2"/>
			<rect id="XMLID_99_" x="293.3" y="316.6" class="st36" width="5.4" height="32.2"/>
			<rect id="XMLID_98_" x="303.6" y="328.5" class="st36" width="5.4" height="20.2"/>
			<rect id="XMLID_97_" x="313.4" y="320.3" class="st36" width="5.4" height="28.5"/>
			<rect id="XMLID_96_" x="324.9" y="316.6" class="st36" width="5.4" height="32.2"/>
			<rect id="XMLID_95_" x="336" y="308.2" class="st36" width="5.4" height="40.5"/>
		</g>
		<g id="XMLID_88_">
			<circle id="XMLID_93_" class="st13" cx="277.2" cy="298.5" r="2.3"/>
			<circle id="XMLID_92_" class="st14" cx="283.5" cy="298.5" r="2.3"/>
			<circle id="XMLID_89_" class="st4" cx="290.1" cy="298.5" r="2.3"/>
		</g>
	</g>
	<g id="XMLID_55_">
		<polygon id="XMLID_76_" class="st3" points="412.7,84.6 399,97.6 399,156.4 452.1,156.4 452.1,84.6 		"/>
		<polygon id="XMLID_75_" class="st54" points="399,97.6 412.2,99.3 412.7,84.6 		"/>
		<polygon id="XMLID_74_" class="st55" points="412.7,84.6 399,97.6 413.9,97.6 		"/>
		<polygon id="XMLID_73_" class="st9" points="448,147.5 439.3,156.4 392.1,156.4 392.1,206.9 459.3,206.9 459.3,156.4 459.3,147.5 
					"/>
		<g id="XMLID_57_">
			<line id="XMLID_72_" class="st56" x1="406.3" y1="105.9" x2="444.9" y2="105.9"/>
			<line id="XMLID_70_" class="st56" x1="406.3" y1="111.1" x2="444.9" y2="111.1"/>
			<line id="XMLID_69_" class="st56" x1="406.3" y1="116.1" x2="444.9" y2="116.1"/>
			<line id="XMLID_62_" class="st56" x1="406.3" y1="121.3" x2="444.9" y2="121.3"/>
			<line id="XMLID_61_" class="st56" x1="406.3" y1="125.4" x2="444.9" y2="125.4"/>
			<line id="XMLID_60_" class="st56" x1="406.3" y1="130.6" x2="444.9" y2="130.6"/>
			<line id="XMLID_59_" class="st56" x1="406.3" y1="134.7" x2="444.9" y2="134.7"/>
			<line id="XMLID_58_" class="st56" x1="406.3" y1="139.8" x2="444.9" y2="139.8"/>
		</g>
	</g>
	<g id="XMLID_49_">
		<path id="XMLID_54_" class="st28" d="M284.6,66.9v11.7l-5.6,6.1l11.5-6.1h18.8c2.3,0,4.1-1.8,4.1-4.1v-7.6c0-2.3-1.8-4.1-4.1-4.1
			h-20.7C286.5,62.8,284.6,64.7,284.6,66.9z"/>
		<g id="XMLID_50_">
			<circle id="XMLID_53_" class="st3" cx="291.1" cy="70.7" r="2.8"/>
			<circle id="XMLID_52_" class="st3" cx="299.5" cy="70.7" r="2.8"/>
			<circle id="XMLID_51_" class="st3" cx="307.9" cy="70.7" r="2.8"/>
		</g>
	</g>
	<g id="XMLID_40_">
		<path id="XMLID_46_" class="st28" d="M194.8,52.3c0.8,0,1.6,0,2.4,0c0.7,0.1,1.4,0.2,2,0.3c7.5,1.5,13.1,8.2,13.2,15.8
			c0.1,3.2-0.7,6.2-2.3,9c-3.8,6.9-7.6,13.9-11.4,20.8c-0.6,1-1.2,1.8-2.4,2.1c-0.3,0-0.6,0-0.9,0c-1-0.3-1.7-0.8-2.2-1.7
			c-3.9-7.1-7.8-14.3-11.7-21.4c-1.8-3.3-2.5-6.8-2-10.6c0.9-6.4,5.7-12,12-13.7C192.7,52.6,193.7,52.5,194.8,52.3z M196,60.5
			c-3.7,0-6.7,3-6.8,6.7c0,3.7,3,6.8,6.7,6.8c3.7,0,6.7-3,6.8-6.7C202.7,63.6,199.7,60.5,196,60.5z"/>
	</g>
	<g id="XMLID_13_">
		<polygon id="XMLID_39_" class="st57" points="412.7,84.6 399,97.6 399,156.4 452.1,156.4 452.1,84.6 		"/>
		<polygon id="XMLID_33_" class="st58" points="399,97.6 412.2,99.3 412.7,84.6 		"/>
		<polygon id="XMLID_32_" class="st55" points="412.7,84.6 399,97.6 413.9,97.6 		"/>
		<polygon id="XMLID_31_" class="st9" points="448,147.5 439.3,156.4 392.1,156.4 392.1,206.9 459.3,206.9 459.3,156.4 459.3,147.5 
					"/>
		<g id="XMLID_16_">
			<line id="XMLID_26_" class="st59" x1="406.3" y1="105.9" x2="444.9" y2="105.9"/>
			<line id="XMLID_24_" class="st59" x1="406.3" y1="111.1" x2="444.9" y2="111.1"/>
			<line id="XMLID_23_" class="st59" x1="406.3" y1="116.1" x2="444.9" y2="116.1"/>
			<line id="XMLID_21_" class="st59" x1="406.3" y1="121.3" x2="444.9" y2="121.3"/>
			<line id="XMLID_20_" class="st59" x1="406.3" y1="125.4" x2="444.9" y2="125.4"/>
			<line id="XMLID_19_" class="st59" x1="406.3" y1="130.6" x2="444.9" y2="130.6"/>
			<line id="XMLID_18_" class="st59" x1="406.3" y1="134.7" x2="444.9" y2="134.7"/>
			<line id="XMLID_17_" class="st59" x1="406.3" y1="139.8" x2="444.9" y2="139.8"/>
		</g>
		<polyline id="XMLID_15_" class="st60" points="414.6,180.5 422.6,189 439.2,171.2 		"/>
	</g>
	<g id="XMLID_9_">
		<circle id="XMLID_12_" class="st9" cx="357.7" cy="95" r="29"/>
		<polygon id="XMLID_10_" class="st3" points="344.7,113.2 344.7,78.5 379.5,95.9 		"/>
	</g>
</g>
<g id="XMLID_828_">
	<g id="XMLID_891_">
		<path id="XMLID_584_" class="st1" d="M1287.9,32.1c0-2.7-2.2-4.9-4.9-4.9c-0.5,0-1,0.1-1.4,0.2c0.1-0.5,0.1-1,0.1-1.5
			c0-5.7-4.6-10.3-10.3-10.3c-0.6,0-1.3,0.1-1.9,0.2c-1.6-2.6-4.4-4.3-7.7-4.3c-4.9,0-8.9,4-9,8.9c-0.1,0-0.1,0-0.2,0
			c-4.6,0-8.3,3.7-8.3,8.3s3.7,8.3,8.3,8.3h30.5l0,0C1285.8,36.9,1287.9,34.7,1287.9,32.1z"/>
		<polygon id="XMLID_583_" class="st61" points="1270,39.4 1270,29.9 1262.3,29.9 1262.3,39.4 1256,39.4 1266.2,48 1276.3,39.4 		
			"/>
	</g>
	<g id="XMLID_888_">
		<path id="XMLID_582_" class="st1" d="M720.5,52.4c0-5.7-4.6-10.3-10.3-10.3c-1,0-2,0.2-3,0.4c0.2-1,0.2-2.1,0.2-3.2
			c0-12.1-9.8-21.9-21.9-21.9c-1.4,0-2.7,0.1-4,0.4c-3.4-5.5-9.4-9.2-16.3-9.2c-10.5,0-19,8.4-19.1,18.9c-0.1,0-0.2,0-0.3,0
			c-9.7,0-17.6,7.9-17.6,17.6c0,9.7,7.9,17.6,17.6,17.6h64.8l0,0C716,62.6,720.5,58.1,720.5,52.4z"/>
		<polygon id="XMLID_581_" class="st61" points="666,53.2 666,73.4 682.5,73.4 682.5,53.2 695.9,53.2 674.3,35 652.7,53.2 		"/>
	</g>
	<g id="XMLID_872_">
		<polyline id="XMLID_580_" class="st62" points="698.5,142 698.5,101.9 821.3,101.9 821.3,141.6 		"/>
		<line id="XMLID_579_" class="st62" x1="761.7" y1="64.1" x2="761.7" y2="141.9"/>
		<g id="XMLID_883_">
			<path id="XMLID_578_" class="st63" d="M783.1,48.8h-42.9c-0.7,0-1.2,0.5-1.2,1.2v26c0,0.7,0.5,1.2,1.2,1.2h42.9
				c0.7,0,1.2-0.5,1.2-1.2V50C784.3,49.4,783.8,48.8,783.1,48.8z"/>
			<path id="XMLID_577_" class="st39" d="M782.3,76.1h-41.3c-0.2,0-0.4-0.2-0.4-0.4v-23c0-0.2,0.2-0.4,0.4-0.4h41.3
				c0.2,0,0.4,0.2,0.4,0.4v23C782.8,75.9,782.6,76.1,782.3,76.1z"/>
		</g>
		<g id="XMLID_880_">
			<path id="XMLID_25_" class="st9" d="M720,138.3h-42.9c-0.7,0-1.2,0.5-1.2,1.2v26c0,0.7,0.5,1.2,1.2,1.2H720
				c0.7,0,1.2-0.5,1.2-1.2v-26C721.1,138.9,720.6,138.3,720,138.3z"/>
			<path id="XMLID_576_" class="st7" d="M719.2,165.6h-41.3c-0.2,0-0.4-0.2-0.4-0.4v-23c0-0.2,0.2-0.4,0.4-0.4h41.3
				c0.2,0,0.4,0.2,0.4,0.4v23C719.6,165.4,719.4,165.6,719.2,165.6z"/>
		</g>
		<g id="XMLID_877_">
			<path id="XMLID_575_" class="st9" d="M783.1,138.3h-42.9c-0.7,0-1.2,0.5-1.2,1.2v26c0,0.7,0.5,1.2,1.2,1.2h42.9
				c0.7,0,1.2-0.5,1.2-1.2v-26C784.3,138.9,783.8,138.3,783.1,138.3z"/>
			<path id="XMLID_574_" class="st7" d="M782.3,165.6h-41.3c-0.2,0-0.4-0.2-0.4-0.4v-23c0-0.2,0.2-0.4,0.4-0.4h41.3
				c0.2,0,0.4,0.2,0.4,0.4v23C782.8,165.4,782.6,165.6,782.3,165.6z"/>
		</g>
		<g id="XMLID_874_">
			<path id="XMLID_573_" class="st9" d="M842.8,138.3h-42.9c-0.7,0-1.2,0.5-1.2,1.2v26c0,0.7,0.5,1.2,1.2,1.2h42.9
				c0.7,0,1.2-0.5,1.2-1.2v-26C844,138.9,843.5,138.3,842.8,138.3z"/>
			<path id="XMLID_572_" class="st7" d="M842,165.6h-41.3c-0.2,0-0.4-0.2-0.4-0.4v-23c0-0.2,0.2-0.4,0.4-0.4H842
				c0.2,0,0.4,0.2,0.4,0.4v23C842.4,165.4,842.2,165.6,842,165.6z"/>
		</g>
		<path id="XMLID_571_" class="st6" d="M760.9,89.7l-11.3,11.3c-0.5,0.5-0.5,1.2,0,1.7l11.3,11.3c0.5,0.5,1.2,0.5,1.7,0l11.3-11.3
			c0.5-0.5,0.5-1.2,0-1.7l-11.3-11.3C762.1,89.3,761.3,89.3,760.9,89.7z"/>
	</g>
	<g id="XMLID_858_">
		<path id="XMLID_570_" class="st5" d="M613.9,104.8h-61.9c-0.5,0-0.9-0.4-0.9-0.9V67.5c0-0.5,0.4-0.9,0.9-0.9h61.9
			c0.5,0,0.9,0.4,0.9,0.9v36.4C614.8,104.4,614.4,104.8,613.9,104.8z"/>
		<path id="XMLID_569_" class="st6" d="M569.3,177.7h-49.7c-0.5,0-0.9-0.4-0.9-0.9v-27.4c0-0.5,0.4-0.9,0.9-0.9h49.7
			c0.5,0,0.9,0.4,0.9,0.9v27.4C570.2,177.4,569.8,177.7,569.3,177.7z"/>
		<path id="XMLID_568_" class="st6" d="M647.4,177.7h-49.7c-0.5,0-0.9-0.4-0.9-0.9v-27.4c0-0.5,0.4-0.9,0.9-0.9h49.7
			c0.5,0,0.9,0.4,0.9,0.9v27.4C648.2,177.4,647.8,177.7,647.4,177.7z"/>
		<g id="XMLID_865_">
			<path id="XMLID_22_" class="st9" d="M599.4,235.1h-25.3c-0.5,0-0.9-0.4-0.9-0.9v-23.1c0-0.5,0.4-0.9,0.9-0.9h25.3
				c0.5,0,0.9,0.4,0.9,0.9v23.1C600.2,234.7,599.8,235.1,599.4,235.1z"/>
			<path id="XMLID_567_" class="st9" d="M633.7,235.1h-25.3c-0.5,0-0.9-0.4-0.9-0.9v-23.1c0-0.5,0.4-0.9,0.9-0.9h25.3
				c0.5,0,0.9,0.4,0.9,0.9v23.1C634.5,234.7,634.1,235.1,633.7,235.1z"/>
			<path id="XMLID_566_" class="st9" d="M668,235.1h-25.3c-0.5,0-0.9-0.4-0.9-0.9v-23.1c0-0.5,0.4-0.9,0.9-0.9H668
				c0.5,0,0.9,0.4,0.9,0.9v23.1C668.8,234.7,668.4,235.1,668,235.1z"/>
		</g>
		<path id="XMLID_565_" class="st9" d="M520,235.1h-25.3c-0.5,0-0.9-0.4-0.9-0.9v-23.1c0-0.5,0.4-0.9,0.9-0.9H520
			c0.5,0,0.9,0.4,0.9,0.9v23.1C520.9,234.7,520.5,235.1,520,235.1z"/>
		<path id="XMLID_14_" class="st9" d="M557.2,235.1h-25.3c-0.5,0-0.9-0.4-0.9-0.9v-23.1c0-0.5,0.4-0.9,0.9-0.9h25.3
			c0.5,0,0.9,0.4,0.9,0.9v23.1C558.1,234.7,557.7,235.1,557.2,235.1z"/>
		<g id="XMLID_859_">
			<polygon id="XMLID_564_" class="st12" points="619.6,148.6 622.5,148.6 622.5,128.2 584.5,128.2 584.5,104.8 581.5,104.8 
				581.5,128.2 543.5,128.2 543.5,148.6 546.4,148.6 546.4,131.1 619.6,131.1 			"/>
			<polygon id="XMLID_563_" class="st12" points="543.5,195.4 505.5,195.4 505.5,210.1 508.4,210.1 508.4,198.4 543.5,198.4 
				543.5,210.1 546.4,210.1 546.4,177.9 543.5,177.9 			"/>
			<polygon id="XMLID_562_" class="st12" points="622.5,198.4 622.5,177.9 619.6,177.9 619.6,198.4 584.5,198.4 584.5,210.1 
				587.4,210.1 587.4,201.3 619.6,201.3 619.6,210.1 622.5,210.1 622.5,201.3 654.7,201.3 654.7,210.1 657.6,210.1 657.6,198.4 			
				"/>
		</g>
	</g>
	<g id="XMLID_848_">
		<path id="XMLID_855_" class="st1" d="M1281.9,65.6v7.2l3.7,0.3c0.5,2.4,1.4,4.6,2.7,6.6l-2.4,2.9l5.1,5.1l2.9-2.4
			c2,1.3,4.2,2.2,6.6,2.7l0.3,3.7h7.2l0.3-3.7c2.4-0.5,4.6-1.4,6.6-2.7l2.9,2.4l5.1-5.1l-2.4-2.9c1.3-2,2.2-4.2,2.7-6.6l3.7-0.3
			v-7.2l-3.7-0.3c-0.5-2.4-1.4-4.6-2.7-6.6l2.4-2.9l-5.1-5.1l-2.9,2.4c-2-1.3-4.2-2.2-6.6-2.7l-0.3-3.7h-7.2l-0.3,3.7
			c-2.4,0.5-4.6,1.4-6.6,2.7l-2.9-2.4l-5.1,5.1l2.4,2.9c-1.3,2-2.2,4.2-2.7,6.6L1281.9,65.6z M1304.4,59.5c5.3,0,9.7,4.3,9.7,9.7
			c0,5.3-4.3,9.7-9.7,9.7s-9.7-4.3-9.7-9.7C1294.7,63.8,1299,59.5,1304.4,59.5z"/>
		<path id="XMLID_852_" class="st1" d="M1286.5,117.8c1.9-0.4,3.6-1.1,5.2-2.2l2.2,1.9l4-4l-1.9-2.2c1-1.6,1.8-3.3,2.2-5.2l2.9-0.3
			v-5.6l-2.9-0.3c-0.4-1.9-1.1-3.6-2.2-5.2l1.9-2.2l-4-4l-2.2,1.9c-1.6-1-3.3-1.8-5.2-2.2l-0.3-2.9h-5.6l-0.3,2.9
			c-1.9,0.4-3.6,1.1-5.2,2.2l-2.2-1.9l-4,4l1.9,2.2c-1,1.6-1.8,3.3-2.2,5.2l-2.9,0.3v5.6l2.9,0.3c0.4,1.9,1.1,3.6,2.2,5.2l-1.9,2.2
			l4,4l2.2-1.9c1.6,1,3.3,1.8,5.2,2.2l0.3,2.9h5.6L1286.5,117.8z M1275.8,103c0-4.2,3.4-7.6,7.6-7.6c4.2,0,7.6,3.4,7.6,7.6
			c0,4.2-3.4,7.6-7.6,7.6C1279.2,110.6,1275.8,107.2,1275.8,103z"/>
		<path id="XMLID_849_" class="st1" d="M1274,87.5l1.9,1.6l3.3-3.3l-1.6-1.9c0.9-1.3,1.5-2.8,1.8-4.3l2.4-0.2v-4.7l-2.4-0.2
			c-0.3-1.6-1-3-1.8-4.3l1.6-1.9l-3.3-3.3l-1.9,1.6c-1.3-0.9-2.8-1.5-4.3-1.8l-0.2-2.4l-4.7,0l-0.2,2.4c-1.6,0.3-3,1-4.3,1.8
			l-1.9-1.6l-3.3,3.3l1.6,1.9c-0.9,1.3-1.5,2.8-1.8,4.3l-2.4,0.2v4.7l2.4,0.2c0.3,1.6,1,3,1.8,4.3l-1.6,1.9l3.3,3.3l1.9-1.6
			c1.3,0.9,2.8,1.5,4.3,1.8l0.2,2.4h4.7l0.2-2.4C1271.2,88.9,1272.7,88.3,1274,87.5z M1260.7,76.9c0-3.5,2.9-6.4,6.4-6.4
			c3.5,0,6.4,2.9,6.4,6.4c0,3.5-2.9,6.4-6.4,6.4C1263.5,83.2,1260.7,80.4,1260.7,76.9z"/>
	</g>
	<g id="XMLID_838_">
		<g id="XMLID_846_">
			<rect id="XMLID_555_" x="1273.2" y="262.9" class="st1" width="66.8" height="43.5"/>
		</g>
		<rect id="XMLID_554_" x="1275.6" y="271.1" class="st61" width="61.9" height="33.1"/>
		<g id="XMLID_839_">
			<rect id="XMLID_553_" x="1280.7" y="276" class="st64" width="45.8" height="1.4"/>
			<rect id="XMLID_552_" x="1280.7" y="280.4" class="st64" width="22" height="1.4"/>
			<rect id="XMLID_551_" x="1280.7" y="284.8" class="st64" width="27.7" height="1.4"/>
			<rect id="XMLID_550_" x="1280.7" y="289.2" class="st64" width="9.8" height="1.4"/>
			<rect id="XMLID_549_" x="1280.7" y="293.5" class="st64" width="6.3" height="1.4"/>
		</g>
	</g>
	<g id="XMLID_829_">
		
			<rect id="XMLID_548_" x="605.9" y="294.4" transform="matrix(1 -4.558345e-003 4.558345e-003 1 -1.4607 2.9687)" class="st1" width="89.3" height="55.1"/>
		<g id="XMLID_830_">
			<g id="XMLID_835_">
				<path id="XMLID_547_" class="st65" d="M640,335.8c-0.4,0-0.8-0.1-1.1-0.4l-16.3-11.9c-0.5-0.4-0.8-0.9-0.8-1.5
					c0-0.6,0.3-1.2,0.8-1.5l16.2-12c0.8-0.6,2-0.4,2.6,0.4c0.6,0.8,0.4,2-0.4,2.6L626.9,322l14.2,10.4c0.8,0.6,1,1.8,0.4,2.6
					C641.2,335.5,640.6,335.8,640,335.8z"/>
			</g>
			<g id="XMLID_833_">
				<path id="XMLID_546_" class="st65" d="M661.2,335.7c-0.6,0-1.1-0.3-1.5-0.8c-0.6-0.8-0.4-2,0.4-2.6l14.1-10.5l-14.2-10.4
					c-0.8-0.6-1-1.8-0.4-2.6c0.6-0.8,1.8-1,2.6-0.4l16.3,11.9c0.5,0.4,0.8,0.9,0.8,1.5c0,0.6-0.3,1.2-0.8,1.5l-16.2,12
					C661.9,335.6,661.5,335.7,661.2,335.7z"/>
			</g>
			<g id="XMLID_831_">
				<path id="XMLID_545_" class="st65" d="M646.3,335.8c-0.2,0-0.4,0-0.6-0.1c-1-0.3-1.5-1.4-1.1-2.4l8.4-24c0.3-1,1.4-1.5,2.4-1.1
					c1,0.3,1.5,1.4,1.1,2.4l-8.4,24C647.8,335.3,647.1,335.8,646.3,335.8z"/>
			</g>
		</g>
	</g>
</g>
<ellipse id="_x3C_Path_x3E__359_" class="st64" cx="1113.6" cy="354.7" rx="193" ry="11.3"/>
<g id="XMLID_802_">
	<g id="XMLID_824_">
		<polygon id="XMLID_544_" class="st66" points="1197.6,354.7 1204.9,354.7 1214.8,299.7 1207.5,299.7 		"/>
		<polygon id="XMLID_543_" class="st67" points="1197.6,354.7 1204.9,354.7 1214.8,299.7 1207.5,299.7 		"/>
		<polygon id="XMLID_542_" class="st67" points="1197.6,354.7 1202.9,354.7 1212.8,299.7 1207.5,299.7 		"/>
	</g>
	<path id="XMLID_541_" class="st66" d="M1177,316.1h29.3c0.9,0,1.6-0.7,1.6-1.6l0,0c0-0.9-0.7-1.6-1.6-1.6H1177
		c-0.9,0-1.6,0.7-1.6,1.6l0,0C1175.4,315.4,1176.1,316.1,1177,316.1z"/>
	<path id="XMLID_540_" class="st66" d="M1173.7,334.5h29.3c0.9,0,1.6-0.7,1.6-1.6l0,0c0-0.9-0.7-1.6-1.6-1.6h-29.3
		c-0.9,0-1.6,0.7-1.6,1.6l0,0C1172.1,333.8,1172.8,334.5,1173.7,334.5z"/>
	<g id="XMLID_818_">
		<polygon id="XMLID_539_" class="st66" points="1167.7,354.7 1175,354.7 1185,299.7 1177.7,299.7 		"/>
		<polygon id="XMLID_538_" class="st67" points="1167.7,354.7 1175,354.7 1185,299.7 1177.7,299.7 		"/>
		<polygon id="XMLID_537_" class="st67" points="1167.7,354.7 1173,354.7 1183,299.7 1177.7,299.7 		"/>
	</g>
	<g id="XMLID_814_">
		<polygon id="XMLID_536_" class="st66" points="1235.7,354.7 1228.4,354.7 1218.5,299.7 1225.8,299.7 		"/>
		<polygon id="XMLID_535_" class="st68" points="1235.7,354.7 1228.4,354.7 1218.5,299.7 1225.8,299.7 		"/>
		<polygon id="XMLID_534_" class="st67" points="1233.7,354.7 1228.4,354.7 1218.5,299.7 1223.8,299.7 		"/>
	</g>
	<path id="XMLID_533_" class="st66" d="M1222.9,316.1h-29.3c-0.9,0-1.6-0.7-1.6-1.6l0,0c0-0.9,0.7-1.6,1.6-1.6h29.3
		c0.9,0,1.6,0.7,1.6,1.6l0,0C1224.5,315.4,1223.8,316.1,1222.9,316.1z"/>
	<path id="XMLID_532_" class="st66" d="M1226.1,334.5h-29.3c-0.9,0-1.6-0.7-1.6-1.6l0,0c0-0.9,0.7-1.6,1.6-1.6h29.3
		c0.9,0,1.6,0.7,1.6,1.6l0,0C1227.7,333.8,1227,334.5,1226.1,334.5z"/>
	<path id="XMLID_531_" class="st67" d="M1222.9,316.1h-29.3c-0.9,0-1.6-0.7-1.6-1.6l0,0c0-0.9,0.7-1.6,1.6-1.6h29.3
		c0.9,0,1.6,0.7,1.6,1.6l0,0C1224.5,315.4,1223.8,316.1,1222.9,316.1z"/>
	<path id="XMLID_530_" class="st67" d="M1226.1,334.5h-29.3c-0.9,0-1.6-0.7-1.6-1.6l0,0c0-0.9,0.7-1.6,1.6-1.6h29.3
		c0.9,0,1.6,0.7,1.6,1.6l0,0C1227.7,333.8,1227,334.5,1226.1,334.5z"/>
	<g id="XMLID_806_">
		<polygon id="XMLID_529_" class="st66" points="1205.9,354.7 1198.6,354.7 1188.6,299.7 1195.9,299.7 		"/>
		<polygon id="XMLID_528_" class="st68" points="1205.9,354.7 1198.6,354.7 1188.6,299.7 1195.9,299.7 		"/>
		<polygon id="XMLID_527_" class="st67" points="1203.9,354.7 1198.6,354.7 1188.6,299.7 1193.9,299.7 		"/>
	</g>
	<g id="XMLID_803_">
		<path id="XMLID_526_" class="st66" d="M1228.6,302.4h-52.8c-0.7,0-1.2-0.5-1.2-1.2v-2.9c0-0.7,0.5-1.2,1.2-1.2h52.8
			c0.7,0,1.2,0.5,1.2,1.2v2.9C1229.8,301.8,1229.3,302.4,1228.6,302.4z"/>
		<path id="XMLID_525_" class="st67" d="M1195.9,302.4h-20.1c-0.7,0-1.2-0.5-1.2-1.2v-2.9c0-0.7,0.5-1.2,1.2-1.2h20.1
			c0.7,0,1.2,0.5,1.2,1.2v2.9C1197.1,301.8,1196.5,302.4,1195.9,302.4z"/>
	</g>
</g>
<g id="XMLID_791_">
	<g id="XMLID_799_">
		<rect id="XMLID_524_" x="924" y="299" class="st69" width="84.3" height="54.9"/>
		<rect id="XMLID_523_" x="924" y="299" class="st70" width="84.3" height="54.9"/>
	</g>
	<rect id="XMLID_522_" x="927.1" y="309.3" class="st0" width="78.2" height="41.8"/>
	<g id="XMLID_792_">
		<rect id="XMLID_521_" x="933.5" y="315.5" class="st3" width="57.8" height="1.8"/>
		<rect id="XMLID_520_" x="933.5" y="321" class="st3" width="27.7" height="1.8"/>
		<rect id="XMLID_519_" x="933.5" y="326.5" class="st3" width="34.9" height="1.8"/>
		<rect id="XMLID_518_" x="933.5" y="332" class="st3" width="12.3" height="1.8"/>
		<rect id="XMLID_517_" x="933.5" y="337.5" class="st3" width="8" height="1.8"/>
	</g>
</g>
<g id="XMLID_705_">
	<g id="XMLID_787_">
		<polygon id="XMLID_516_" class="st69" points="1112.6,354.7 1043.9,354.7 1055.6,263.5 1101,263.5 		"/>
		<polygon id="XMLID_515_" class="st63" points="1112.6,354.7 1043.9,354.7 1051.9,292.3 1055.6,263.5 1101,263.5 1106.4,306 		"/>
		<polygon id="XMLID_514_" class="st71" points="1106.4,306 1051.9,292.3 1055.6,263.5 1101,263.5 		"/>
	</g>
	<g id="XMLID_784_">
		<path id="XMLID_513_" class="st0" d="M1240.1,38.4h-6.9h-310h-6.9c-4.6,0-8.3,3.7-8.3,8.3v219.2c0,4.6,3.7,8.3,8.3,8.3h6.9h310
			h6.9c4.6,0,8.3-3.7,8.3-8.3V46.7C1248.4,42.1,1244.7,38.4,1240.1,38.4z"/>
		<path id="XMLID_512_" class="st63" d="M1240.1,38.4h-6.9h-310h-6.9c-4.6,0-8.3,3.7-8.3,8.3v219.2c0,4.6,3.7,8.3,8.3,8.3h6.9h310
			h6.9c4.6,0,8.3-3.7,8.3-8.3V46.7C1248.4,42.1,1244.7,38.4,1240.1,38.4z"/>
	</g>
	<rect id="XMLID_511_" x="919" y="46.5" class="st39" width="318.5" height="211.3"/>
	<g id="XMLID_780_">
		<path id="XMLID_510_" class="st69" d="M1136.2,347.9h-115.9c-0.6,0-1,0.5-1,1v4.7c0,0.6,0.5,1,1,1h115.9c0.6,0,1-0.5,1-1v-4.7
			C1137.2,348.3,1136.8,347.9,1136.2,347.9z"/>
		<path id="XMLID_509_" class="st63" d="M1136.2,347.9h-115.9c-0.6,0-1,0.5-1,1v4.7c0,0.6,0.5,1,1,1h115.9c0.6,0,1-0.5,1-1v-4.7
			C1137.2,348.3,1136.8,347.9,1136.2,347.9z"/>
	</g>
	<g id="XMLID_719_">
		<rect id="XMLID_508_" x="919" y="46.7" class="st72" width="318.5" height="31.5"/>
		<rect id="XMLID_507_" x="919" y="78.6" class="st68" width="136.5" height="179.3"/>
		<g id="XMLID_755_">
			<g id="XMLID_506_">
				<g id="XMLID_596_">
					<polyline id="XMLID_605_" class="st73" points="1188.5,124.9 1188.5,127.4 1186,127.4 					"/>
					<line id="XMLID_604_" class="st74" x1="1181" y1="127.4" x2="1074.4" y2="127.4"/>
					<polyline id="XMLID_603_" class="st73" points="1071.9,127.4 1069.4,127.4 1069.4,124.9 					"/>
					<line id="XMLID_602_" class="st75" x1="1069.4" y1="120" x2="1069.4" y2="63.5"/>
					<polyline id="XMLID_601_" class="st73" points="1069.4,61.1 1069.4,58.6 1071.9,58.6 					"/>
					<line id="XMLID_600_" class="st74" x1="1076.9" y1="58.6" x2="1183.5" y2="58.6"/>
					<polyline id="XMLID_598_" class="st73" points="1186,58.6 1188.5,58.6 1188.5,61.1 					"/>
					<line id="XMLID_597_" class="st75" x1="1188.5" y1="66" x2="1188.5" y2="122.5"/>
				</g>
			</g>
			<g id="XMLID_762_">
				<rect id="XMLID_505_" x="1186.5" y="56.6" class="st76" width="4" height="4"/>
				<rect id="XMLID_504_" x="1186.5" y="125.4" class="st76" width="4" height="4"/>
				<rect id="XMLID_503_" x="1067.4" y="56.6" class="st76" width="4" height="4"/>
				<rect id="XMLID_502_" x="1067.4" y="125.4" class="st76" width="4" height="4"/>
			</g>
			<g id="XMLID_759_">
				<rect id="XMLID_501_" x="1127" y="56.6" class="st76" width="4" height="4"/>
				<rect id="XMLID_500_" x="1127" y="125.4" class="st76" width="4" height="4"/>
			</g>
			<g id="XMLID_756_">
				<rect id="XMLID_499_" x="1186.5" y="91" class="st76" width="4" height="4"/>
				<rect id="XMLID_498_" x="1067.4" y="91" class="st76" width="4" height="4"/>
			</g>
		</g>
		<path id="XMLID_11_" class="st9" d="M1178.2,94.2h-30.1c-1,0-1.9-0.8-1.9-1.9v-8.8c0-1,0.8-1.9,1.9-1.9h30.1c1,0,1.9,0.8,1.9,1.9
			v8.8C1180.1,93.4,1179.2,94.2,1178.2,94.2z"/>
		<path id="XMLID_497_" class="st9" d="M1127.9,94.2h-30.1c-1,0-1.9-0.8-1.9-1.9v-8.8c0-1,0.8-1.9,1.9-1.9h30.1c1,0,1.9,0.8,1.9,1.9
			v8.8C1129.8,93.4,1129,94.2,1127.9,94.2z"/>
		<path id="XMLID_496_" class="st5" d="M1063.2,247h-30.1c-1,0-1.9-0.8-1.9-1.9v-8.8c0-1,0.8-1.9,1.9-1.9h30.1c1,0,1.9,0.8,1.9,1.9
			v8.8C1065.1,246.1,1064.3,247,1063.2,247z"/>
		<g id="XMLID_748_">
			<line id="XMLID_495_" class="st77" x1="1216.5" y1="57.9" x2="1227.1" y2="57.9"/>
			<line id="XMLID_494_" class="st77" x1="1216.5" y1="62.9" x2="1227.1" y2="62.9"/>
			<line id="XMLID_493_" class="st77" x1="1216.5" y1="67.9" x2="1227.1" y2="67.9"/>
		</g>
		<rect id="XMLID_492_" x="940.6" y="106.4" class="st78" width="106.8" height="106.8"/>
		<g id="XMLID_739_">
			<line id="XMLID_491_" class="st79" x1="985.3" y1="115.1" x2="985.3" y2="207.2"/>
			<path id="XMLID_490_" class="st79" d="M1031.4,207.2L1031.4,207.2c-25.4,0-46.1-20.6-46.1-46.1v0c0-25.4,20.6-46.1,46.1-46.1l0,0
				"/>
			<rect id="XMLID_489_" x="1029.4" y="113.1" class="st80" width="4" height="4"/>
			<rect id="XMLID_488_" x="1029.4" y="205.2" class="st80" width="4" height="4"/>
			<rect id="XMLID_487_" x="983.3" y="159.2" class="st80" width="4" height="4"/>
			<circle id="XMLID_486_" class="st80" cx="985.3" cy="115.1" r="1"/>
			<circle id="XMLID_485_" class="st80" cx="985.3" cy="207.2" r="1"/>
		</g>
		<path id="XMLID_484_" class="st6" d="M1162.3,235.9H1130c-5.2,0-9.3-4.2-9.3-9.3l0,0c0-5.2,4.2-9.3,9.3-9.3h32.3
			c5.2,0,9.3,4.2,9.3,9.3l0,0C1171.7,231.8,1167.5,235.9,1162.3,235.9z"/>
		<path id="XMLID_483_" class="st81" d="M1190.7,156.2h-99.9c-1.1,0-2-0.9-2-2l0,0c0-1.1,0.9-2,2-2h99.9c1.1,0,2,0.9,2,2l0,0
			C1192.8,155.3,1191.9,156.2,1190.7,156.2z"/>
		<path id="XMLID_482_" class="st81" d="M1190.7,171.2h-99.9c-1.1,0-2-0.9-2-2l0,0c0-1.1,0.9-2,2-2h99.9c1.1,0,2,0.9,2,2l0,0
			C1192.8,170.3,1191.9,171.2,1190.7,171.2z"/>
		<path id="XMLID_481_" class="st81" d="M1190.7,186.1h-62.2c-1.1,0-2-0.9-2-2l0,0c0-1.1,0.9-2,2-2h62.2c1.1,0,2,0.9,2,2l0,0
			C1192.8,185.2,1191.9,186.1,1190.7,186.1z"/>
		<g id="XMLID_731_">
			<rect id="XMLID_480_" x="929.1" y="55.4" class="st82" width="7.1" height="7.1"/>
			<path id="XMLID_479_" class="st82" d="M948.4,62.5h-4.2c-0.8,0-1.4-0.6-1.4-1.4v-4.2c0-0.8,0.6-1.4,1.4-1.4h4.2
				c0.8,0,1.4,0.6,1.4,1.4V61C949.9,61.8,949.2,62.5,948.4,62.5z"/>
			<path id="XMLID_7_" class="st82" d="M961,62.5h-1.9c-1.4,0-2.6-1.2-2.6-2.6V58c0-1.4,1.2-2.6,2.6-2.6h1.9c1.4,0,2.6,1.2,2.6,2.6
				v1.9C963.6,61.3,962.4,62.5,961,62.5z"/>
		</g>
		<g id="XMLID_720_">
			<g id="XMLID_721_">
				<path id="XMLID_728_" class="st83" d="M950.7,229.5v-2.8l-1.4-0.1c-0.2-0.9-0.6-1.8-1.1-2.5l0.9-1.1l-1.9-1.9l-1.1,0.9
					c-0.8-0.5-1.6-0.9-2.5-1.1l-0.1-1.4h-2.8l-0.1,1.4c-0.9,0.2-1.8,0.6-2.5,1.1l-1.1-0.9l-1.9,1.9l0.9,1.1
					c-0.5,0.8-0.9,1.6-1.1,2.5l-1.4,0.1v2.8l1.4,0.1c0.2,0.9,0.6,1.8,1.1,2.5l-0.9,1.1l1.9,1.9l1.1-0.9c0.8,0.5,1.6,0.9,2.5,1.1
					l0.1,1.4h2.8l0.1-1.4c0.9-0.2,1.8-0.6,2.5-1.1l1.1,0.9l1.9-1.9l-0.9-1.1c0.5-0.8,0.9-1.6,1.1-2.5L950.7,229.5z M942.1,231.8
					c-2.1,0-3.7-1.7-3.7-3.7c0-2.1,1.7-3.7,3.7-3.7c2.1,0,3.7,1.7,3.7,3.7C945.8,230.1,944.1,231.8,942.1,231.8z"/>
				<path id="XMLID_725_" class="st84" d="M961.9,237.2v-2.2l-1.1-0.1c-0.1-0.7-0.4-1.4-0.8-2l0.7-0.9l-1.5-1.5l-0.9,0.7
					c-0.6-0.4-1.3-0.7-2-0.8l-0.1-1.1H954l-0.1,1.1c-0.7,0.1-1.4,0.4-2,0.8l-0.9-0.7l-1.5,1.5l0.7,0.9c-0.4,0.6-0.7,1.3-0.8,2
					l-1.1,0.1v2.2l1.1,0.1c0.1,0.7,0.4,1.4,0.8,2l-0.7,0.9l1.5,1.5l0.9-0.7c0.6,0.4,1.3,0.7,2,0.8l0.1,1.1h2.2l0.1-1.1
					c0.7-0.1,1.4-0.4,2-0.8l0.9,0.7l1.5-1.5l-0.7-0.9c0.4-0.6,0.7-1.3,0.8-2L961.9,237.2z M955.1,239.1c-1.6,0-2.9-1.3-2.9-2.9
					c0-1.6,1.3-2.9,2.9-2.9s2.9,1.3,2.9,2.9C958,237.8,956.7,239.1,955.1,239.1z"/>
				<path id="XMLID_722_" class="st68" d="M950.7,243.3v-1.8l-0.9-0.1c-0.1-0.6-0.4-1.2-0.7-1.7l0.6-0.7l-1.3-1.3l-0.7,0.6
					c-0.5-0.3-1.1-0.6-1.7-0.7l-0.1-0.9h-1.8l-0.1,0.9c-0.6,0.1-1.2,0.4-1.7,0.7l-0.7-0.6l-1.3,1.3l0.6,0.7
					c-0.3,0.5-0.6,1.1-0.7,1.7l-0.9,0.1l0,1.8l0.9,0.1c0.1,0.6,0.4,1.2,0.7,1.7l-0.6,0.7l1.3,1.3l0.7-0.6c0.5,0.3,1.1,0.6,1.7,0.7
					l0.1,0.9h1.8l0.1-0.9c0.6-0.1,1.2-0.4,1.7-0.7l0.7,0.6l1.3-1.3l-0.6-0.7c0.3-0.5,0.6-1.1,0.7-1.7L950.7,243.3z M945,244.9
					c-1.4,0-2.5-1.1-2.5-2.5c0-1.4,1.1-2.5,2.5-2.5c1.4,0,2.5,1.1,2.5,2.5C947.5,243.8,946.4,244.9,945,244.9z"/>
			</g>
		</g>
	</g>
	<g id="XMLID_714_">
		<g id="XMLID_716_">
			<polygon id="XMLID_472_" class="st69" points="1187.8,57.9 1193.1,72.1 1202,63.2 			"/>
			
				<rect id="XMLID_471_" x="1196.1" y="64.5" transform="matrix(0.7071 -0.7071 0.7071 0.7071 302.9174 866.6083)" class="st69" width="2.8" height="6.2"/>
		</g>
		<polygon id="XMLID_470_" class="st68" points="1202,63.2 1187.8,57.9 1193.1,72.1 1196.6,68.6 1198.8,70.8 1200.7,68.9 
			1198.5,66.7 		"/>
	</g>
	<g id="XMLID_711_">
		<path id="XMLID_469_" class="st66" d="M979.6,129.8l13.4,5l-7-7c-0.5,0.3-1.2,0.2-1.6-0.2c-0.5-0.5-0.5-1.4,0-2
			c0.5-0.5,1.4-0.5,2,0c0.4,0.4,0.5,1.1,0.2,1.6l7,7l-5-13.4l-4.4,1l-0.2-1.6l-0.8-0.8l-4.9,4.9l0.8,0.8l1.6,0.2L979.6,129.8z"/>
		<path id="XMLID_468_" class="st67" d="M979.6,129.8l13.4,5l-7-7c-0.5,0.3-1.2,0.2-1.6-0.2c-0.5-0.5-0.5-1.4,0-2
			c0.5-0.5,1.4-0.5,2,0c0.4,0.4,0.5,1.1,0.2,1.6l7,7l-5-13.4l-4.4,1l-0.2-1.6l-0.8-0.8l-4.9,4.9l0.8,0.8l1.6,0.2L979.6,129.8z"/>
	</g>
	<g id="XMLID_706_" class="st85">
		<polygon id="XMLID_467_" class="st3" points="965.6,46.5 918.4,222.9 918.4,46.5 		"/>
		<polygon id="XMLID_466_" class="st3" points="1018.9,46.5 962.3,257.8 923.3,257.8 979.9,46.5 		"/>
		<polygon id="XMLID_465_" class="st3" points="1075.5,46.5 1019,257.8 1001.3,257.8 1057.9,46.5 		"/>
		<polygon id="XMLID_464_" class="st3" points="1127.7,46.5 1071.1,257.8 1064.8,257.8 1121.4,46.5 		"/>
	</g>
</g>
<g id="XMLID_660_">
	<g id="XMLID_701_">
		<path id="XMLID_463_" class="st66" d="M1300.5,116.3c4.1,4.7,24.7,44.4,20.7,53.7c-4,9.3-37-1.4-37-1.4l2-13.1
			c0,0,12.8,0.5,14.1-0.8c1.2-1.2-17.4-19.8-17.4-19.8L1300.5,116.3z"/>
		<g id="XMLID_702_" class="st72">
			<path id="XMLID_462_" class="st3" d="M1321.2,170c-0.5,1.1-1.3,1.9-2.4,2.4c0,0,0,0,0,0c-0.2,0.1-0.4,0.2-0.7,0.3
				c0,0-0.1,0-0.1,0c-0.2,0.1-0.4,0.2-0.6,0.2c-0.9,0.3-1.8,0.5-2.9,0.6c-0.3,0-0.5,0.1-0.8,0.1c-0.4,0-0.8,0.1-1.2,0.1
				c-0.4,0-0.7,0-1.1,0c-11.1,0-27.2-5.2-27.2-5.2l2-13.1c0,0,12.8,0.5,14.1-0.8c0.3-0.3-0.6-1.6-2.1-3.5c0,0,0,0,0,0
				c-3.6-4.5-10.9-11.9-13.9-14.9c-0.8-0.9-1.4-1.4-1.4-1.4l17.7-18.6C1304.5,121,1325.2,160.8,1321.2,170z"/>
		</g>
	</g>
	<path id="XMLID_461_" class="st72" d="M1318.8,172.5C1318.8,172.5,1318.7,172.5,1318.8,172.5c-0.2,0.1-0.5,0.2-0.7,0.3
		c0,0-0.1,0-0.1,0c-0.2,0.1-0.4,0.2-0.6,0.2c-0.9,0.3-1.8,0.5-2.9,0.6c-0.3,0-0.5,0.1-0.8,0.1c-0.4,0-0.8,0.1-1.2,0.1
		c-0.4,0-0.7,0-1.1,0c-11.1,0-27.2-5.2-27.2-5.2l2-13.1c0,0,14.5,1.2,15.7,0c0,0,0,0,0-0.1c0.2-0.5-1.4-2.1-3.7-4.2c0,0,0,0,0,0
		c-3.6-4.5-10.9-11.9-13.9-14.9l8.4-8.9l6.4-0.7C1298.9,126.7,1312.9,149.5,1318.8,172.5z"/>
	<g id="XMLID_696_">
		<path id="XMLID_460_" class="st66" d="M1258.8,115c-2.3,1.7-3.4,4-2.5,5.3l60.4,83.2c0.9,1.2,3.5,0.9,5.8-0.8
			c2.3-1.7,3.4-4,2.5-5.3l-60.4-83.2C1263.7,113,1261.1,113.4,1258.8,115z"/>
		<path id="XMLID_459_" class="st81" d="M1264.6,114.3l60.4,83.2c0.9,1.2-0.2,3.6-2.5,5.3c-2.3,1.7-4.9,2-5.8,0.8l-60.4-83.2
			c-0.5-0.7-0.4-1.7,0.2-2.8c0.3-0.5,0.7-1,1.1-1.5c0.3-0.3,0.7-0.7,1.1-1C1261.1,113.4,1263.7,113,1264.6,114.3z"/>
		<path id="XMLID_458_" class="st86" d="M1324.9,197.5c0.9,1.2-0.2,3.6-2.5,5.3c-2.3,1.7-4.9,2-5.8,0.8c-0.5-0.7,0.7-1.7,1.5-3.2
			l-61.6-82.8c0.3-0.5,0.7-1,1.1-1.5l60.4,83.2c0.3-0.3,0.7-0.7,1.1-1C1321.4,196.6,1324,196.3,1324.9,197.5z"/>
	</g>
	<g id="XMLID_692_">
		<path id="XMLID_457_" class="st69" d="M1251.3,112.7c-1.9,2.1-2.6,4.6-1.5,5.6l75.1,70.3c1.1,1,3.6,0.2,5.5-1.8
			c1.9-2.1,2.6-4.6,1.5-5.6l-75.1-70.3C1255.7,109.8,1253.3,110.7,1251.3,112.7z"/>
		<path id="XMLID_456_" class="st81" d="M1256.8,110.9l75.1,70.3c1.1,1,0.5,3.6-1.5,5.6c-1.9,2.1-4.4,2.9-5.5,1.8l-75.1-70.3
			c-0.6-0.6-0.7-1.6-0.3-2.8c0.2-0.5,0.5-1.1,0.8-1.7c0.3-0.4,0.6-0.8,0.9-1.2C1253.3,110.7,1255.7,109.8,1256.8,110.9z"/>
		<path id="XMLID_455_" class="st86" d="M1331.9,181.2c1.1,1,0.5,3.6-1.5,5.6c-1.9,2.1-4.4,2.9-5.5,1.8c-0.6-0.6,0.4-1.8,0.8-3.4
			l-76.2-69.6c0.2-0.5,0.5-1.1,0.8-1.7l75.1,70.3c0.3-0.4,0.6-0.8,0.9-1.2C1328.3,180.9,1330.8,180.1,1331.9,181.2z"/>
	</g>
	<path id="XMLID_454_" class="st87" d="M1269.4,337l-5.7,0.1c-5.8-27.3-9.9-61.1-12.5-86.6c-0.4-4-0.8-7.8-1.1-11.3
		c-0.1-1.7-0.3-3.3-0.4-4.8c-0.7-7.7-1.2-13.7-1.4-17.5c-0.2-2.7-0.3-4.2-0.3-4.2h20.7l-0.2,5.3l-0.6,17.4l-0.1,2l-0.4,11.5
		l-0.7,19.5C1273.6,295.7,1269.4,337,1269.4,337z"/>
	<path id="XMLID_453_" class="st87" d="M1315.7,335.5l-5.6,1.1c-11.3-28.2-21.9-64.3-28.8-89.5c-1.1-3.9-2-7.6-2.9-10.9
		c0-0.2-0.1-0.3-0.1-0.5c-1.7-6.6-3.1-11.8-3.9-15.1c-0.6-2.6-1-4-1-4l20.4-3.5l1.2,8.6l1.7,12.6l0.3,2.5l1.2,8.6l3.1,23
		C1312.9,294.1,1315.7,335.5,1315.7,335.5z"/>
	<path id="XMLID_452_" class="st72" d="M1296.6,234.2l-18.2,2c0-0.2-0.1-0.3-0.1-0.5c-1.7-6.6-3.1-11.8-3.9-15.1l20.5,1
		L1296.6,234.2z"/>
	<path id="XMLID_451_" class="st72" d="M1268.4,217.8l-0.6,17.4l-0.1,2l-17.6,2c-0.1-1.7-0.3-3.3-0.4-4.8
		c-0.7-7.7-1.2-13.7-1.4-17.5L1268.4,217.8z"/>
	<path id="XMLID_450_" class="st66" d="M1252.5,356c1.1-0.9,2.3-1.5,3.6-1.9l0,0c0,0,3.9-3.9,5.8-15.5l5.1-1.3
		c1.8-0.4,3.6,0.3,4.6,1.8c0.1,0.2,0.3,0.4,0.3,0.7c0.3,1.2,0.4,2.5,0.5,3.8c0.5,3.9,0.1,12.8,0.1,12.8h-0.9l-0.4-8
		c-0.1-2.7-2.2,0.5-2.8,3.4c-0.6,2.9-1.9,6.1-7.8,6.2C1253.6,357.9,1250.7,357.7,1252.5,356z"/>
	<path id="XMLID_449_" class="st66" d="M1271.7,339.1c0.3-2.7,0.4-7.5,0.4-7.5l-11.3,1.3c0,0,1.4,5.4,0.2,9.4
		C1266.8,340.8,1271.7,339.1,1271.7,339.1z"/>
	<path id="XMLID_448_" class="st66" d="M1298.6,356c1.1-0.9,2.3-1.5,3.6-1.9l0,0c0,0,3.9-3.9,5.8-15.5l5.1-1.3
		c1.8-0.4,3.6,0.3,4.6,1.8c0.1,0.2,0.3,0.4,0.3,0.7c0.3,1.2,0.4,2.5,0.5,3.8c0.5,3.9,0.1,12.8,0.1,12.8h-0.9l-0.4-8
		c-0.1-2.7-2.2,0.5-2.8,3.4c-0.6,2.9-1.9,6.1-7.8,6.2C1299.7,357.9,1296.8,357.7,1298.6,356z"/>
	<path id="XMLID_447_" class="st66" d="M1317.8,339.1c0.3-2.7,0.4-7.5,0.4-7.5l-11.3,1.3c0,0,1.4,5.4,0.2,9.4
		C1312.9,340.8,1317.8,339.1,1317.8,339.1z"/>
	<path id="XMLID_446_" class="st69" d="M1298.6,228.6l-21.6,2.8l-0.8,0.1l-4.4-16.2l-1.2,17.4l-23.1-1.2
		c-10.3-60.4,7.3-74.7,7.3-74.7l31.3,6.3c14.2,24.1,10.8,52.2,10.8,52.2L1298.6,228.6z"/>
	<g id="XMLID_673_">
		<ellipse id="XMLID_445_" class="st88" cx="1266.6" cy="81.5" rx="2.3" ry="4.3"/>
		<path id="XMLID_444_" class="st87" d="M1284.4,95.9c-0.1,0.1-0.2,0.1-0.3,0.2c-1.3,0.9-2.7,1.8-4.4,2.1c-4.6,1.1-7.8,0.4-9.9-1.7
			c0,0,0,0,0,0c-2.9-3.1-3.6-8.7-3.2-15.4c0.2-3.1,0.6-5.8,1.5-7.8c0,0,0-0.1,0-0.1c0-0.1,0.1-0.2,0.1-0.3c1.3-2.9,3.4-4.8,6.7-5.6
			c1.2-0.3,2.5-0.4,4-0.4C1292.1,66.7,1294.4,88.4,1284.4,95.9z"/>
		<path id="XMLID_443_" class="st72" d="M1284.1,96.1c-1.3,0.9-2.7,1.6-4.4,2c-4.6,1.1-7.8,0.3-9.9-1.8c2.3,0.5,5.3,0.7,8.3-0.7
			C1280.1,94.6,1282.2,95.1,1284.1,96.1z"/>
		<path id="XMLID_442_" class="st87" d="M1285.5,107.9c0.8,3.7-4,5.2-4,5.2c-7.9-3.4-9.4-7.6-9.4-7.6c6.6-3.4,4.7-13.2,4.7-13.2
			l1.3,0.7l9.4,1.8c0,0-2.6,5-3,6.1c0,0,0,0,0,0C1282.8,107.1,1285.5,107.9,1285.5,107.9z"/>
		<path id="XMLID_441_" class="st66" d="M1268.1,73.2c0,0-0.7,9.2,8,13.1c0,0,3.7,9.5,9.2,9.7c7.5,0.2,14.1-10.5,11.5-21.3
			C1293.5,60.5,1272.2,59.4,1268.1,73.2z"/>
		<path id="XMLID_440_" class="st87" d="M1271.7,83.7c0-1.4,1.2-3.8,3.4-3.5c2.3,0.3,3.6,6-2.1,7.3
			C1272.2,87.6,1271.7,86.7,1271.7,83.7z"/>
		<path id="XMLID_439_" class="st66" d="M1284.1,63.4c0,0-8.8-2.2-13.6,1.3c-5.7,4.1-7.8,8.4-1.1,15c0,0,14.7-4.8,19.6-3.8
			c4.9,1,8.4,2.4,8.4,2.4C1298.4,68.7,1289,61.5,1284.1,63.4z"/>
		<path id="XMLID_438_" class="st66" d="M1271.7,81.5c0,0,2.3,10.6-1.3,19.6c0,0,20.8,7.2,28,3.3c7.2-3.9,0.6-17.1,0.3-24.7
			c-0.3-7.6-3.6-18.8-14.6-16.3C1273.1,66,1271.7,81.5,1271.7,81.5z"/>
		<line id="XMLID_437_" class="st88" x1="1264.2" y1="80.8" x2="1273" y2="80.8"/>
	</g>
	<path id="XMLID_436_" class="st72" d="M1277,231.3l-0.8,0.1l-4.4-16.2c0,0,9.5-16.2,6.5-24.7C1278.7,191.1,1289,206.3,1277,231.3z"
		/>
	<g id="XMLID_669_">
		<path id="XMLID_435_" class="st66" d="M1259.2,107.1c0,0,10.5-3.7,26.2,0.8c15.8,4.5,16.3,11.3,16.3,11.3s-10,22.6-11.6,48.2
			l-41.1-1.5C1249.2,165.9,1244.3,129.7,1259.2,107.1z"/>
		<path id="XMLID_434_" class="st89" d="M1301.8,119.1c0,0-10,22.6-11.6,48.3l-41.1-1.5c0,0-0.7-5-0.8-12.5
			c-0.1-5.2,0.2-11.6,1.1-18.4c1.4-9.5,4.2-19.6,9.7-27.9c0,0,10.5-3.7,26.2,0.8C1301.2,112.4,1301.8,119.1,1301.8,119.1z"/>
	</g>
	<path id="XMLID_433_" class="st72" d="M1258.7,136.5c0,0-1.7,10.4-10.2,16.8c-0.1-5.2,0.2-11.6,1.1-18.4L1258.7,136.5z"/>
	<path id="XMLID_432_" class="st87" d="M1213.3,106.3l-5.2-7.7c0,0-0.8-3.3-1.8-4.1c-1-0.8-11-5-12.1-5c-1.2,0-1.2,7.7,0,9.1
		c1.2,1.3,7.5,4.1,9.1,4.4c1.6,0.3,0.8,0,0.8,0l4.6,9.1L1213.3,106.3z"/>
	<g id="XMLID_664_">
		<path id="XMLID_431_" class="st66" d="M1259.2,107.1c0,0-14.4,5.7-32,16.5l-16.7-22.8c0,0-4.5,1.4-6.2,9.2c0,0,8.6,32.7,19.7,35.9
			c11.1,3.2,34.6-9.4,34.6-9.4S1265.5,119.5,1259.2,107.1z"/>
		<path id="XMLID_430_" class="st89" d="M1259.2,107.1c0,0-14.4,5.7-32,16.5l-16.7-22.8c0,0-4.5,1.4-6.2,9.2c0,0,8.6,32.7,19.7,35.9
			c11.1,3.2,34.6-9.4,34.6-9.4S1265.5,119.5,1259.2,107.1z"/>
	</g>
	<g id="XMLID_661_">
		<path id="XMLID_429_" class="st66" d="M1269.8,105.6c0,0,3.6,26.1,15.2,27.1c11.6,1.1,16.7-18.2,14.8-20.6
			C1297.8,109.9,1282.9,105.5,1269.8,105.6z"/>
		<path id="XMLID_428_" class="st90" d="M1269.8,105.6c0,0,3.6,26.1,15.2,27.1c11.6,1.1,16.7-18.2,14.8-20.6
			C1297.8,109.9,1282.9,105.5,1269.8,105.6z"/>
	</g>
</g>
<g id="_x3C_Group_x3E__81_">
	<polygon id="XMLID_427_" class="st91" points="852.6,346.1 861.1,346.1 861.8,326.6 853.3,326.6 	"/>
	<path id="XMLID_426_" class="st66" d="M862.2,345.1H852c-0.3,0-0.6,0.2-0.7,0.6l-1.7,7.5c-0.1,0.7,0.3,1.3,1,1.5c0.1,0,0.2,0,0.3,0
		c3.3-0.1,5.7-0.3,9.9-0.3c2.6,0,10.3,0.3,13.8,0.3c3.5,0,4-3.5,2.6-3.8c-6.5-1.4-11.4-3.4-13.5-5.2
		C863.3,345.3,862.8,345.1,862.2,345.1z"/>
	<path id="XMLID_655_" class="st69" d="M862.8,346.3c-0.1,0-0.1-0.1-0.2-0.2c0-0.1,0-0.2,0.1-0.2c0.3-0.2,3-1.9,4-1.4
		c0.2,0.1,0.3,0.3,0.3,0.6c0.1,0.4-0.1,0.8-0.4,1.1c-0.5,0.3-1,0.5-1.6,0.4C864.3,346.6,863.5,346.5,862.8,346.3z M863.4,346
		c1,0.3,2.1,0.3,3-0.2c0.2-0.2,0.3-0.4,0.3-0.7c0-0.2-0.1-0.2-0.1-0.2c-0.1,0-0.2-0.1-0.3-0.1C865.3,345.1,864.3,345.5,863.4,346z"
		/>
	<path id="XMLID_652_" class="st69" d="M862.8,346.3c-0.1,0-0.1-0.1-0.1-0.2c0-0.1,0.2-2.5,1.2-3.3c0.2-0.2,0.5-0.3,0.8-0.3
		c0.3,0,0.6,0.2,0.6,0.5c0.2,0.9-1.5,2.7-2.4,3.2h-0.1C862.8,346.3,862.8,346.3,862.8,346.3z M864.1,343.1c-0.6,0.8-0.9,1.7-1,2.6
		c0.9-0.7,1.9-2.1,1.8-2.6c0-0.1,0-0.2-0.3-0.2h-0.1C864.4,342.9,864.2,343,864.1,343.1z"/>
	<polygon id="XMLID_421_" class="st72" points="853.3,326.6 861.8,326.6 861.4,336.7 853,336.7 	"/>
	<polygon id="XMLID_420_" class="st91" points="896.1,346.7 904.8,347.7 906.4,328.9 897.7,328 	"/>
	<path id="XMLID_419_" class="st66" d="M905.7,344.9h-10.2c-0.3,0-0.6,0.2-0.7,0.6l-1.7,7.5c-0.1,0.7,0.3,1.3,1,1.5
		c0.1,0,0.2,0,0.3,0c3.3-0.1,5.7-0.3,9.9-0.3c2.6,0,10.3,0.3,13.8,0.3s4-3.5,2.6-3.8c-6.5-1.4-11.4-3.4-13.5-5.2
		C906.7,345,906.2,344.9,905.7,344.9z"/>
	<path id="XMLID_646_" class="st69" d="M906.3,346c-0.1,0-0.1-0.1-0.2-0.2c0-0.1,0-0.2,0.1-0.2c0.3-0.2,3-1.9,4-1.4
		c0.2,0.1,0.3,0.3,0.3,0.6c0.1,0.4-0.1,0.8-0.4,1.1c-0.5,0.3-1,0.5-1.6,0.4C907.7,346.3,907,346.2,906.3,346z M906.8,345.8
		c1,0.3,2.1,0.3,3-0.2c0.2-0.2,0.3-0.4,0.3-0.7c0-0.2-0.1-0.2-0.1-0.2c-0.1,0-0.2-0.1-0.3-0.1C908.7,344.8,907.7,345.2,906.8,345.8z
		"/>
	<path id="XMLID_643_" class="st69" d="M906.2,346.1c-0.1,0-0.1-0.1-0.1-0.2c0-0.1,0.2-2.5,1.2-3.3c0.2-0.2,0.5-0.3,0.8-0.3
		c0.3,0,0.6,0.2,0.6,0.5c0.2,0.9-1.5,2.7-2.4,3.2h-0.1C906.3,346.1,906.2,346.1,906.2,346.1z M907.6,342.8c-0.6,0.8-0.9,1.7-1,2.6
		c0.9-0.7,1.9-2.1,1.8-2.6c0-0.1,0-0.2-0.3-0.2H908C907.8,342.6,907.7,342.7,907.6,342.8z"/>
	<polygon id="XMLID_414_" class="st72" points="897.7,328 906.4,328.9 905.5,338.6 896.8,337.7 	"/>
	<path id="XMLID_413_" class="st66" d="M856.8,155.2h44.8c4.3,23.2,17.6,105.5,8,178.7l-15.2-1.9c0,0,1.4-97.3-12-133.2
		c-1.5,19.2-3.4,39.7-5,50.6c-3.9,26.8-12.2,85.4-12.2,85.4h-15.4c0,0,3.2-56.1,4.6-82.5C856.1,223.8,856.7,161.1,856.8,155.2z"/>
	<g id="XMLID_639_">
		<polygon id="XMLID_412_" class="st69" points="911.3,337.5 892.6,334.7 893.1,329.5 912.6,332.1 		"/>
	</g>
	<g id="XMLID_637_">
		<polygon id="XMLID_411_" class="st69" points="867.1,335 848.9,335 848.9,329.6 867.8,329.2 		"/>
	</g>
	<path id="XMLID_410_" class="st72" d="M882.5,198.9c2,5.3,3.6,11.9,5,19.4c1.3-17.1-3.8-35.3-3.8-35.3L882.5,198.9z"/>
	<path id="XMLID_409_" class="st69" d="M855.5,163l-1,5.4c0,0,31.3,4.1,50.8,3.9l-0.7-3.7L855.5,163z"/>
	<path id="XMLID_400_" class="st91" d="M919.1,116.2c0,0,10.8,34.2,18.2,36.4c7.4,2.2,26.2-25.9,26.2-25.9s16.9-0.2,17.6-1.3
		c0.8-1.2-4.4-13-5.6-13.1c-1.2,0-15.9,5.5-16.5,6.5c-0.6,0.9-17.4,17.1-18.3,16.6c-0.8-0.5-7.2-20.8-7.2-20.8L919.1,116.2z"/>
	<path id="XMLID_399_" class="st91" d="M965.7,124.8c0.1,0,0.3-0.1,0.4-0.1c-0.1,0-0.1-0.1-0.2-0.1
		C965.9,124.7,965.8,124.8,965.7,124.8z"/>
	<g id="XMLID_630_">
		<path id="XMLID_398_" class="st69" d="M913,112.3l1.3,2.4l6.2,11.4l1.3,2.4l17.3-6c0,0-7.2-26.9-9.7-29.6L913,112.3z"/>
		<path id="XMLID_397_" class="st92" d="M913,112.3l1.3,2.4l6.2,11.4l1.3,2.4l17.3-6c0,0-7.2-26.9-9.7-29.6L913,112.3z"/>
	</g>
	<path id="XMLID_396_" class="st72" d="M914.3,114.7l6.2,11.4c3.8-7.5,2.7-17.7,2.7-17.7L914.3,114.7z"/>
	<g id="XMLID_621_">
		<path id="XMLID_380_" class="st69" d="M929.3,92.8c0,0-9.1-11.8-26-12.6c-17-0.8-22.3,0.9-28.5,6.4c-9.1,8.1-20.3,77.7-20.3,77.7
			s23.7,7.3,50.8,5.5c0,0,0.2-19.3,6.3-32.4C923.5,112.1,929.3,92.8,929.3,92.8z"/>
		<path id="XMLID_624_" class="st92" d="M854.5,164.3c0,0,23.7,7.3,50.8,5.5c0,0,0-2.4,0.3-6c0.1-1.7,0.3-3.8,0.6-5.9
			c0.3-2.3,0.7-4.7,1.2-7.2c0.3-1.3,0.6-2.7,0.9-4c0.8-3.2,1.9-6.4,3.2-9.2c0.7-1.6,1.5-3.2,2.2-4.7c1.2-2.7,2.4-5.3,3.5-7.9
			c2.3-5.3,4.2-10.1,5.8-14.4c1.2-3,2.2-5.8,3-8.1c0.9-2.6,1.7-4.7,2.2-6.3c0.7-2.1,1-3.3,1-3.3s-0.6-0.8-1.8-2
			c-3.4-3.4-11.4-9.8-23.7-10.6c-0.2,0-0.4,0-0.6,0c-12.9-0.6-19.1,0.2-24,3.1c-1.5,0.9-3,2-4.5,3.3c-1,0.9-2.1,2.6-3.1,4.8
			c-1.7,3.7-3.5,9-5.2,15.1c-0.2,0.9-0.5,1.8-0.7,2.8c-1.1,4.2-2.2,8.7-3.2,13.3c-0.3,1.3-0.6,2.6-0.9,3.9c-0.4,2-0.8,4-1.2,5.9
			c-1,4.9-1.9,9.7-2.8,13.9c-1.2,6.2-2.1,11.3-2.6,14.5C854.7,163,854.5,164.3,854.5,164.3z M904.3,80.8c1.2,0,2.4,0.1,3.4,0.3
			c4.6,0.6,11.6,4.3,11.4,6c-0.2,1.7-2.8,6.1-9.6,5.1c-2.4-0.4-4.6-1.4-6.6-2.8c-3.8-2.5-6.5-5.8-6.8-6.9
			C895.7,81.2,900.1,80.7,904.3,80.8z"/>
		<path id="XMLID_363_" class="st69" d="M889.7,104c0,0-9,21.7-10.8,39.7l24.3,3.1c0,0,10.9-29.3,13.1-38.5
			C916.2,108.4,896.9,106.4,889.7,104z"/>
		<polygon id="XMLID_362_" class="st92" points="911.5,109.2 914.9,109.5 912.4,111.5 		"/>
	</g>
	<path id="XMLID_352_" class="st91" d="M898.3,82.5c1.8,5.2,8.7,7.6,12.2,7.9c5,0.4,6.5-3.5,6.5-3.5s-4.1-2-3.7-4.3
		c0.2-1.3,0.9-2.6,1.7-3.9c0.4-0.7,0.9-1.3,1.4-1.9l-6.5-14C908.4,68.9,903.9,80.6,898.3,82.5z"/>
	<path id="XMLID_350_" class="st72" d="M909.6,69.3c-3.1,6.8,1.3,11.5,3.7,13.3c0.2-1.3,0.9-2.6,1.7-3.9L909.6,69.3z"/>
	<g id="XMLID_599_">
		<g id="XMLID_616_">
			<path id="XMLID_349_" class="st91" d="M931.6,51.1c0,0,2.1,11.6-3.9,16.2c-6,4.6-6.7-17-6.7-17L931.6,51.1z"/>
			<path id="XMLID_347_" class="st82" d="M931.6,51.1c0,0,2.1,11.6-3.9,16.2c-6,4.6-6.7-17-6.7-17L931.6,51.1z"/>
		</g>
		<path id="XMLID_346_" class="st91" d="M910,77c3.1,4.2,8,5.2,12.2,3.7c2.7-0.9,5.1-2.9,6.5-5.6c0.2-0.4,0.4-0.7,0.5-1.1
			c2.8-7.2,3.5-24.7-4.2-24.1c-6.3,0.5-12.4-1.4-15.6,4c-0.9,1.5-1.5,3.3-1.6,5.1C907.2,67.3,906.4,72.2,910,77z"/>
		<path id="XMLID_329_" class="st66" d="M920.1,63.1c-0.1,0.7,0.2,1.3,0.6,1.3c0.4,0.1,0.9-0.4,1-1.1c0.1-0.7-0.2-1.3-0.6-1.3
			C920.6,61.9,920.2,62.4,920.1,63.1z"/>
		<path id="XMLID_326_" class="st66" d="M927.7,64.2c-0.1,0.7,0.2,1.3,0.6,1.3c0.4,0.1,0.9-0.4,1-1.1c0.1-0.7-0.2-1.3-0.6-1.3
			C928.3,63,927.8,63.5,927.7,64.2z"/>
		<path id="XMLID_325_" class="st93" d="M925.3,64.2c0.5,2.2,1.3,4.3,2.4,6.2c-1,0.5-2.2,0.6-3.3,0.1L925.3,64.2z"/>
		<path id="XMLID_317_" class="st66" d="M918.1,60.3c0.1,0,0.3,0,0.4-0.1c0.7-0.7,1.7-1.1,2.7-1c0.2,0,0.4-0.1,0.5-0.3
			c0-0.2-0.1-0.4-0.3-0.5c0,0,0,0,0,0c-1.3-0.2-2.6,0.2-3.4,1.2c-0.2,0.1-0.2,0.4,0,0.6c0,0,0,0,0,0C918,60.2,918,60.3,918.1,60.3z"
			/>
		<path id="XMLID_316_" class="st66" d="M931.4,62c0.1,0,0.2,0.1,0.2,0c0.2-0.1,0.3-0.3,0.3-0.5c0,0,0,0,0,0
			c-0.4-1.2-1.3-2.2-2.5-2.6c-0.2-0.1-0.4,0.1-0.5,0.3l0,0c-0.1,0.2,0.1,0.4,0.3,0.5l0,0c1,0.4,1.7,1.1,2,2.1
			C931.1,61.9,931.2,62,931.4,62z"/>
		<path id="XMLID_315_" class="st88" d="M919,70.8c0,0,1.4,3,4.3,2.9"/>
		<g id="XMLID_606_">
			<path id="XMLID_304_" class="st91" d="M915.4,49.6l0.1,3.7c-1.3,0.5-2.1,1.8-1.7,3.3c0.9,3.2-1.3,7.8-3.8,9.5
				c0,0,0.1-1.3-1.1-1.1c-1.2,0.2-1.5,7.2,0.4,10.7c0,0-4-3.7-5.2-11.2c-1.1-6.9-0.9-11.3,0.1-14.6L915.4,49.6z"/>
			<path id="XMLID_302_" class="st82" d="M915.4,49.6l0.1,3.7c-1.3,0.5-2.1,1.8-1.7,3.3c0.9,3.2-1.3,7.8-3.8,9.5
				c0,0,0.1-1.3-1.1-1.1c-1.2,0.2-1.5,7.2,0.4,10.7c0,0-4-3.7-5.2-11.2c-1.1-6.9-0.9-11.3,0.1-14.6L915.4,49.6z"/>
		</g>
		<path id="XMLID_301_" class="st66" d="M903.4,54c0,0,4.7,0.7,12.1-0.7c11.5-2.3,16.4,1.9,16.4,1.9s2.7-2.3,2.4-5.6
			s-4.9-3.9-4.9-3.9s-1.4-3.7-4.4-4.8c-3-1.1-6.1,1.7-6.1,1.7s-3.8-3.7-8.2-2.6c-5.4,1.3-5.3,6.4-5.3,6.4s-5.2,0.5-5.1,3.2
			C900.4,52.2,903.4,54,903.4,54z"/>
		<ellipse id="XMLID_299_" class="st88" cx="921" cy="63.7" rx="3.7" ry="4.3"/>
		<ellipse id="XMLID_298_" class="st88" cx="930.3" cy="64.3" rx="3.7" ry="4.3"/>
		<path id="XMLID_294_" class="st88" d="M924.7,64.2c0,0,1.2-0.8,1.9,0.1"/>
		<path id="XMLID_289_" class="st88" d="M917.3,63.7l-6.5-0.9c-0.9-0.1-1.7,0.1-2.4,0.6l-0.3,0.2"/>
		<path id="XMLID_274_" class="st91" d="M903.3,65.3c0.7,2,2.1,3.7,3.9,4.6c2.5,1.2,4.3-0.9,4-3.5c-0.2-2.3-1.8-5.9-4.5-6
			C904,60.3,902.5,62.8,903.3,65.3z"/>
	</g>
	<path id="XMLID_270_" class="st72" d="M861.7,126.5c10.7-4.5,19.2-22.9,19.2-22.9l-6.1-3.7l-8.3,6.7c-0.2,0.9-0.5,1.8-0.7,2.8
		c-1.1,4.2-2.2,8.7-3.2,13.3C862.3,123.9,862,125.2,861.7,126.5z"/>
	<polygon id="XMLID_267_" class="st69" points="920.9,128.4 939.4,121.6 940,123.2 921.4,129.8 	"/>
	<g id="XMLID_257_">
		
			<rect id="XMLID_244_" x="816.1" y="170.8" transform="matrix(0.9877 0.1567 -0.1567 0.9877 39.8037 -129.801)" class="st63" width="54.4" height="33.6"/>
		<g id="XMLID_258_">
			<polyline id="XMLID_241_" class="st94" points="838.1,179.4 827.2,185.1 835.8,193.8 			"/>
			<polyline id="XMLID_240_" class="st94" points="848.6,195.8 859.5,190.2 850.9,181.4 			"/>
			<line id="XMLID_236_" class="st94" x1="839.6" y1="194.4" x2="847.1" y2="180.8"/>
		</g>
	</g>
	<path id="XMLID_233_" class="st91" d="M868.4,89.6c0,0-20.2,20.3-23,24.3c-2.8,4-8,47.8-8,47.8s-1.1,0.4-1.2,1.3
		c-0.1,0.9-0.2,13.2,0,13.8c0.2,0.6,9.5,6.3,10.9,5c1.4-1.4,3.3-15.3,3.3-15.3l-4.9-4.8c0,0,5.7-32.3,9.3-37.5
		c3.6-5.2,18.3-16.4,18.3-16.4L868.4,89.6z"/>
	<g id="XMLID_251_">
		<path id="XMLID_29_" class="st69" d="M884,81.4c3,6.3,0.7,19.4-4.7,24.1c-8.2,7-18.2,13.1-18.2,13.1l-9.9-13
			c0,0,10.6-10.3,17-16.3C875.8,82,884,81.4,884,81.4z"/>
		<path id="XMLID_28_" class="st92" d="M884,81.4c3,6.3,0.7,19.4-4.7,24.1c-8.2,7-18.2,13.1-18.2,13.1l-9.9-13
			c0,0,10.6-10.3,17-16.3C875.8,82,884,81.4,884,81.4z"/>
	</g>
	<polygon id="XMLID_27_" class="st69" points="851.1,104.7 849.9,106.3 860.2,119.9 861.7,118.8 	"/>
</g>
<g id="XMLID_607_">
	<path id="XMLID_615_" class="st1" d="M32.6,65.6v7.2l3.7,0.3c0.5,2.4,1.4,4.6,2.7,6.6l-2.4,2.9l5.1,5.1l2.9-2.4
		c2,1.3,4.2,2.2,6.6,2.7l0.3,3.7h7.2L59,88c2.4-0.5,4.6-1.4,6.6-2.7l2.9,2.4l5.1-5.1l-2.4-2.9c1.3-2,2.2-4.2,2.7-6.6l3.7-0.3v-7.2
		l-3.7-0.3c-0.5-2.4-1.4-4.6-2.7-6.6l2.4-2.9l-5.1-5.1l-2.9,2.4c-2-1.3-4.2-2.2-6.6-2.7l-0.3-3.7h-7.2l-0.3,3.7
		c-2.4,0.5-4.6,1.4-6.6,2.7l-2.9-2.4l-5.1,5.1l2.4,2.9c-1.3,2-2.2,4.2-2.7,6.6L32.6,65.6z M55.1,59.5c5.3,0,9.7,4.3,9.7,9.7
		c0,5.3-4.3,9.7-9.7,9.7c-5.3,0-9.7-4.3-9.7-9.7C45.4,63.8,49.8,59.5,55.1,59.5z"/>
	<path id="XMLID_612_" class="st1" d="M37.2,117.8c1.9-0.4,3.6-1.1,5.2-2.2l2.2,1.9l4-4l-1.9-2.2c1-1.6,1.8-3.3,2.2-5.2l2.9-0.3
		v-5.6l-2.9-0.3c-0.4-1.9-1.1-3.6-2.2-5.2l1.9-2.2l-4-4l-2.2,1.9c-1.6-1-3.3-1.8-5.2-2.2L37,85.4h-5.6l-0.3,2.9
		c-1.9,0.4-3.6,1.1-5.2,2.2l-2.2-1.9l-4,4l1.9,2.2c-1,1.6-1.8,3.3-2.2,5.2l-2.9,0.3v5.6l2.9,0.3c0.4,1.9,1.1,3.6,2.2,5.2l-1.9,2.2
		l4,4l2.2-1.9c1.6,1,3.3,1.8,5.2,2.2l0.3,2.9H37L37.2,117.8z M26.6,103c0-4.2,3.4-7.6,7.6-7.6c4.2,0,7.6,3.4,7.6,7.6
		c0,4.2-3.4,7.6-7.6,7.6C30,110.6,26.6,107.2,26.6,103z"/>
	<path id="XMLID_608_" class="st1" d="M24.7,87.5l1.9,1.6l3.3-3.3l-1.6-1.9c0.9-1.3,1.5-2.8,1.8-4.3l2.4-0.2v-4.7l-2.4-0.2
		c-0.3-1.6-1-3-1.8-4.3l1.6-1.9l-3.3-3.3l-1.9,1.6c-1.3-0.9-2.8-1.5-4.3-1.8l-0.2-2.4l-4.7,0l-0.2,2.4c-1.6,0.3-3,1-4.3,1.8L9,64.7
		l-3.3,3.3l1.6,1.9c-0.9,1.3-1.5,2.8-1.8,4.3L3,74.5v4.7l2.4,0.2c0.3,1.6,1,3,1.8,4.3l-1.6,1.9L9,89l1.9-1.6
		c1.3,0.9,2.8,1.5,4.3,1.8l0.2,2.4h4.7l0.2-2.4C22,88.9,23.4,88.3,24.7,87.5z M11.4,76.9c0-3.5,2.9-6.4,6.4-6.4
		c3.5,0,6.4,2.9,6.4,6.4c0,3.5-2.9,6.4-6.4,6.4C14.3,83.2,11.4,80.4,11.4,76.9z"/>
</g>
<g id="XMLID_64_">
	<g id="XMLID_357_">
		<rect id="XMLID_594_" x="4.9" y="210.9" class="st1" width="66.8" height="43.5"/>
	</g>
	<rect id="XMLID_313_" x="7.4" y="219.1" class="st7" width="61.9" height="33.1"/>
	<g id="XMLID_67_">
		<rect id="XMLID_312_" x="12.4" y="224" class="st1" width="45.8" height="1.4"/>
		<rect id="XMLID_311_" x="12.4" y="228.4" class="st1" width="22" height="1.4"/>
		<rect id="XMLID_305_" x="12.4" y="232.8" class="st1" width="27.7" height="1.4"/>
		<rect id="XMLID_295_" x="12.4" y="237.2" class="st1" width="9.8" height="1.4"/>
		<rect id="XMLID_292_" x="12.4" y="241.5" class="st1" width="6.3" height="1.4"/>
	</g>
</g>
</svg>
