<?xml version="1.0" encoding="utf-8"?>
<!-- Generator: Adobe Illustrator 19.0.0, SVG Export Plug-In . SVG Version: 6.00 Build 0)  -->
<svg version="1.1" id="Layer_1" xmlns="http://www.w3.org/2000/svg" xmlns:xlink="http://www.w3.org/1999/xlink" x="0px" y="0px"
	 viewBox="0 0 1342 366" style="enable-background:new 0 0 1342 366;" xml:space="preserve">
<style type="text/css">
	.st0{fill:url(#XMLID_179_);}
	.st1{fill:url(#XMLID_180_);}
	.st2{fill:#98B1DC;}
	.st3{fill:#FFFFFF;}
	.st4{fill:#C0CFEB;}
	.st5{fill:url(#XMLID_182_);}
	.st6{fill:url(#XMLID_184_);}
	.st7{fill:url(#XMLID_186_);}
	.st8{opacity:0.44;fill:#FFFFFF;}
	.st9{opacity:0.43;fill:#FFFFFF;}
	.st10{opacity:0.46;fill:#FFFFFF;}
	.st11{opacity:0.38;fill:#FFFFFF;}
	.st12{opacity:0.42;fill:#FFFFFF;}
	.st13{opacity:0.58;fill:#FFFFFF;}
	.st14{opacity:0.28;fill:#FFFFFF;}
	.st15{opacity:0.47;fill:#FFFFFF;}
	.st16{fill:#F2BA1B;}
	.st17{opacity:0.69;fill:#FFFFFF;}
	.st18{fill:url(#XMLID_187_);}
	.st19{fill:url(#XMLID_188_);}
	.st20{fill:url(#XMLID_189_);}
	.st21{fill:url(#XMLID_190_);}
	.st22{fill:url(#XMLID_191_);}
	.st23{fill:url(#XMLID_192_);}
	.st24{fill:url(#XMLID_193_);}
	.st25{fill:url(#XMLID_194_);}
	.st26{fill:url(#XMLID_195_);}
	.st27{fill:url(#XMLID_196_);}
	.st28{fill:url(#XMLID_197_);}
	.st29{fill:url(#XMLID_198_);}
	.st30{fill:url(#XMLID_199_);}
	.st31{fill:url(#XMLID_200_);}
	.st32{opacity:0.76;fill:#FFFFFF;}
	.st33{fill:url(#XMLID_201_);}
	.st34{fill:#8193CA;}
	.st35{fill:url(#XMLID_202_);}
	.st36{fill:url(#XMLID_203_);}
	.st37{fill:url(#XMLID_205_);}
	.st38{fill:url(#XMLID_207_);}
	.st39{fill:url(#XMLID_208_);}
	.st40{fill:url(#XMLID_209_);}
	.st41{fill:url(#XMLID_210_);}
	.st42{fill:url(#XMLID_211_);}
	.st43{fill:url(#XMLID_212_);}
	.st44{fill:url(#XMLID_213_);}
	.st45{fill:url(#XMLID_214_);}
	.st46{fill:url(#XMLID_215_);}
	.st47{fill:url(#XMLID_216_);}
	.st48{fill:url(#XMLID_217_);}
	.st49{opacity:0.64;}
	.st50{fill:url(#XMLID_218_);}
	.st51{fill:url(#XMLID_219_);}
	.st52{fill:url(#XMLID_220_);}
	.st53{fill:url(#XMLID_221_);}
	.st54{fill:url(#XMLID_222_);}
	.st55{fill:url(#XMLID_223_);}
	.st56{fill:url(#XMLID_224_);}
	.st57{fill:url(#XMLID_227_);}
	.st58{fill:url(#XMLID_229_);}
	.st59{fill:url(#XMLID_230_);}
	.st60{fill:url(#XMLID_232_);}
	.st61{fill:url(#XMLID_234_);}
	.st62{fill:url(#XMLID_236_);}
	.st63{fill:url(#XMLID_237_);}
</style>
<g id="XMLID_1_">
	<linearGradient id="XMLID_179_" gradientUnits="userSpaceOnUse" x1="1377.4858" y1="463.4514" x2="1062.5947" y2="72.3764">
		<stop  offset="0" style="stop-color:#DBE2F3"/>
		<stop  offset="1" style="stop-color:#EAEFF8"/>
	</linearGradient>
	<path id="XMLID_172_" class="st0" d="M1290.9,309.2c-7.2,7.6-14.1,12.5-19.5,16.4c-63.6,45.6-138.8,32.3-154.8,29.1
		c-23.6-4.8-69.2-14.1-102.2-52.9c-49.9-58.7-42.1-151.1-3.4-212.2c7.1-11.2,44.5-73.1,120.5-83.1c46-6,99.6,6.1,138.5,38.7
		C1351.5,113.6,1345.7,251.5,1290.9,309.2z"/>
	<linearGradient id="XMLID_180_" gradientUnits="userSpaceOnUse" x1="409.5119" y1="464.3905" x2="94.6207" y2="73.3155">
		<stop  offset="0" style="stop-color:#DBE2F3"/>
		<stop  offset="1" style="stop-color:#EAEFF8"/>
	</linearGradient>
	<path id="XMLID_173_" class="st1" d="M322.9,310.2c-7.2,7.6-14.1,12.5-19.5,16.4c-63.6,45.6-138.8,32.3-154.8,29.1
		c-23.6-4.8-69.2-14.1-102.2-52.9C-3.5,244.1,4.3,151.6,43,90.6c7.1-11.2,44.5-73.1,120.5-83.1c46-6,99.6,6.1,138.5,38.7
		C383.5,114.5,377.7,252.5,322.9,310.2z"/>
	<g id="XMLID_392_">
		<path id="XMLID_171_" class="st2" d="M18.2,17.1c-0.6-2.5,2.9-4.1,5-2.4c21.5,17.4,73.2,69.7,60.3,161
			C67.3,290.3,95,332.1,129.4,357.6c0,0-47.2-12-77-54.4C-20.6,199,28.4,60.8,18.2,17.1z"/>
		<path id="XMLID_170_" class="st3" d="M34.5,52.9c2.7,12.8,5.1,25.5,6.9,38.4c1.9,12.8,3.4,25.7,4.4,38.6c1,12.9,1.6,25.8,1.7,38.8
			c0.1,12.9-0.4,25.8-1,38.8c-0.5,13-1.1,26-0.2,39.2c0.9,13.1,3.7,26.4,9.2,38.8c1.4,3.1,2.8,6.2,4.4,9.2c1.6,3,3.3,6,5.1,8.9
			c3.6,5.8,7.7,11.4,12.2,16.8c9.1,10.7,20.1,20.1,32.1,28.1c1.3,0.8,3.1,0.6,4.1-0.5c1-1.1,0.7-2.6-0.5-3.5l0,0
			c-2.9-2-5.7-4.1-8.4-6.2c-1.4-1.1-2.7-2.2-4.1-3.2c-1.3-1.1-2.7-2.2-3.9-3.4c-5.1-4.6-9.9-9.4-14.2-14.6
			c-8.7-10.3-15.6-21.7-20.9-33.5c-2.6-5.9-4.6-12.1-6.1-18.3c-1.5-6.2-2.4-12.5-2.9-18.9c-1-12.8-0.6-25.7-0.2-38.6
			c0.4-13,0.7-26,0.3-39c-0.2-6.5-0.4-13-0.9-19.5c-0.2-3.3-0.5-6.5-0.7-9.7c-0.3-3.2-0.6-6.5-0.9-9.7c-1.4-13-3.3-25.9-5.6-38.7
			c-2.4-12.8-5.2-25.6-8.5-38.3c-0.1-0.4-0.5-0.6-0.9-0.5C34.7,52.2,34.5,52.5,34.5,52.9z"/>
	</g>
	<g id="XMLID_388_">
		<g id="XMLID_389_">
			<path id="XMLID_169_" class="st4" d="M73.9,300c-2.6,2.8-7.3,2-8.9-1.5c-8.8-19.3-28.6-76.2,4.2-141.8
				c27.6-55.4,37.4-88,40.8-103.1c0.7-3.2,5.1-3.6,6.4-0.6C131,86,169.5,198.5,73.9,300z"/>
			<path id="XMLID_168_" class="st3" d="M69.1,297.9c-0.1,0-0.2,0-0.3,0c-0.8,0-1.5-0.7-1.5-1.5c0-0.9,1.8-94.9,36.8-173.6
				c0.3-0.8,1.2-1.1,2-0.8c0.8,0.3,1.1,1.2,0.8,2c-34.7,78.1-36.5,171.5-36.5,172.4C70.3,297.2,69.8,297.8,69.1,297.9z"/>
		</g>
	</g>
	<g id="XMLID_380_">
		<linearGradient id="XMLID_182_" gradientUnits="userSpaceOnUse" x1="974.6723" y1="245.7479" x2="974.6723" y2="433.1088">
			<stop  offset="0" style="stop-color:#201B59"/>
			<stop  offset="1" style="stop-color:#2D2D84"/>
		</linearGradient>
		<polygon id="XMLID_167_" class="st5" points="930.2,254.1 920.9,337.2 1028.4,337.2 1014.4,254.1 		"/>
		<linearGradient id="XMLID_184_" gradientUnits="userSpaceOnUse" x1="961.6832" y1="-55.0929" x2="964.8061" y2="266.5425">
			<stop  offset="0" style="stop-color:#201B59"/>
			<stop  offset="1" style="stop-color:#2D2D84"/>
		</linearGradient>
		<path id="XMLID_166_" class="st6" d="M749.6,49.4v190.3c0,15.7,12.5,28.5,28.1,28.9c69.5,1.8,312.7,6.1,378.9,5.2
			c11.4-0.2,20.6-9.3,20.9-20.6c1.3-44.2,3.3-150.5-4.3-199.9c-1.6-10.4-10.4-18.2-20.9-18.5c-58.3-1.9-316-7.8-382.2-6.3
			C758.7,28.6,749.6,37.9,749.6,49.4z"/>
		<path id="XMLID_165_" class="st2" d="M761.5,48.4v180.8c0,9.1,7.3,16.6,16.5,16.7l369,4.6c9.1,0.1,16.5-7.2,16.5-16.2l0.6-179.2
			c0-6.5-5.1-11.8-11.6-11.9l-377.8-7.6C767.5,35.4,761.5,41.2,761.5,48.4z"/>
		<path id="XMLID_164_" class="st2" d="M1166.4,258C1166.3,258,1166.3,258,1166.4,258l-404.8-6.9c-0.3,0-0.6-0.3-0.6-0.6
			c0-0.3,0.3-0.6,0.6-0.6l404.8,6.9c0.3,0,0.6,0.3,0.6,0.6C1166.9,257.8,1166.7,258,1166.4,258z"/>
		<linearGradient id="XMLID_186_" gradientUnits="userSpaceOnUse" x1="985.9451" y1="192.5359" x2="972.4136" y2="354.9147">
			<stop  offset="0" style="stop-color:#201B59"/>
			<stop  offset="1" style="stop-color:#2D2D84"/>
		</linearGradient>
		<path id="XMLID_163_" class="st7" d="M1051.6,354.2H894.2c-4.3,0-7.5-3-6.7-6.3l2-8c0.6-2.4,3.2-4.2,6.4-4.3l151.7-4.7
			c3.3-0.1,6.2,1.6,6.9,4.1l3.6,12.7C1059.2,351.1,1055.9,354.2,1051.6,354.2z"/>
		<path id="XMLID_162_" class="st2" d="M978.9,337.9c-0.3,0-0.6-0.2-0.6-0.6c0-0.3,0.2-0.6,0.6-0.6l6.5-0.1h0c0.3,0,0.6,0.2,0.6,0.6
			c0,0.3-0.2,0.6-0.6,0.6L978.9,337.9C978.9,337.9,978.9,337.9,978.9,337.9z"/>
		<path id="XMLID_161_" class="st2" d="M893.4,349.9C893.4,349.9,893.3,349.9,893.4,349.9c-0.4-0.1-0.6-0.3-0.6-0.7l0.9-5.8
			c0.5-3.1,3.2-5.5,6.4-5.5l68.9-1c0.3,0,0.6,0.2,0.6,0.6c0,0.3-0.2,0.6-0.6,0.6l-68.9,1c-2.6,0-4.8,2-5.3,4.6l-0.9,5.8
			C893.9,349.7,893.7,349.9,893.4,349.9z"/>
	</g>
	<g id="XMLID_371_">
		<path id="XMLID_160_" class="st8" d="M1081.9,105.1h-39.3c-2.5,0-4.5-2-4.5-4.5s2-4.5,4.5-4.5h39.3c2.5,0,4.5,2,4.5,4.5
			S1084.4,105.1,1081.9,105.1z"/>
		<path id="XMLID_159_" class="st9" d="M1096.4,98.1h42.4c2.7,0,4.8,7.9,4.8,17.7v104.4c0,9.8-2.2,17.7-4.8,17.7h-42.4
			c-2.7,0-4.8-7.9-4.8-17.7V115.8C1091.6,106,1093.7,98.1,1096.4,98.1z"/>
		<path id="XMLID_158_" class="st10" d="M1042.6,110.1h39.3c2.5,0,4.5,2,4.5,4.5v26.3c0,2.5-2,4.5-4.5,4.5h-39.3
			c-2.5,0-4.5-2-4.5-4.5v-26.3C1038.1,112.1,1040.1,110.1,1042.6,110.1z"/>
		<path id="XMLID_157_" class="st11" d="M1042.6,153.2h39.3c2.5,0,4.5,4.8,4.5,10.8v63.4c0,5.9-2,10.8-4.5,10.8h-39.3
			c-2.5,0-4.5-4.8-4.5-10.8V164C1038.1,158,1040.1,153.2,1042.6,153.2z"/>
		<path id="XMLID_156_" class="st12" d="M1143.2,90.6H790.9c-4.1,0-7.4-3.3-7.4-7.4V53.9c0-4.2,3.4-7.5,7.6-7.4l352.2,8.9
			c4,0.1,7.2,3.4,7.2,7.4v20.5C1150.5,87.3,1147.2,90.6,1143.2,90.6z"/>
		<path id="XMLID_3_" class="st13" d="M994.2,211.4h-56.5c-20.2,0-36.5-16.3-36.5-36.5v-39c0-20.2,16.3-36.5,36.5-36.5h56.5
			c20.2,0,36.5,16.3,36.5,36.5v39C1030.7,195.1,1014.4,211.4,994.2,211.4z"/>
		<path id="XMLID_155_" class="st14" d="M1030.4,240l-244-2.1c-3,0-5.3-2.4-5.3-5.4V224c0-4.1,3.3-7.5,7.5-7.5h241.6
			c1.6,0,2.9,1.3,2.9,2.9v18.1C1032.9,238.9,1031.8,240,1030.4,240z"/>
		<path id="XMLID_154_" class="st15" d="M859.3,208.8h-43.9c-19,0-34.4-15.4-34.4-34.4v-43.9c0-19,15.4-34.4,34.4-34.4h43.9
			c19,0,34.4,15.4,34.4,34.4v43.9C893.7,193.4,878.3,208.8,859.3,208.8z"/>
	</g>
	<g id="XMLID_342_">
		<g id="XMLID_363_">
			<g id="XMLID_366_">
				<path id="XMLID_153_" class="st16" d="M501.7,22.1l156-1.4c3.1,0,5.6,2.5,5.5,5.5l-0.7,119.7c0,3.1-2.6,5.5-5.6,5.4
					c-28.2-0.8-153.5-4.6-159-4.3c-5.5,0.2-2.5-96-1.7-119.7C496.4,24.4,498.8,22.1,501.7,22.1z"/>
				<path id="XMLID_367_" class="st17" d="M657.1,146.9L657.1,146.9c-22.4-0.7-135.3-4-156.1-4.3l-0.3,0l0-0.3
					c-2-11-1.9-56.1,0.1-114.7c0-0.5,0.4-0.9,1-0.9l156-1.4c0.3,0,0.6,0.2,0.7,0.3c0.2,0.2,0.3,0.4,0.3,0.7l-0.7,119.7
					C658.1,146.4,657.7,146.9,657.1,146.9z M501.3,141.9c21.5,0.3,133.5,3.6,155.8,4.3l0,0c0.1,0,0.3-0.1,0.3-0.3l0.7-119.7
					c0-0.1,0-0.1-0.1-0.2c-0.1-0.1-0.1-0.1-0.2-0.1l-156,1.4c-0.2,0-0.3,0.1-0.3,0.3C499.5,85.7,499.4,130.4,501.3,141.9z"/>
			</g>
			<path id="XMLID_150_" class="st3" d="M520.6,131.5h102.3c3.2,0,5.2-3.5,3.5-6.2l-40.5-68.8c-1.7-2.9-5.9-2.7-7.3,0.4l-19.6,42.8
				c-1.2,2.5-4.5,3.2-6.5,1.3l-7.9-7.3c-1.8-1.7-4.7-1.4-6.2,0.7L517.2,125C515.3,127.7,517.2,131.5,520.6,131.5z"/>
			<circle id="XMLID_149_" class="st3" cx="621.5" cy="54.4" r="14.7"/>
		</g>
		<g id="XMLID_343_">
			<g id="XMLID_359_">
				
					<linearGradient id="XMLID_187_" gradientUnits="userSpaceOnUse" x1="727.2973" y1="231.9039" x2="776.478" y2="112.3801" gradientTransform="matrix(0.9998 -1.890000e-002 1.890000e-002 0.9998 -28.1838 -3.2348)">
					<stop  offset="0" style="stop-color:#201B59"/>
					<stop  offset="1" style="stop-color:#2D2D84"/>
				</linearGradient>
				<path id="XMLID_148_" class="st18" d="M755.4,165.5c-3.6-13.3-14.7-24.2-27-26.9c-2.3-0.5-3.6-2.8-3.1-5.1c0,0,0,0,0,0
					c1.8-7.7-3.2-13.9-10.6-15.6c-7.5-1.7-14.6,1.6-16.4,9.3c-1.2,5.2,0.3,11.1,3.8,14.9c1.4,1.6,1.5,3.9,0.2,5.5
					c-7.5,8.8-10.6,22.3-7.3,34.3c4.8,17.7,21.5,25.7,38.2,21.2C749.7,198.5,760.1,183.3,755.4,165.5z"/>
				<path id="XMLID_147_" class="st2" d="M750.2,182.5l-0.3-0.2c3-4.2,3.4-10.4,1-16c-1.9-4.5-5.3-8.5-10.6-12.8
					c-2-1.6-4.1-3.1-6.2-4.6c-2.5-1.8-5-3.6-7.4-5.6c-2.1-1.8-4.4-4-4.8-6.9c-0.2-1.4,0-3,0.2-4.5c0.3-2.3,0.6-4.5-0.7-6.2l0.3-0.2
					c1.5,1.8,1.1,4.2,0.8,6.5c-0.2,1.5-0.4,3-0.2,4.4c0.4,2.8,2.6,4.9,4.7,6.7c2.4,2,4.9,3.8,7.4,5.6c2.1,1.5,4.2,3,6.2,4.6
					c5.4,4.3,8.8,8.5,10.7,13C753.6,171.8,753.2,178.1,750.2,182.5z"/>
				<path id="XMLID_146_" class="st2" d="M742.2,185l-0.4-0.1c2-5.6,1.4-12.6-1.6-19c-3-6.4-8-11.6-12-15.4l0.3-0.3
					c4,3.8,9,9.1,12.1,15.5C743.7,172.3,744.3,179.3,742.2,185z"/>
			</g>
			<linearGradient id="XMLID_188_" gradientUnits="userSpaceOnUse" x1="659.395" y1="94.955" x2="701.7372" y2="190.5611">
				<stop  offset="0" style="stop-color:#F9BABA"/>
				<stop  offset="1" style="stop-color:#F5928F"/>
			</linearGradient>
			<path id="XMLID_145_" class="st19" d="M662,112.2l-0.1-4.6l4.8-9.5c0.9-1.7,0.9-3.8,0-5.5l-5.4-11c0,0-3.1,23.8-4,25.8
				c-0.8,2,2.2,5.5,2.2,5.5L662,112.2z"/>
			<linearGradient id="XMLID_189_" gradientUnits="userSpaceOnUse" x1="660.1473" y1="94.6218" x2="702.4895" y2="190.228">
				<stop  offset="0" style="stop-color:#F9BABA"/>
				<stop  offset="1" style="stop-color:#F5928F"/>
			</linearGradient>
			<path id="XMLID_144_" class="st20" d="M661.9,107.6c0,0,14.6,39.7,39.4,52.2c0,0-8.3,13.5-12.6,14.3c0,0-26.5-34-29.2-61.8
				L661.9,107.6z"/>
			<linearGradient id="XMLID_190_" gradientUnits="userSpaceOnUse" x1="765.7498" y1="287.9897" x2="768.6616" y2="359.8168">
				<stop  offset="0" style="stop-color:#5560AB"/>
				<stop  offset="1" style="stop-color:#4C57A6"/>
			</linearGradient>
			<path id="XMLID_143_" class="st21" d="M761.8,346.7l0.7,6c0.8,2.9,4.5,10.1,9.2,9.6c2.9-0.3,3.3-8.8,2.9-10.1
				c-0.7-2.3-2.1-5.8-4-7.9h-6.7C762.6,344.4,761.7,345.5,761.8,346.7z"/>
			<linearGradient id="XMLID_191_" gradientUnits="userSpaceOnUse" x1="707.3264" y1="400.6414" x2="725.8787" y2="183.8114">
				<stop  offset="0" style="stop-color:#F9BABA"/>
				<stop  offset="1" style="stop-color:#F5928F"/>
			</linearGradient>
			<path id="XMLID_142_" class="st22" d="M709.4,276.1l-1.1,6.6c0,0,3.8,38.3,4.5,53.6c0.1,2.4-0.5,4.8-1.8,6.8l-6.6,10.7l16.7-9.9
				l0.3-2l-2.7-3.8l3.6-42.9c0.2-2.5-0.3-5-1.5-7.3l-3.5-6.5L709.4,276.1z"/>
			<linearGradient id="XMLID_192_" gradientUnits="userSpaceOnUse" x1="716.0404" y1="282.2838" x2="711.6725" y2="361.3907">
				<stop  offset="0" style="stop-color:#5560AB"/>
				<stop  offset="1" style="stop-color:#4C57A6"/>
			</linearGradient>
			<path id="XMLID_141_" class="st23" d="M703.3,355.4h5.3c1,0,1.9-0.5,2.5-1.2c1.7-2.2,5.1-6.4,6.8-6.5c2.2-0.1,1.9,7.7,1.9,7.7
				h1.2l1.6-9.8c0.4-2.5-0.8-4.9-3-6.1l0,0c0,0-0.5,3.7-3.3,5.4c-2.7,1.7-11.2,7.6-11.2,7.6s-1-0.1-2.2,0.1
				C701.4,352.9,701.6,355.4,703.3,355.4z"/>
			<linearGradient id="XMLID_193_" gradientUnits="userSpaceOnUse" x1="744.6454" y1="403.8676" x2="763.2026" y2="186.9807">
				<stop  offset="0" style="stop-color:#F9BABA"/>
				<stop  offset="1" style="stop-color:#F5928F"/>
			</linearGradient>
			<path id="XMLID_140_" class="st24" d="M732.3,279.2c0,0,22.1,42,25.7,51.6c3.5,9.6,4.8,17.6,4.8,18.3c0.1,1.2,1.5,2.3,5.6,2.3
				c2.1,0,3.1-0.8,3.6-1.7c0.4-0.7,0.5-1.6,0.1-2.3c-1.3-2.6-5.3-10.9-6.9-14.6c-1.8-4.5-5.7-24.8-7.8-31.9
				c-2.1-7.1-4.5-14.7-13.8-21.8C743.7,279.2,737.4,273,732.3,279.2z"/>
			<path id="XMLID_139_" class="st16" d="M718.3,210.4c-3.2-13.7,0-24.1,3.4-30.5c2.7-5.1,0.8-11.4-4.3-14.1
				c-8-4.2-16.1-6.1-16.1-6.1s-15.9,11.6-14,20.7c1.1,5.3,11.2,31.9,11.2,31.9S707.8,216.8,718.3,210.4z"/>
			<linearGradient id="XMLID_194_" gradientUnits="userSpaceOnUse" x1="768.6909" y1="182.3978" x2="668.8892" y2="316.9789">
				<stop  offset="0" style="stop-color:#5560AB"/>
				<stop  offset="1" style="stop-color:#4C57A6"/>
			</linearGradient>
			<path id="XMLID_138_" class="st25" d="M731,222.4c-2.3-7-12.7-12-12.7-12c-10.5,6.3-19.8,1.9-19.8,1.9s-2.1,8-0.6,15.4
				c1.4,7.4,10.5,55,10.5,55c14.2,2.9,36.1-2.9,36.1-2.9C735.4,263.7,733.3,229.4,731,222.4z"/>
			<linearGradient id="XMLID_195_" gradientUnits="userSpaceOnUse" x1="705.2919" y1="186.912" x2="708.7769" y2="161.4167">
				<stop  offset="0" style="stop-color:#F9BABA"/>
				<stop  offset="1" style="stop-color:#F5928F"/>
			</linearGradient>
			<path id="XMLID_137_" class="st26" d="M711.7,143.8l4.6,20.9c0.4,1.8-1.2,1.5-3.1,1.2c-3-0.6-7-1.8-8.3-4.1
				c-0.1-0.2-0.2-0.5-0.2-0.8l-2-14.5c-0.2-1.1,0.5-2.3,1.5-2.7l3.8-1.7C709.6,141.4,711.3,142.2,711.7,143.8z"/>
			<linearGradient id="XMLID_196_" gradientUnits="userSpaceOnUse" x1="686.8704" y1="127.299" x2="683.5939" y2="207.9509">
				<stop  offset="0" style="stop-color:#F9BABA"/>
				<stop  offset="1" style="stop-color:#F5928F"/>
			</linearGradient>
			<path id="XMLID_136_" class="st27" d="M653.7,130c0,0,12.2,42.5,61.5,38.5c3.2-0.3,5.9,2.1,6.2,5.2l0.1,1.7
				c0.4,4.6-3.4,8.4-8,8.2c-16.4-0.8-51.6-7.3-63.7-46.2L653.7,130z"/>
			<linearGradient id="XMLID_197_" gradientUnits="userSpaceOnUse" x1="650.2558" y1="126.6048" x2="647.2034" y2="201.7392">
				<stop  offset="0" style="stop-color:#F9BABA"/>
				<stop  offset="1" style="stop-color:#F5928F"/>
			</linearGradient>
			<path id="XMLID_135_" class="st28" d="M649.9,137.4c0,0-2.3-6.9-2.9-11.2c-0.6-4.3,1.6-14,3.4-16.7c1.9-2.7,2.2,4,3,7.1
				c0.8,3.1-0.6,7.6-0.6,7.6l0.9,5.9L649.9,137.4z"/>
			<g id="XMLID_344_">
				
					<linearGradient id="XMLID_198_" gradientUnits="userSpaceOnUse" x1="-7612.7715" y1="1261.9656" x2="-7589.4336" y2="1288.798" gradientTransform="matrix(0.9653 0.2612 -0.2612 0.9653 8379.168 900.2792)">
					<stop  offset="0" style="stop-color:#F9BABA"/>
					<stop  offset="1" style="stop-color:#F5928F"/>
				</linearGradient>
				<path id="XMLID_134_" class="st29" d="M702.2,126.6c0,0-11.7,17.1-4.4,21.9c7.3,4.8,15.7-7.4,15.7-7.4s2.6-9.3-0.4-12.4
					C710.1,125.6,702.2,126.6,702.2,126.6z"/>
				
					<linearGradient id="XMLID_199_" gradientUnits="userSpaceOnUse" x1="702.694" y1="223.1653" x2="752.313" y2="102.5764" gradientTransform="matrix(0.9998 -1.890000e-002 1.890000e-002 0.9998 -28.1838 -3.2348)">
					<stop  offset="0" style="stop-color:#201B59"/>
					<stop  offset="1" style="stop-color:#2D2D84"/>
				</linearGradient>
				<path id="XMLID_133_" class="st30" d="M707.1,122.4c0,0-5.1,1.3-5.8,3.6c-0.7,2.3,7.4,4.3,9.6,4.4l2,9.3c0,0,5.2-8.9,3-14
					C713.7,120.8,707.1,122.4,707.1,122.4z"/>
				
					<linearGradient id="XMLID_200_" gradientUnits="userSpaceOnUse" x1="-7606.9404" y1="1256.8939" x2="-7583.6025" y2="1283.726" gradientTransform="matrix(0.9653 0.2612 -0.2612 0.9653 8379.168 900.2792)">
					<stop  offset="0" style="stop-color:#F9BABA"/>
					<stop  offset="1" style="stop-color:#F5928F"/>
				</linearGradient>
				<path id="XMLID_132_" class="st31" d="M711,139.9c0,0,4.6-5.5,6.5-2c1.9,3.5-4.1,6.3-6.3,4.6L711,139.9z"/>
			</g>
		</g>
	</g>
	<g id="XMLID_328_">
		<g id="XMLID_333_">
			<g id="XMLID_339_">
				<path id="XMLID_131_" class="st2" d="M322.4,289.2l234.6,0v-38.1l-234.6,0C327.5,251.1,327.5,289.2,322.4,289.2z"/>
				<path id="XMLID_130_" class="st16" d="M557.1,279.7v-17.4c0-6.1-4.6-11.1-10.4-11.1H323.4c-4.5,0-8.1-3-8.1-6.6
					c0-1.1,1.1-2,2.5-2h244c5.6,0,14.5,7.1,14.5,15.9v24.4c0,8.3-8.6,15-13.9,15H319c-2.1,0-3.8-1.4-3.8-3c0-3.1,3.1-5.6,6.9-5.6
					h226.1C553.1,289.2,557.1,285,557.1,279.7z"/>
			</g>
			<path id="XMLID_129_" class="st32" d="M550.6,259.8h-220c-0.5,0-0.8-0.4-0.8-0.8c0-0.5,0.4-0.8,0.8-0.8h220
				c0.5,0,0.8,0.4,0.8,0.8C551.4,259.4,551,259.8,550.6,259.8z"/>
			<path id="XMLID_128_" class="st32" d="M550.6,265.4h-220c-0.5,0-0.8-0.4-0.8-0.8c0-0.5,0.4-0.8,0.8-0.8h220
				c0.5,0,0.8,0.4,0.8,0.8C551.4,265.1,551,265.4,550.6,265.4z"/>
			<path id="XMLID_127_" class="st32" d="M550.6,271.1h-220c-0.5,0-0.8-0.4-0.8-0.8c0-0.5,0.4-0.8,0.8-0.8h220
				c0.5,0,0.8,0.4,0.8,0.8C551.4,270.7,551,271.1,550.6,271.1z"/>
			<path id="XMLID_126_" class="st32" d="M550.6,276.7h-220c-0.5,0-0.8-0.4-0.8-0.8c0-0.5,0.4-0.8,0.8-0.8h220
				c0.5,0,0.8,0.4,0.8,0.8C551.4,276.4,551,276.7,550.6,276.7z"/>
			<path id="XMLID_125_" class="st32" d="M550.6,282.4h-220c-0.5,0-0.8-0.4-0.8-0.8c0-0.5,0.4-0.8,0.8-0.8h220
				c0.5,0,0.8,0.4,0.8,0.8C551.4,282,551,282.4,550.6,282.4z"/>
		</g>
		<g id="XMLID_329_">
			<linearGradient id="XMLID_201_" gradientUnits="userSpaceOnUse" x1="438.1326" y1="525.1039" x2="430.8168" y2="375.9738">
				<stop  offset="0" style="stop-color:#5560AB"/>
				<stop  offset="1" style="stop-color:#4C57A6"/>
			</linearGradient>
			<path id="XMLID_124_" class="st33" d="M570.5,362H286.7c-8.1,0-14.7-6.6-14.7-14.7v-34.3c0-8.1,6.6-14.7,14.7-14.7h283.8
				c8.1,0,14.7,6.6,14.7,14.7v34.3C585.1,355.5,578.6,362,570.5,362z"/>
			<path id="XMLID_123_" class="st34" d="M338,354.7h-24.5c-3.4,0-6.1-2.7-6.1-6.1v-36.8c0-3.4,2.7-6.1,6.1-6.1H338
				c3.4,0,6.1,2.7,6.1,6.1v36.8C344.2,352,341.4,354.7,338,354.7z"/>
			<path id="XMLID_122_" class="st34" d="M358.4,354.7h-3.8c-2.8,0-5-2.2-5-5v-39.1c0-2.8,2.2-5,5-5h3.8c2.8,0,5,2.2,5,5v39.1
				C363.4,352.5,361.2,354.7,358.4,354.7z"/>
		</g>
	</g>
	<g id="XMLID_308_">
		<g id="XMLID_310_">
			
				<linearGradient id="XMLID_202_" gradientUnits="userSpaceOnUse" x1="555.0316" y1="-603.4731" x2="525.2653" y2="-542.1182" gradientTransform="matrix(0.987 0.1608 -0.1608 0.987 -157.2659 525.896)">
				<stop  offset="0" style="stop-color:#201B59"/>
				<stop  offset="1" style="stop-color:#2D2D84"/>
			</linearGradient>
			<path id="XMLID_121_" class="st35" d="M430.4,71.1c-0.2,0.3-9.7,7.3-9.7,7.3s2.1,15.1,10.7,21.1c9.4,6.6,22.8-5.4,22.8-5.4
				s10.6,2.5,16.2-19.6c1.3-5.1-6.2-5.5-15.2-4.6C443.6,71.3,430.4,71.1,430.4,71.1z"/>
			<path id="XMLID_120_" class="st16" d="M412.5,122.7c3.7-2.6,7.9-4.5,12.3-5.7c1.6-0.4,10.6,2.1,16.1,2c7.6-0.2,15.2-3.6,21.5-2.1
				c6.2,1.5,11.2,3.6,14.2,5.6c8.7,6.2,13.9,17.8,17,29.3c-5.9,6.1-13.4,8.8-13.4,8.8l-1.4,55.9l-33,16.9L408,214.6l1.4-54.6
				c0,0-12-5.6-12.9-7.6C395.6,150.3,402,130,412.5,122.7z"/>
			<linearGradient id="XMLID_203_" gradientUnits="userSpaceOnUse" x1="388.8571" y1="140.1626" x2="451.6318" y2="291.8004">
				<stop  offset="0" style="stop-color:#F9BABA"/>
				<stop  offset="1" style="stop-color:#F5928F"/>
			</linearGradient>
			<path id="XMLID_119_" class="st36" d="M397.1,152.1c0,0-16,44.5,20.5,62.8c7.6-1,4.7-13.6,4.7-13.6s-15.9-3.5-11.1-40.6
				C406.8,157,397.1,152.1,397.1,152.1z"/>
			
				<linearGradient id="XMLID_205_" gradientUnits="userSpaceOnUse" x1="-7035.2163" y1="139.8366" x2="-6972.4414" y2="291.4744" gradientTransform="matrix(-1 0 0 1 -6535.0742 0)">
				<stop  offset="0" style="stop-color:#F9BABA"/>
				<stop  offset="1" style="stop-color:#F5928F"/>
			</linearGradient>
			<path id="XMLID_118_" class="st37" d="M492.7,152.1c0,0,11,46.4-20.5,62.8c-7.6-1-4.7-13.6-4.7-13.6s12.8-6.3,11.1-40.6
				C483,157,492.7,152.1,492.7,152.1z"/>
			<linearGradient id="XMLID_207_" gradientUnits="userSpaceOnUse" x1="444.6129" y1="159.9635" x2="441.3694" y2="291.3264">
				<stop  offset="0" style="stop-color:#201B59"/>
				<stop  offset="1" style="stop-color:#2D2D84"/>
			</linearGradient>
			<path id="XMLID_117_" class="st38" d="M471.7,218h-55.8c-4.6,0-8.3-3.8-8.3-8.3v-32.3c0-4.6,3.8-8.3,8.3-8.3h55.8
				c4.6,0,8.3,3.8,8.3,8.3v32.3C480,214.3,476.3,218,471.7,218z"/>
			<g id="XMLID_320_">
				
					<linearGradient id="XMLID_208_" gradientUnits="userSpaceOnUse" x1="487.2583" y1="209.5979" x2="521.5625" y2="209.5979" gradientTransform="matrix(1 7.700000e-003 -7.700000e-003 1 -3.3497 25.9305)">
					<stop  offset="0" style="stop-color:#201B59"/>
					<stop  offset="1" style="stop-color:#2D2D84"/>
				</linearGradient>
				<path id="XMLID_116_" class="st39" d="M511.8,232.5c-8.3-1.9-27.5-0.9-27.5-0.9l-0.8,2.1l-1.3,10.5c0,0,18.2,3.3,27.2,3.3
					c0.9,0,1.8-0.1,2.5-0.4c0.3-0.2,0.5-0.5,0.8-0.8C516.6,242.2,515.5,236.1,511.8,232.5z"/>
				<linearGradient id="XMLID_209_" gradientUnits="userSpaceOnUse" x1="504.9367" y1="177.4284" x2="468.7262" y2="275.5084">
					<stop  offset="0" style="stop-color:#F9BABA"/>
					<stop  offset="1" style="stop-color:#F5928F"/>
				</linearGradient>
				<path id="XMLID_115_" class="st40" d="M478.8,231l3.2,0.1c1.7,0.1,3.4,0.9,4.6,2.4c1.2,1.4,1.8,3.3,1.7,5.3
					c-0.1,1.5-0.7,3-1.8,4c-1,1-2.4,1.5-3.8,1.4l-5-0.4L478.8,231z"/>
			</g>
			<g id="XMLID_317_">
				
					<linearGradient id="XMLID_210_" gradientUnits="userSpaceOnUse" x1="-7618.9961" y1="161.6174" x2="-7584.6772" y2="161.6174" gradientTransform="matrix(-0.9998 -2.000000e-002 -2.000000e-002 0.9998 -7215.1992 -74.854)">
					<stop  offset="0" style="stop-color:#201B59"/>
					<stop  offset="1" style="stop-color:#2D2D84"/>
				</linearGradient>
				<path id="XMLID_114_" class="st41" d="M369.7,231.5c8.3-1.6,27.5,0,27.5,0l0.7,2.1l1,10.5c0,0-18.3,2.7-27.3,2.4
					c-0.9,0-1.8-0.2-2.5-0.5c-0.3-0.3-0.5-0.5-0.8-0.8C364.6,241,365.9,234.9,369.7,231.5z"/>
				<linearGradient id="XMLID_211_" gradientUnits="userSpaceOnUse" x1="432.3883" y1="147.8719" x2="396.1588" y2="246.0035">
					<stop  offset="0" style="stop-color:#F9BABA"/>
					<stop  offset="1" style="stop-color:#F5928F"/>
				</linearGradient>
				<path id="XMLID_113_" class="st42" d="M402.7,231l-3.2,0c-1.7,0-3.4,0.8-4.6,2.2c-1.2,1.4-1.9,3.3-1.8,5.2c0,1.5,0.6,3,1.7,4.1
					c1,1.1,2.4,1.6,3.8,1.6l5-0.2L402.7,231z"/>
			</g>
			<linearGradient id="XMLID_212_" gradientUnits="userSpaceOnUse" x1="520.2847" y1="175.5352" x2="426.1508" y2="246.2482">
				<stop  offset="0" style="stop-color:#5560AB"/>
				<stop  offset="1" style="stop-color:#4C57A6"/>
			</linearGradient>
			<path id="XMLID_112_" class="st43" d="M514.1,199.6c-3.8-8.7-13-10.1-20.8-6c-0.1,0.2-49.7,25.6-93.4,36.7c1.3,4,1.9,8.3,2,12.5
				c0,0.9,0,1.9,0,2.8c33.5-1.7,69.9-12.9,101.2-22.7C512.7,219.7,518.3,209.2,514.1,199.6z"/>
			<linearGradient id="XMLID_213_" gradientUnits="userSpaceOnUse" x1="435.1588" y1="238.9578" x2="410.4876" y2="176.0463">
				<stop  offset="0" style="stop-color:#5560AB"/>
				<stop  offset="1" style="stop-color:#4C57A6"/>
			</linearGradient>
			<path id="XMLID_111_" class="st44" d="M479.1,243.5c-0.1-4.8,0.8-9.3,2.8-13.5c0.1-0.2,0.1-0.4,0.2-0.6c-2.5-0.8-5.7-1.8-10-3.3
				c-31-10.6-54.7-21.3-77.3-33.7c-8.8-4.8-18.8-1.6-21.6,8.8c-2.5,9.3,3,17.2,11.4,20c25,8.3,12,6,20.2,8.6
				c21.9,6.8,49.2,13,74.4,14.7C479.1,244.2,479.1,243.8,479.1,243.5z"/>
			<linearGradient id="XMLID_214_" gradientUnits="userSpaceOnUse" x1="443.9643" y1="152.6829" x2="443.1291" y2="80.0103">
				<stop  offset="0" style="stop-color:#F9BABA"/>
				<stop  offset="1" style="stop-color:#F5928F"/>
			</linearGradient>
			<path id="XMLID_110_" class="st45" d="M424.8,117c0,0,3.3,14.5,19.5,14.2c16.5-0.3,18-14.2,18-14.2l-10.8-2.3l-0.9-12l-16.2,1.2
				l-0.3,11.4L424.8,117z"/>
			
				<linearGradient id="XMLID_215_" gradientUnits="userSpaceOnUse" x1="524.5111" y1="-504.4526" x2="527.113" y2="-567.6904" gradientTransform="matrix(0.987 0.1608 -0.1608 0.987 -157.2659 525.896)">
				<stop  offset="0" style="stop-color:#F9BABA"/>
				<stop  offset="1" style="stop-color:#F5928F"/>
			</linearGradient>
			<path id="XMLID_109_" class="st46" d="M436.7,68.6c0,0-18.6,36,3.5,44.7c15.6,6.2,25.3-23.9,22.4-32.1
				c-4.5-12.6-7.5-11.1-7.5-11.1L436.7,68.6z"/>
			
				<linearGradient id="XMLID_216_" gradientUnits="userSpaceOnUse" x1="555.2496" y1="-612.1082" x2="521.7561" y2="-543.0706" gradientTransform="matrix(0.987 0.1608 -0.1608 0.987 -157.2659 525.896)">
				<stop  offset="0" style="stop-color:#201B59"/>
				<stop  offset="1" style="stop-color:#2D2D84"/>
			</linearGradient>
			<path id="XMLID_108_" class="st47" d="M467,65.3c9.2,2.5,1.3,22.4-12.5,17.7c-13.8-4.7-19.3-4.6-21.4-0.8
				c-2.2,3.8-2.6,17.3-7.3,10.6c-5.1-7.3-8-22-1.7-26.7c5.6-4.2,6.9-10.8,13.7-10.5c8.9,0.3,15.9-3.7,19.9-0.8
				C462.3,58.1,460.3,63.5,467,65.3z"/>
			
				<linearGradient id="XMLID_217_" gradientUnits="userSpaceOnUse" x1="177.6078" y1="537.4608" x2="181.6853" y2="438.3617" gradientTransform="matrix(0.9911 -0.1329 0.1329 0.9911 185.6458 -388.4965)">
				<stop  offset="0" style="stop-color:#F9BABA"/>
				<stop  offset="1" style="stop-color:#F5928F"/>
			</linearGradient>
			<path id="XMLID_107_" class="st48" d="M432.3,85.3c0,0-4-4.3-4.6,0.9c-0.6,5.1,1.4,11.8,3.8,8.1
				C433.8,90.7,432.3,85.3,432.3,85.3z"/>
		</g>
		<path id="XMLID_106_" class="st2" d="M448.1,189.7c0.4,2.6-1,5-3.6,5.3c-2.6,0.4-5-1.4-5.4-4c-0.4-2.6,0.8-5.2,3.4-5.6
			C445.1,185.1,447.7,187.1,448.1,189.7z"/>
	</g>
	<g id="XMLID_293_">
		<circle id="XMLID_105_" class="st3" cx="837.3" cy="155.4" r="43.6"/>
		<g id="XMLID_294_">
			<path id="XMLID_305_" class="st2" d="M801.4,153.3l9.2-4.8v2c0,0.2,0,0.3-0.1,0.4c-0.1,0.1-0.2,0.2-0.4,0.3l-4.2,2.1
				c-0.2,0.1-0.4,0.2-0.6,0.2c-0.2,0.1-0.4,0.1-0.6,0.2c0.2,0.1,0.4,0.1,0.6,0.2c0.2,0.1,0.4,0.1,0.6,0.2l4.2,2.2
				c0.2,0.1,0.3,0.2,0.4,0.3c0.1,0.1,0.1,0.3,0.1,0.4v2l-9.2-4.8V153.3z"/>
			<path id="XMLID_303_" class="st2" d="M814.7,161.6v-17.2h2.9v6.6c0.5-0.4,1-0.8,1.5-1.1c0.6-0.3,1.2-0.4,2-0.4
				c0.6,0,1.2,0.1,1.7,0.3c0.5,0.2,0.9,0.5,1.3,0.9c0.3,0.4,0.6,0.9,0.8,1.4s0.3,1.2,0.3,1.8v7.5h-2.9v-7.5c0-0.7-0.2-1.3-0.5-1.7
				c-0.3-0.4-0.8-0.6-1.5-0.6c-0.5,0-1,0.1-1.4,0.3c-0.4,0.2-0.8,0.5-1.2,0.9v8.6H814.7z"/>
			<path id="XMLID_301_" class="st2" d="M831.7,161.8c-1,0-1.8-0.3-2.4-0.9c-0.6-0.6-0.8-1.4-0.8-2.4v-6.6h-1.2
				c-0.2,0-0.3-0.1-0.4-0.2c-0.1-0.1-0.2-0.3-0.2-0.5v-1.1l1.9-0.3l0.6-3.2c0-0.2,0.1-0.3,0.2-0.4c0.1-0.1,0.3-0.1,0.4-0.1h1.5v3.7
				h3.1v2h-3.1v6.4c0,0.4,0.1,0.7,0.3,0.9c0.2,0.2,0.4,0.3,0.7,0.3c0.2,0,0.3,0,0.4-0.1c0.1,0,0.2-0.1,0.3-0.1
				c0.1,0,0.2-0.1,0.2-0.1c0.1,0,0.1-0.1,0.2-0.1c0.1,0,0.2,0,0.2,0.1c0.1,0,0.1,0.1,0.2,0.2l0.9,1.4c-0.4,0.3-0.9,0.6-1.4,0.8
				C832.9,161.7,832.3,161.8,831.7,161.8z"/>
			<path id="XMLID_299_" class="st2" d="M836.8,161.6v-11.9h1.7c0.4,0,0.6,0.2,0.7,0.5l0.2,0.9c0.2-0.2,0.4-0.4,0.7-0.6
				c0.2-0.2,0.5-0.4,0.7-0.5s0.5-0.2,0.8-0.3c0.3-0.1,0.6-0.1,1-0.1c0.7,0,1.4,0.2,1.8,0.6c0.5,0.4,0.8,0.9,1.1,1.6
				c0.2-0.4,0.4-0.7,0.7-1c0.3-0.3,0.6-0.5,0.9-0.7c0.3-0.2,0.7-0.3,1.1-0.4c0.4-0.1,0.7-0.1,1.1-0.1c0.7,0,1.2,0.1,1.7,0.3
				c0.5,0.2,0.9,0.5,1.3,0.9c0.3,0.4,0.6,0.9,0.8,1.4c0.2,0.6,0.3,1.2,0.3,1.9v7.5h-2.9v-7.5c0-0.8-0.2-1.3-0.5-1.7
				c-0.3-0.4-0.8-0.6-1.5-0.6c-0.3,0-0.6,0.1-0.8,0.2c-0.3,0.1-0.5,0.2-0.7,0.4s-0.3,0.4-0.4,0.7c-0.1,0.3-0.2,0.6-0.2,1v7.5h-2.9
				v-7.5c0-0.8-0.2-1.4-0.5-1.7c-0.3-0.4-0.8-0.5-1.4-0.5c-0.4,0-0.8,0.1-1.1,0.3c-0.4,0.2-0.7,0.5-1,0.8v8.7H836.8z"/>
			<path id="XMLID_297_" class="st2" d="M859.3,144.5v17.2h-2.9v-17.2H859.3z"/>
			<path id="XMLID_295_" class="st2" d="M863.6,159.2v-2c0-0.2,0-0.3,0.1-0.4c0.1-0.1,0.2-0.2,0.4-0.3l4.2-2.2
				c0.3-0.2,0.7-0.3,1.2-0.4c-0.2-0.1-0.4-0.1-0.6-0.2c-0.2-0.1-0.4-0.1-0.6-0.2l-4.2-2.1c-0.2-0.1-0.3-0.2-0.4-0.3
				c-0.1-0.1-0.1-0.3-0.1-0.4v-2l9.2,4.8v1.2L863.6,159.2z"/>
		</g>
	</g>
	<g id="XMLID_284_">
		<circle id="XMLID_98_" class="st3" cx="967" cy="156.2" r="38.4"/>
		<g id="XMLID_285_">
			<path id="XMLID_290_" class="st2" d="M946.7,156.3l11.1-5.8v2.5c0,0.2,0,0.4-0.1,0.5c-0.1,0.2-0.2,0.3-0.5,0.4l-5.1,2.6
				c-0.2,0.1-0.4,0.2-0.7,0.3c-0.2,0.1-0.5,0.2-0.8,0.2c0.3,0.1,0.5,0.1,0.8,0.2c0.2,0.1,0.5,0.2,0.7,0.3l5.1,2.6
				c0.2,0.1,0.4,0.2,0.5,0.4c0.1,0.2,0.1,0.3,0.1,0.5v2.5l-11.1-5.8V156.3z"/>
			<path id="XMLID_288_" class="st2" d="M964.1,166.5c-0.1,0.2-0.2,0.4-0.3,0.6c-0.1,0.2-0.3,0.3-0.4,0.4s-0.3,0.2-0.5,0.2
				c-0.2,0.1-0.4,0.1-0.5,0.1h-1.5l8.2-20.9c0.2-0.4,0.4-0.7,0.7-0.9c0.3-0.2,0.7-0.3,1.1-0.3h1.5L964.1,166.5z"/>
			<path id="XMLID_286_" class="st2" d="M975.1,163.5V161c0-0.2,0-0.4,0.1-0.5c0.1-0.2,0.2-0.3,0.5-0.4l5.1-2.6
				c0.4-0.2,0.9-0.4,1.4-0.5c-0.3-0.1-0.5-0.1-0.8-0.2c-0.2-0.1-0.5-0.2-0.7-0.3l-5.1-2.6c-0.2-0.1-0.4-0.2-0.5-0.4
				c-0.1-0.2-0.1-0.3-0.1-0.5v-2.5l11.1,5.8v1.4L975.1,163.5z"/>
		</g>
	</g>
	<g id="XMLID_225_">
		<g id="XMLID_258_" class="st49">
			<linearGradient id="XMLID_218_" gradientUnits="userSpaceOnUse" x1="1277.5264" y1="149.4749" x2="1279.1648" y2="149.4749">
				<stop  offset="0" style="stop-color:#5560AB"/>
				<stop  offset="1" style="stop-color:#4C57A6"/>
			</linearGradient>
			<path id="XMLID_94_" class="st50" d="M1278,150.3c-0.1,0-0.2,0-0.3-0.1c-0.2-0.2-0.2-0.4,0-0.6c0.3-0.3,0.5-0.5,0.8-0.8
				c0.2-0.2,0.4-0.2,0.6,0c0.2,0.2,0.2,0.4,0,0.6c-0.3,0.3-0.5,0.5-0.8,0.8C1278.2,150.3,1278.1,150.3,1278,150.3z"/>
			<linearGradient id="XMLID_219_" gradientUnits="userSpaceOnUse" x1="1209.0902" y1="140.9971" x2="1276.8165" y2="140.9971">
				<stop  offset="0" style="stop-color:#5560AB"/>
				<stop  offset="1" style="stop-color:#4C57A6"/>
			</linearGradient>
			<path id="XMLID_260_" class="st51" d="M1250.8,161.8c-0.2,0-0.4-0.2-0.4-0.4c0-0.2,0.2-0.4,0.4-0.4c0.7,0,1.4-0.1,2.1-0.1
				c0.2,0,0.4,0.2,0.5,0.4c0,0.2-0.2,0.4-0.4,0.5C1252.3,161.7,1251.5,161.7,1250.8,161.8C1250.8,161.8,1250.8,161.8,1250.8,161.8z
				 M1248.6,161.8C1248.6,161.8,1248.6,161.8,1248.6,161.8c-0.7,0-1.5-0.1-2.2-0.1c-0.2,0-0.4-0.2-0.4-0.5c0-0.2,0.2-0.4,0.5-0.4
				c0.7,0.1,1.4,0.1,2.1,0.1c0.2,0,0.4,0.2,0.4,0.4C1249.1,161.6,1248.9,161.8,1248.6,161.8z M1255.1,161.4c-0.2,0-0.4-0.2-0.4-0.4
				c0-0.2,0.1-0.5,0.4-0.5c0.7-0.1,1.4-0.2,2.1-0.3c0.2,0,0.5,0.1,0.5,0.3c0,0.2-0.1,0.5-0.3,0.5
				C1256.6,161.2,1255.9,161.3,1255.1,161.4C1255.1,161.4,1255.1,161.4,1255.1,161.4z M1244.4,161.4
				C1244.3,161.4,1244.3,161.4,1244.4,161.4c-0.8-0.1-1.5-0.2-2.2-0.4c-0.2,0-0.4-0.3-0.3-0.5c0-0.2,0.3-0.4,0.5-0.3
				c0.7,0.1,1.4,0.3,2.1,0.3c0.2,0,0.4,0.3,0.4,0.5C1244.8,161.2,1244.6,161.4,1244.4,161.4z M1259.3,160.6c-0.2,0-0.4-0.1-0.4-0.3
				c-0.1-0.2,0.1-0.5,0.3-0.5c0.7-0.2,1.4-0.4,2.1-0.6c0.2-0.1,0.5,0.1,0.5,0.3s-0.1,0.5-0.3,0.5c-0.7,0.2-1.4,0.4-2.1,0.6
				C1259.4,160.6,1259.4,160.6,1259.3,160.6z M1240.1,160.6c0,0-0.1,0-0.1,0c-0.7-0.2-1.4-0.4-2.1-0.6c-0.2-0.1-0.4-0.3-0.3-0.5
				c0.1-0.2,0.3-0.4,0.5-0.3c0.7,0.2,1.4,0.4,2.1,0.6c0.2,0.1,0.4,0.3,0.3,0.5C1240.5,160.5,1240.3,160.6,1240.1,160.6z
				 M1263.5,159.4c-0.2,0-0.3-0.1-0.4-0.3c-0.1-0.2,0-0.5,0.3-0.6c0.7-0.2,1.3-0.5,2-0.8c0.2-0.1,0.5,0,0.6,0.2
				c0.1,0.2,0,0.5-0.2,0.6c-0.7,0.3-1.4,0.6-2,0.8C1263.6,159.4,1263.5,159.4,1263.5,159.4z M1236,159.3c0,0-0.1,0-0.1,0
				c-0.7-0.2-1.4-0.5-2-0.8c-0.2-0.1-0.3-0.4-0.2-0.6c0.1-0.2,0.4-0.3,0.6-0.2c0.6,0.3,1.3,0.5,2,0.8c0.2,0.1,0.3,0.3,0.3,0.6
				C1236.3,159.2,1236.2,159.3,1236,159.3z M1267.4,157.7c-0.2,0-0.3-0.1-0.4-0.2c-0.1-0.2,0-0.5,0.2-0.6c0.6-0.3,1.3-0.6,1.9-1
				c0.2-0.1,0.5,0,0.6,0.2c0.1,0.2,0,0.5-0.2,0.6c-0.6,0.3-1.3,0.7-1.9,1C1267.6,157.7,1267.5,157.7,1267.4,157.7z M1232,157.6
				c-0.1,0-0.1,0-0.2,0c-0.6-0.3-1.3-0.7-1.9-1c-0.2-0.1-0.3-0.4-0.2-0.6c0.1-0.2,0.4-0.3,0.6-0.2c0.6,0.3,1.3,0.7,1.9,1
				c0.2,0.1,0.3,0.4,0.2,0.6C1232.3,157.5,1232.2,157.6,1232,157.6z M1271.2,155.6c-0.1,0-0.3-0.1-0.4-0.2c-0.1-0.2-0.1-0.5,0.1-0.6
				c0.6-0.4,1.2-0.8,1.8-1.2c0.2-0.1,0.5-0.1,0.6,0.1c0.1,0.2,0.1,0.5-0.1,0.6c-0.6,0.4-1.2,0.8-1.8,1.2
				C1271.4,155.6,1271.3,155.6,1271.2,155.6z M1228.3,155.5c-0.1,0-0.2,0-0.2-0.1c-0.6-0.4-1.2-0.8-1.8-1.2
				c-0.2-0.1-0.2-0.4-0.1-0.6c0.1-0.2,0.4-0.2,0.6-0.1c0.6,0.4,1.2,0.8,1.8,1.2c0.2,0.1,0.3,0.4,0.1,0.6
				C1228.6,155.5,1228.4,155.5,1228.3,155.5z M1274.7,153.1c-0.1,0-0.3-0.1-0.3-0.2c-0.1-0.2-0.1-0.5,0.1-0.6
				c0.6-0.4,1.1-0.9,1.6-1.4c0.2-0.2,0.5-0.1,0.6,0c0.2,0.2,0.1,0.5,0,0.6c-0.5,0.5-1.1,0.9-1.7,1.4
				C1274.9,153.1,1274.8,153.1,1274.7,153.1z M1224.8,153c-0.1,0-0.2,0-0.3-0.1c-0.6-0.4-1.1-0.9-1.7-1.4c-0.2-0.2-0.2-0.4,0-0.6
				c0.2-0.2,0.4-0.2,0.6,0c0.5,0.5,1.1,0.9,1.6,1.4c0.2,0.1,0.2,0.4,0.1,0.6C1225,153,1224.9,153,1224.8,153z M1221.5,150.2
				c-0.1,0-0.2,0-0.3-0.1c-0.5-0.5-1-1-1.5-1.6c-0.2-0.2-0.1-0.5,0-0.6c0.2-0.2,0.5-0.1,0.6,0c0.5,0.5,1,1,1.5,1.5
				c0.2,0.2,0.2,0.4,0,0.6C1221.8,150.1,1221.6,150.2,1221.5,150.2z M1218.6,147c-0.1,0-0.3-0.1-0.3-0.2c-0.5-0.6-0.9-1.1-1.3-1.7
				c-0.1-0.2-0.1-0.5,0.1-0.6c0.2-0.1,0.5-0.1,0.6,0.1c0.4,0.6,0.9,1.1,1.3,1.7c0.2,0.2,0.1,0.5-0.1,0.6
				C1218.8,147,1218.7,147,1218.6,147z M1216.1,143.5c-0.1,0-0.3-0.1-0.4-0.2c-0.4-0.6-0.8-1.2-1.1-1.9c-0.1-0.2,0-0.5,0.2-0.6
				c0.2-0.1,0.5,0,0.6,0.2c0.4,0.6,0.7,1.2,1.1,1.8c0.1,0.2,0.1,0.5-0.1,0.6C1216.3,143.5,1216.2,143.5,1216.1,143.5z M1213.9,139.8
				c-0.2,0-0.3-0.1-0.4-0.2c-0.2-0.3-0.3-0.6-0.5-0.9c-0.2-0.3-0.3-0.7-0.5-1c-0.1-0.2,0-0.5,0.2-0.6c0.2-0.1,0.5,0,0.6,0.2
				c0.2,0.3,0.3,0.7,0.5,1c0.1,0.3,0.3,0.6,0.4,0.9c0.1,0.2,0,0.5-0.2,0.6C1214.1,139.8,1214,139.8,1213.9,139.8z M1212.2,135.9
				c-0.2,0-0.3-0.1-0.4-0.3c-0.3-0.7-0.5-1.4-0.7-2.1c-0.1-0.2,0.1-0.5,0.3-0.5c0.2-0.1,0.5,0.1,0.5,0.3c0.2,0.7,0.5,1.4,0.7,2
				c0.1,0.2,0,0.5-0.3,0.6C1212.3,135.9,1212.2,135.9,1212.2,135.9z M1210.9,131.8c-0.2,0-0.4-0.1-0.4-0.3c-0.2-0.7-0.4-1.4-0.5-2.1
				c0-0.2,0.1-0.5,0.3-0.5c0.2,0,0.5,0.1,0.5,0.3c0.1,0.7,0.3,1.4,0.5,2.1c0.1,0.2-0.1,0.5-0.3,0.5
				C1210.9,131.8,1210.9,131.8,1210.9,131.8z M1210,127.5c-0.2,0-0.4-0.2-0.4-0.4c-0.1-0.7-0.2-1.4-0.3-2.2c0-0.2,0.2-0.5,0.4-0.5
				c0.2,0,0.5,0.2,0.5,0.4c0.1,0.7,0.2,1.4,0.3,2.1C1210.4,127.3,1210.3,127.5,1210,127.5C1210,127.5,1210,127.5,1210,127.5z
				 M1209.6,123.3c-0.2,0-0.4-0.2-0.4-0.4c0-0.6,0-1.2,0-1.8l0-0.4c0-0.2,0.2-0.4,0.4-0.4c0.2,0,0.4,0.2,0.4,0.4l0,0.4
				c0,0.6,0,1.1,0,1.7C1210,123,1209.8,123.2,1209.6,123.3C1209.6,123.3,1209.6,123.3,1209.6,123.3z"/>
			<linearGradient id="XMLID_220_" gradientUnits="userSpaceOnUse" x1="1209.1748" y1="117.9465" x2="1210.131" y2="117.9465">
				<stop  offset="0" style="stop-color:#5560AB"/>
				<stop  offset="1" style="stop-color:#4C57A6"/>
			</linearGradient>
			<path id="XMLID_71_" class="st52" d="M1209.6,118.9C1209.6,118.9,1209.6,118.9,1209.6,118.9c-0.3,0-0.5-0.2-0.4-0.5
				c0-0.4,0.1-0.7,0.1-1.1c0-0.2,0.2-0.4,0.5-0.4c0.2,0,0.4,0.2,0.4,0.5c0,0.4-0.1,0.7-0.1,1.1
				C1210,118.7,1209.8,118.9,1209.6,118.9z"/>
		</g>
		<g id="XMLID_233_" class="st49">
			<linearGradient id="XMLID_221_" gradientUnits="userSpaceOnUse" x1="1222.911" y1="90.3407" x2="1224.6127" y2="90.3407">
				<stop  offset="0" style="stop-color:#5560AB"/>
				<stop  offset="1" style="stop-color:#4C57A6"/>
			</linearGradient>
			<path id="XMLID_70_" class="st53" d="M1223.3,91.1c-0.1,0-0.2-0.1-0.3-0.1c-0.2-0.2-0.1-0.5,0-0.6c0.3-0.2,0.6-0.5,0.8-0.7
				c0.2-0.2,0.5-0.1,0.6,0.1c0.2,0.2,0.1,0.5-0.1,0.6c-0.3,0.2-0.6,0.5-0.8,0.7C1223.5,91.1,1223.4,91.1,1223.3,91.1z"/>
			<linearGradient id="XMLID_222_" gradientUnits="userSpaceOnUse" x1="1225.4934" y1="102.0285" x2="1290.5142" y2="102.0285">
				<stop  offset="0" style="stop-color:#5560AB"/>
				<stop  offset="1" style="stop-color:#4C57A6"/>
			</linearGradient>
			<path id="XMLID_235_" class="st54" d="M1290,123.7C1290,123.7,1290,123.7,1290,123.7c-0.3,0-0.4-0.2-0.4-0.5
				c0-0.7,0.1-1.5,0.1-2.2c0-0.2,0.2-0.4,0.4-0.4c0.2,0,0.4,0.2,0.4,0.4c0,0.7,0,1.5-0.1,2.2C1290.4,123.5,1290.2,123.7,1290,123.7z
				 M1290,119.3c-0.2,0-0.4-0.2-0.4-0.4c0-0.7-0.1-1.5-0.2-2.2c0-0.2,0.1-0.5,0.4-0.5c0.2,0,0.5,0.1,0.5,0.4
				c0.1,0.7,0.1,1.5,0.2,2.2C1290.5,119,1290.3,119.2,1290,119.3C1290,119.3,1290,119.3,1290,119.3z M1289.5,114.8
				c-0.2,0-0.4-0.2-0.4-0.4c-0.1-0.7-0.3-1.4-0.4-2.2c-0.1-0.2,0.1-0.5,0.3-0.5c0.2-0.1,0.5,0.1,0.5,0.3c0.2,0.7,0.3,1.5,0.4,2.2
				C1290,114.6,1289.8,114.8,1289.5,114.8C1289.6,114.8,1289.5,114.8,1289.5,114.8z M1288.5,110.5c-0.2,0-0.4-0.1-0.4-0.3
				c-0.2-0.7-0.4-1.4-0.7-2.1c-0.1-0.2,0-0.5,0.3-0.6c0.2-0.1,0.5,0,0.6,0.3c0.2,0.7,0.5,1.4,0.7,2.1c0.1,0.2-0.1,0.5-0.3,0.5
				C1288.6,110.5,1288.6,110.5,1288.5,110.5z M1287.1,106.3c-0.2,0-0.3-0.1-0.4-0.3c-0.3-0.7-0.6-1.3-0.9-2c-0.1-0.2,0-0.5,0.2-0.6
				c0.2-0.1,0.5,0,0.6,0.2c0.3,0.7,0.6,1.4,0.9,2.1c0.1,0.2,0,0.5-0.2,0.6C1287.2,106.3,1287.2,106.3,1287.1,106.3z M1285.2,102.3
				c-0.2,0-0.3-0.1-0.4-0.2c-0.3-0.6-0.7-1.3-1.1-1.9c-0.1-0.2-0.1-0.5,0.1-0.6c0.2-0.1,0.5-0.1,0.6,0.1c0.4,0.6,0.8,1.3,1.1,1.9
				c0.1,0.2,0,0.5-0.2,0.6C1285.3,102.3,1285.3,102.3,1285.2,102.3z M1282.9,98.5c-0.1,0-0.3-0.1-0.4-0.2c-0.4-0.6-0.9-1.2-1.3-1.8
				c-0.1-0.2-0.1-0.5,0.1-0.6c0.2-0.1,0.5-0.1,0.6,0.1c0.5,0.6,0.9,1.2,1.3,1.8c0.1,0.2,0.1,0.5-0.1,0.6
				C1283.1,98.5,1283,98.5,1282.9,98.5z M1280.2,95c-0.1,0-0.2-0.1-0.3-0.1c-0.5-0.5-1-1.1-1.5-1.6c-0.2-0.2-0.2-0.4,0-0.6
				c0.2-0.2,0.4-0.2,0.6,0c0.5,0.5,1,1.1,1.5,1.6c0.2,0.2,0.1,0.5,0,0.6C1280.4,95,1280.3,95,1280.2,95z M1277.1,91.9
				c-0.1,0-0.2,0-0.3-0.1c-0.5-0.5-1.1-1-1.7-1.4c-0.2-0.2-0.2-0.4-0.1-0.6c0.2-0.2,0.4-0.2,0.6-0.1c0.6,0.5,1.1,1,1.7,1.5
				c0.2,0.2,0.2,0.4,0,0.6C1277.3,91.8,1277.2,91.9,1277.1,91.9z M1225.9,89.1c-0.1,0-0.3-0.1-0.4-0.2c-0.1-0.2-0.1-0.5,0.1-0.6
				c0.6-0.4,1.2-0.9,1.8-1.3c0.2-0.1,0.5-0.1,0.6,0.1c0.1,0.2,0.1,0.5-0.1,0.6c-0.6,0.4-1.2,0.8-1.8,1.3
				C1226.1,89,1226,89.1,1225.9,89.1z M1273.6,89c-0.1,0-0.2,0-0.3-0.1c-0.6-0.4-1.2-0.8-1.8-1.2c-0.2-0.1-0.3-0.4-0.1-0.6
				c0.1-0.2,0.4-0.3,0.6-0.1c0.6,0.4,1.2,0.8,1.8,1.3c0.2,0.1,0.2,0.4,0.1,0.6C1273.9,89,1273.8,89,1273.6,89z M1229.6,86.6
				c-0.2,0-0.3-0.1-0.4-0.2c-0.1-0.2,0-0.5,0.2-0.6c0.6-0.4,1.3-0.7,2-1.1c0.2-0.1,0.5,0,0.6,0.2c0.1,0.2,0,0.5-0.2,0.6
				c-0.6,0.3-1.3,0.7-1.9,1C1229.8,86.6,1229.7,86.6,1229.6,86.6z M1269.9,86.6c-0.1,0-0.1,0-0.2-0.1c-0.6-0.4-1.3-0.7-1.9-1
				c-0.2-0.1-0.3-0.4-0.2-0.6c0.1-0.2,0.4-0.3,0.6-0.2c0.7,0.3,1.3,0.7,2,1.1c0.2,0.1,0.3,0.4,0.2,0.6
				C1270.2,86.5,1270.1,86.6,1269.9,86.6z M1233.6,84.6c-0.2,0-0.3-0.1-0.4-0.3c-0.1-0.2,0-0.5,0.2-0.6c0.7-0.3,1.4-0.6,2.1-0.8
				c0.2-0.1,0.5,0,0.6,0.3c0.1,0.2,0,0.5-0.3,0.6c-0.7,0.3-1.4,0.5-2,0.8C1233.7,84.6,1233.7,84.6,1233.6,84.6z M1266,84.6
				c-0.1,0-0.1,0-0.2,0c-0.7-0.3-1.3-0.6-2-0.8c-0.2-0.1-0.3-0.3-0.3-0.6c0.1-0.2,0.3-0.3,0.6-0.3c0.7,0.3,1.4,0.5,2.1,0.8
				c0.2,0.1,0.3,0.4,0.2,0.6C1266.3,84.5,1266.1,84.6,1266,84.6z M1237.8,83.1c-0.2,0-0.4-0.1-0.4-0.3c-0.1-0.2,0.1-0.5,0.3-0.5
				c0.7-0.2,1.4-0.4,2.2-0.6c0.2-0.1,0.5,0.1,0.5,0.3c0.1,0.2-0.1,0.5-0.3,0.5c-0.7,0.2-1.4,0.4-2.1,0.6
				C1237.8,83.1,1237.8,83.1,1237.8,83.1z M1261.8,83.1c0,0-0.1,0-0.1,0c-0.7-0.2-1.4-0.4-2.1-0.6c-0.2-0.1-0.4-0.3-0.3-0.5
				c0.1-0.2,0.3-0.4,0.5-0.3c0.7,0.2,1.5,0.4,2.2,0.6c0.2,0.1,0.4,0.3,0.3,0.5C1262.2,82.9,1262,83.1,1261.8,83.1z M1242.1,82
				c-0.2,0-0.4-0.1-0.4-0.4c0-0.2,0.1-0.5,0.3-0.5c0.7-0.1,1.5-0.3,2.2-0.4c0.2,0,0.5,0.1,0.5,0.4c0,0.2-0.1,0.5-0.4,0.5
				C1243.6,81.7,1242.9,81.8,1242.1,82C1242.1,82,1242.1,82,1242.1,82z M1257.5,82C1257.5,82,1257.4,82,1257.5,82
				c-0.8-0.1-1.5-0.3-2.3-0.4c-0.2,0-0.4-0.3-0.4-0.5c0-0.2,0.3-0.4,0.5-0.4c0.7,0.1,1.5,0.2,2.2,0.4c0.2,0,0.4,0.3,0.3,0.5
				C1257.9,81.8,1257.7,82,1257.5,82z M1253.1,81.4C1253.1,81.4,1253.1,81.4,1253.1,81.4c-0.8-0.1-1.5-0.1-2.2-0.1
				c-0.2,0-0.4-0.2-0.4-0.4c0-0.2,0.2-0.4,0.4-0.4c0.7,0,1.5,0.1,2.2,0.1c0.2,0,0.4,0.2,0.4,0.5
				C1253.5,81.2,1253.3,81.4,1253.1,81.4z M1246.5,81.4c-0.2,0-0.4-0.2-0.4-0.4c0-0.2,0.2-0.5,0.4-0.5c0.7-0.1,1.5-0.1,2.2-0.1
				c0.2,0,0.4,0.2,0.4,0.4c0,0.2-0.2,0.4-0.4,0.4C1248,81.3,1247.2,81.3,1246.5,81.4C1246.5,81.4,1246.5,81.4,1246.5,81.4z"/>
			<linearGradient id="XMLID_223_" gradientUnits="userSpaceOnUse" x1="1289.2588" y1="126.035" x2="1290.2656" y2="126.035">
				<stop  offset="0" style="stop-color:#5560AB"/>
				<stop  offset="1" style="stop-color:#4C57A6"/>
			</linearGradient>
			<path id="XMLID_48_" class="st55" d="M1289.7,127C1289.7,127,1289.7,127,1289.7,127c-0.3,0-0.5-0.3-0.4-0.5
				c0-0.4,0.1-0.7,0.1-1.1c0-0.2,0.2-0.4,0.5-0.4c0.2,0,0.4,0.2,0.4,0.5c0,0.4-0.1,0.7-0.1,1.1C1290.1,126.9,1289.9,127,1289.7,127z
				"/>
		</g>
		<g id="XMLID_226_">
			<linearGradient id="XMLID_224_" gradientUnits="userSpaceOnUse" x1="1214.4736" y1="121.2168" x2="1284.4589" y2="121.2168">
				<stop  offset="0" style="stop-color:#5560AB"/>
				<stop  offset="1" style="stop-color:#4C57A6"/>
			</linearGradient>
			<path id="XMLID_231_" class="st56" d="M1284.4,130.4c0.1-0.2,0-0.5-0.2-0.6l-5.2-4.4c0.4-3.2,0.4-6.4-0.2-9.6l5-4.6
				c0.2-0.2,0.2-0.4,0.1-0.6l-3.3-7.5c-0.1-0.2-0.3-0.4-0.6-0.3l-6.8,0.6c-2-2.6-4.3-4.9-7-6.6l0.3-6.8c0-0.2-0.1-0.5-0.4-0.5
				l-7.6-3c-0.2-0.1-0.5,0-0.6,0.2l-4.4,5.2c-3.2-0.4-6.4-0.4-9.6,0.2l-4.6-5c-0.2-0.2-0.4-0.2-0.6-0.1l-7.5,3.3
				c-0.2,0.1-0.4,0.3-0.3,0.6l0.6,6.8c-2.6,2-4.9,4.3-6.6,7l-6.8-0.3c-0.2,0-0.5,0.1-0.5,0.4l-3,7.6c-0.1,0.2,0,0.5,0.2,0.6l5.2,4.4
				c-0.4,3.2-0.4,6.4,0.2,9.6l-5,4.6c-0.2,0.2-0.2,0.4-0.1,0.6l3.3,7.5c0.1,0.2,0.3,0.4,0.6,0.3l6.8-0.6c2,2.6,4.3,4.9,7,6.6
				l-0.3,6.8c0,0.2,0.1,0.5,0.4,0.5l7.6,3c0.2,0.1,0.5,0,0.6-0.2l4.4-5.2c3.2,0.4,6.4,0.4,9.6-0.2l4.6,5c0.2,0.2,0.4,0.2,0.6,0.1
				l7.5-3.3c0.2-0.1,0.4-0.3,0.3-0.6l-0.6-6.8c2.6-2,4.9-4.3,6.6-7l6.8,0.3c0.2,0,0.5-0.1,0.5-0.4L1284.4,130.4z"/>
			<path id="XMLID_228_" class="st2" d="M1249.5,128.9c-2.3,0-4.6-1-6.1-3c-2.6-3.3-2-8.2,1.3-10.8c1.6-1.3,3.6-1.8,5.7-1.6
				c2,0.3,3.9,1.3,5.1,2.9l0,0c1.3,1.6,1.8,3.6,1.6,5.7c-0.3,2-1.3,3.9-2.9,5.1C1252.8,128.4,1251.1,128.9,1249.5,128.9z
				 M1249.5,114.4c-1.5,0-3,0.5-4.2,1.4c-3,2.3-3.5,6.6-1.2,9.6c2.3,3,6.6,3.5,9.6,1.2c1.4-1.1,2.4-2.7,2.6-4.5
				c0.2-1.8-0.3-3.6-1.4-5l0,0c-1.1-1.4-2.7-2.4-4.5-2.6C1250,114.4,1249.7,114.4,1249.5,114.4z"/>
			<path id="XMLID_44_" class="st2" d="M1249.3,141.3c-7.8,0-15.2-4.5-18.5-12c-1.2-2.6-1.7-5.4-1.7-8.1c0-7.8,4.5-15.2,12-18.5
				c4.9-2.2,10.4-2.3,15.4-0.3c5,2,9,5.7,11.2,10.7c0.6,1.3,1,2.7,1.3,4.1c0,0,0,0.1,0,0.1c0,0.2-0.1,0.4-0.3,0.4
				c-0.2,0-0.5-0.1-0.5-0.3c-0.3-1.3-0.7-2.7-1.3-3.9v0c-0.1-0.3-0.3-0.6-0.4-0.8c0,0,0,0,0,0c0,0,0,0,0,0c0,0,0,0,0,0c0,0,0,0,0,0
				l0,0c0,0,0,0,0,0c-2.1-4.3-5.8-7.6-10.3-9.3c-4.8-1.9-10.1-1.8-14.8,0.3c-7.2,3.2-11.5,10.3-11.5,17.7c0,2.6,0.5,5.2,1.6,7.8
				c4.3,9.7,15.7,14.2,25.4,9.9c3.2-1.4,6-3.7,8-6.5c0.1-0.2,0.4-0.2,0.6-0.1c0.1,0.1,0.2,0.2,0.2,0.4c0,0.1,0,0.2-0.1,0.3
				c-2.1,3-5,5.3-8.3,6.8C1254.8,140.8,1252,141.3,1249.3,141.3z"/>
		</g>
	</g>
	<g id="XMLID_2_">
		<g id="XMLID_204_" class="st49">
			<linearGradient id="XMLID_227_" gradientUnits="userSpaceOnUse" x1="1219.1908" y1="99.0809" x2="1220.832" y2="99.0809">
				<stop  offset="0" style="stop-color:#5560AB"/>
				<stop  offset="1" style="stop-color:#4C57A6"/>
			</linearGradient>
			<path id="XMLID_43_" class="st57" d="M1219.6,99.9c-0.1,0-0.2,0-0.3-0.1c-0.2-0.2-0.2-0.4,0-0.6c0.3-0.2,0.5-0.5,0.8-0.8
				c0.2-0.2,0.4-0.2,0.6,0c0.2,0.2,0.2,0.4,0,0.6c-0.3,0.3-0.5,0.5-0.8,0.8C1219.8,99.9,1219.7,99.9,1219.6,99.9z"/>
			<linearGradient id="XMLID_229_" gradientUnits="userSpaceOnUse" x1="1164.6415" y1="92.5785" x2="1218.4248" y2="92.5785">
				<stop  offset="0" style="stop-color:#5560AB"/>
				<stop  offset="1" style="stop-color:#4C57A6"/>
			</linearGradient>
			<path id="XMLID_206_" class="st58" d="M1197.3,108.9c-0.6,0-1.2,0-1.8,0c-0.2,0-0.4-0.2-0.4-0.5c0-0.2,0.2-0.4,0.5-0.4
				c0.7,0,1.4,0.1,2.2,0h0c0.2,0,0.4,0.2,0.4,0.4c0,0.2-0.2,0.4-0.4,0.4C1197.6,108.9,1197.4,108.9,1197.3,108.9z M1199.9,108.8
				c-0.2,0-0.4-0.2-0.4-0.4c0-0.2,0.2-0.5,0.4-0.5c0.7-0.1,1.4-0.1,2.2-0.3c0.2,0,0.5,0.1,0.5,0.4c0,0.2-0.1,0.5-0.4,0.5
				C1201.5,108.7,1200.7,108.8,1199.9,108.8C1200,108.8,1200,108.8,1199.9,108.8z M1193.3,108.7
				C1193.3,108.7,1193.3,108.7,1193.3,108.7c-0.8-0.1-1.5-0.2-2.3-0.4c-0.2,0-0.4-0.3-0.3-0.5c0-0.2,0.3-0.4,0.5-0.3
				c0.7,0.1,1.4,0.3,2.1,0.3c0.2,0,0.4,0.2,0.4,0.5C1193.8,108.5,1193.6,108.7,1193.3,108.7z M1204.3,108.1c-0.2,0-0.4-0.1-0.4-0.3
				c-0.1-0.2,0.1-0.5,0.3-0.5c0.7-0.2,1.4-0.3,2.1-0.5c0.2-0.1,0.5,0.1,0.5,0.3c0.1,0.2-0.1,0.5-0.3,0.5
				C1205.8,107.8,1205.1,108,1204.3,108.1C1204.4,108.1,1204.3,108.1,1204.3,108.1z M1189,107.8c0,0-0.1,0-0.1,0
				c-0.7-0.2-1.4-0.4-2.1-0.6c-0.2-0.1-0.3-0.3-0.3-0.6c0.1-0.2,0.3-0.3,0.6-0.3c0.7,0.2,1.4,0.4,2.1,0.6c0.2,0.1,0.4,0.3,0.3,0.5
				C1189.4,107.7,1189.2,107.8,1189,107.8z M1208.5,106.9c-0.2,0-0.3-0.1-0.4-0.3c-0.1-0.2,0-0.5,0.3-0.6c0.7-0.3,1.3-0.5,2-0.8
				c0.2-0.1,0.5,0,0.6,0.2c0.1,0.2,0,0.5-0.2,0.6c-0.7,0.3-1.4,0.6-2.1,0.9C1208.6,106.9,1208.6,106.9,1208.5,106.9z M1184.9,106.4
				c-0.1,0-0.1,0-0.2,0c-0.7-0.3-1.4-0.6-2-0.9c-0.2-0.1-0.3-0.4-0.2-0.6c0.1-0.2,0.4-0.3,0.6-0.2c0.6,0.3,1.3,0.6,2,0.9
				c0.2,0.1,0.3,0.3,0.2,0.6C1185.2,106.3,1185,106.4,1184.9,106.4z M1212.5,105.1c-0.2,0-0.3-0.1-0.4-0.2c-0.1-0.2,0-0.5,0.2-0.6
				c0.6-0.3,1.3-0.7,1.9-1.1c0.2-0.1,0.5-0.1,0.6,0.1c0.1,0.2,0.1,0.5-0.1,0.6c-0.6,0.4-1.3,0.8-1.9,1.1
				C1212.7,105.1,1212.6,105.1,1212.5,105.1z M1180.9,104.5c-0.1,0-0.2,0-0.2-0.1c-0.6-0.4-1.3-0.8-1.9-1.2
				c-0.2-0.1-0.2-0.4-0.1-0.6c0.1-0.2,0.4-0.2,0.6-0.1c0.6,0.4,1.2,0.8,1.8,1.2c0.2,0.1,0.3,0.4,0.2,0.6
				C1181.2,104.4,1181.1,104.5,1180.9,104.5z M1216.3,102.7c-0.1,0-0.3-0.1-0.4-0.2c-0.1-0.2-0.1-0.5,0.1-0.6
				c0.6-0.4,1.2-0.9,1.7-1.3c0.2-0.2,0.5-0.1,0.6,0.1c0.2,0.2,0.1,0.5-0.1,0.6c-0.6,0.5-1.2,0.9-1.8,1.4
				C1216.4,102.7,1216.3,102.7,1216.3,102.7z M1177.3,102c-0.1,0-0.2,0-0.3-0.1c-0.6-0.5-1.2-0.9-1.7-1.4c-0.2-0.2-0.2-0.4,0-0.6
				c0.2-0.2,0.4-0.2,0.6,0c0.5,0.5,1.1,1,1.7,1.4c0.2,0.1,0.2,0.4,0.1,0.6C1177.5,101.9,1177.4,102,1177.3,102z M1174,99
				c-0.1,0-0.2,0-0.3-0.1c-0.5-0.5-1-1.1-1.5-1.7c-0.2-0.2-0.1-0.5,0.1-0.6c0.2-0.2,0.5-0.1,0.6,0.1c0.5,0.6,0.9,1.1,1.4,1.6
				c0.2,0.2,0.2,0.4,0,0.6C1174.2,99,1174.1,99,1174,99z M1171.2,95.6c-0.1,0-0.3-0.1-0.4-0.2c-0.4-0.6-0.9-1.2-1.2-1.9
				c-0.1-0.2-0.1-0.5,0.1-0.6c0.2-0.1,0.5-0.1,0.6,0.1c0.4,0.6,0.8,1.2,1.2,1.8c0.1,0.2,0.1,0.5-0.1,0.6
				C1171.4,95.6,1171.3,95.6,1171.2,95.6z M1168.9,91.9c-0.2,0-0.3-0.1-0.4-0.2c-0.2-0.4-0.4-0.8-0.6-1.3c-0.1-0.2-0.2-0.5-0.3-0.7
				c-0.1-0.2,0-0.5,0.2-0.6c0.2-0.1,0.5,0,0.6,0.2c0.1,0.2,0.2,0.5,0.3,0.7c0.2,0.4,0.4,0.8,0.6,1.2c0.1,0.2,0,0.5-0.2,0.6
				C1169,91.9,1169,91.9,1168.9,91.9z M1167.1,87.9c-0.2,0-0.3-0.1-0.4-0.3c-0.3-0.7-0.5-1.4-0.7-2.1c-0.1-0.2,0.1-0.5,0.3-0.5
				c0.2-0.1,0.5,0.1,0.5,0.3c0.2,0.7,0.4,1.4,0.7,2.1c0.1,0.2,0,0.5-0.3,0.6C1167.2,87.9,1167.1,87.9,1167.1,87.9z M1165.8,83.7
				c-0.2,0-0.4-0.1-0.4-0.3c-0.2-0.7-0.3-1.5-0.4-2.2c0-0.2,0.1-0.5,0.4-0.5c0.2,0,0.5,0.1,0.5,0.4c0.1,0.7,0.2,1.4,0.4,2.1
				C1166.3,83.4,1166.2,83.6,1165.8,83.7C1165.9,83.7,1165.9,83.7,1165.8,83.7z M1165.2,79.3c-0.2,0-0.4-0.2-0.4-0.4
				c-0.1-0.7-0.1-1.5-0.1-2.2c0-0.2,0.2-0.4,0.4-0.4c0.2,0,0.4,0.2,0.4,0.4c0,0.7,0,1.5,0.1,2.2
				C1165.6,79.1,1165.5,79.3,1165.2,79.3C1165.2,79.3,1165.2,79.3,1165.2,79.3z"/>
			<linearGradient id="XMLID_230_" gradientUnits="userSpaceOnUse" x1="1164.694" y1="73.9102" x2="1165.6466" y2="73.9102">
				<stop  offset="0" style="stop-color:#5560AB"/>
				<stop  offset="1" style="stop-color:#4C57A6"/>
			</linearGradient>
			<path id="XMLID_25_" class="st59" d="M1165.1,74.9C1165.1,74.9,1165.1,74.9,1165.1,74.9c-0.3,0-0.4-0.2-0.4-0.5
				c0-0.4,0-0.7,0.1-1.1c0-0.2,0.2-0.4,0.5-0.4c0.2,0,0.4,0.2,0.4,0.5c0,0.4-0.1,0.7-0.1,1.1C1165.6,74.7,1165.4,74.9,1165.1,74.9z"
				/>
		</g>
		<g id="XMLID_183_" class="st49">
			<linearGradient id="XMLID_232_" gradientUnits="userSpaceOnUse" x1="1175.6879" y1="51.664" x2="1177.392" y2="51.664">
				<stop  offset="0" style="stop-color:#5560AB"/>
				<stop  offset="1" style="stop-color:#4C57A6"/>
			</linearGradient>
			<path id="XMLID_24_" class="st60" d="M1176.1,52.4c-0.1,0-0.2-0.1-0.3-0.1c-0.2-0.2-0.1-0.5,0-0.6c0.3-0.2,0.6-0.5,0.8-0.7
				c0.2-0.2,0.5-0.1,0.6,0.1c0.2,0.2,0.1,0.5-0.1,0.6c-0.3,0.2-0.6,0.5-0.8,0.7C1176.3,52.4,1176.2,52.4,1176.1,52.4z"/>
			<linearGradient id="XMLID_234_" gradientUnits="userSpaceOnUse" x1="1178.2489" y1="60.7705" x2="1229.9043" y2="60.7705">
				<stop  offset="0" style="stop-color:#5560AB"/>
				<stop  offset="1" style="stop-color:#4C57A6"/>
			</linearGradient>
			<path id="XMLID_185_" class="st61" d="M1229.4,77.9C1229.4,77.9,1229.4,77.9,1229.4,77.9c-0.3,0-0.4-0.2-0.4-0.5
				c0-0.4,0-0.8,0-1.2c0-0.3,0-0.7,0-1c0-0.2,0.2-0.4,0.4-0.4c0.2,0,0.4,0.2,0.4,0.4c0,0.3,0,0.7,0,1c0,0.4,0,0.8,0,1.2
				C1229.9,77.7,1229.7,77.9,1229.4,77.9z M1229.3,73.5c-0.2,0-0.4-0.2-0.4-0.4c-0.1-0.7-0.2-1.4-0.3-2.1c0-0.2,0.1-0.5,0.4-0.5
				c0.2,0,0.5,0.1,0.5,0.4c0.1,0.7,0.2,1.5,0.3,2.2C1229.8,73.3,1229.6,73.5,1229.3,73.5C1229.3,73.5,1229.3,73.5,1229.3,73.5z
				 M1228.6,69.3c-0.2,0-0.4-0.1-0.4-0.3c-0.2-0.7-0.4-1.4-0.6-2.1c-0.1-0.2,0.1-0.5,0.3-0.5c0.2-0.1,0.5,0.1,0.5,0.3
				c0.2,0.7,0.4,1.4,0.6,2.1c0.1,0.2-0.1,0.5-0.3,0.5C1228.7,69.3,1228.6,69.3,1228.6,69.3z M1227.3,65.1c-0.2,0-0.3-0.1-0.4-0.3
				c-0.3-0.7-0.5-1.3-0.8-2c-0.1-0.2,0-0.5,0.2-0.6c0.2-0.1,0.5,0,0.6,0.2c0.3,0.7,0.6,1.3,0.9,2c0.1,0.2,0,0.5-0.2,0.6
				C1227.4,65.1,1227.4,65.1,1227.3,65.1z M1225.5,61.2c-0.2,0-0.3-0.1-0.4-0.2c-0.3-0.6-0.7-1.2-1.1-1.8c-0.1-0.2-0.1-0.5,0.1-0.6
				c0.2-0.1,0.5-0.1,0.6,0.1c0.4,0.6,0.8,1.2,1.1,1.9c0.1,0.2,0,0.5-0.2,0.6C1225.6,61.2,1225.5,61.2,1225.5,61.2z M1223.1,57.6
				c-0.1,0-0.3-0.1-0.4-0.2c-0.4-0.6-0.9-1.1-1.3-1.7c-0.2-0.2-0.1-0.5,0-0.6c0.2-0.2,0.5-0.1,0.6,0c0.5,0.6,0.9,1.1,1.4,1.7
				c0.1,0.2,0.1,0.5-0.1,0.6C1223.3,57.5,1223.2,57.6,1223.1,57.6z M1220.3,54.3c-0.1,0-0.2,0-0.3-0.1c-0.5-0.5-1-1-1.5-1.5
				c-0.2-0.2-0.2-0.4,0-0.6s0.4-0.2,0.6,0c0.5,0.5,1.1,1,1.6,1.5c0.2,0.2,0.2,0.4,0,0.6C1220.6,54.2,1220.4,54.3,1220.3,54.3z
				 M1217.1,51.4c-0.1,0-0.2,0-0.3-0.1c-0.6-0.4-1.1-0.9-1.7-1.3c-0.2-0.1-0.3-0.4-0.1-0.6c0.1-0.2,0.4-0.3,0.6-0.1
				c0.6,0.4,1.2,0.8,1.8,1.3c0.2,0.1,0.2,0.4,0.1,0.6C1217.4,51.3,1217.2,51.4,1217.1,51.4z M1178.7,50.4c-0.1,0-0.3-0.1-0.4-0.2
				c-0.1-0.2-0.1-0.5,0.1-0.6c0.6-0.4,1.2-0.8,1.8-1.2c0.2-0.1,0.5-0.1,0.6,0.1c0.1,0.2,0.1,0.5-0.1,0.6c-0.6,0.4-1.2,0.8-1.8,1.2
				C1178.9,50.4,1178.8,50.4,1178.7,50.4z M1213.5,48.9c-0.1,0-0.2,0-0.2-0.1c-0.6-0.4-1.2-0.7-1.9-1c-0.2-0.1-0.3-0.4-0.2-0.6
				c0.1-0.2,0.4-0.3,0.6-0.2c0.7,0.3,1.3,0.7,1.9,1c0.2,0.1,0.3,0.4,0.2,0.6C1213.8,48.9,1213.7,48.9,1213.5,48.9z M1182.4,48.2
				c-0.2,0-0.3-0.1-0.4-0.2c-0.1-0.2,0-0.5,0.2-0.6c0.3-0.2,0.7-0.3,1-0.5c0.3-0.2,0.7-0.3,1-0.5c0.2-0.1,0.5,0,0.6,0.2
				c0.1,0.2,0,0.5-0.2,0.6c-0.3,0.1-0.6,0.3-1,0.4c-0.3,0.2-0.6,0.3-1,0.5C1182.5,48.2,1182.5,48.2,1182.4,48.2z M1209.6,47
				c-0.1,0-0.1,0-0.2,0c-0.7-0.3-1.3-0.5-2-0.8c-0.2-0.1-0.3-0.3-0.3-0.6c0.1-0.2,0.3-0.3,0.6-0.3c0.7,0.2,1.4,0.5,2.1,0.8
				c0.2,0.1,0.3,0.3,0.2,0.6C1210,46.9,1209.8,47,1209.6,47z M1186.4,46.4c-0.2,0-0.3-0.1-0.4-0.3c-0.1-0.2,0-0.5,0.3-0.6
				c0.7-0.2,1.4-0.5,2.1-0.7c0.2-0.1,0.5,0.1,0.5,0.3c0.1,0.2-0.1,0.5-0.3,0.5c-0.7,0.2-1.4,0.4-2,0.7
				C1186.5,46.4,1186.4,46.4,1186.4,46.4z M1205.5,45.6c0,0-0.1,0-0.1,0c-0.7-0.2-1.4-0.3-2.1-0.5c-0.2,0-0.4-0.3-0.3-0.5
				c0-0.2,0.3-0.4,0.5-0.3c0.7,0.1,1.4,0.3,2.1,0.5c0.2,0.1,0.4,0.3,0.3,0.5C1205.9,45.5,1205.7,45.6,1205.5,45.6z M1190.5,45.2
				c-0.2,0-0.4-0.1-0.4-0.3c-0.1-0.2,0.1-0.5,0.3-0.5c0.7-0.2,1.4-0.3,2.2-0.4c0.2,0,0.5,0.1,0.5,0.4c0,0.2-0.1,0.5-0.4,0.5
				C1192,45,1191.3,45.1,1190.5,45.2C1190.6,45.2,1190.5,45.2,1190.5,45.2z M1201.3,44.8C1201.3,44.8,1201.3,44.8,1201.3,44.8
				c-0.8-0.1-1.5-0.2-2.2-0.2c-0.2,0-0.4-0.2-0.4-0.5c0-0.2,0.2-0.4,0.5-0.4c0.7,0,1.5,0.1,2.2,0.2c0.2,0,0.4,0.2,0.4,0.5
				C1201.7,44.6,1201.5,44.8,1201.3,44.8z M1194.8,44.6c-0.2,0-0.4-0.2-0.4-0.4c0-0.2,0.2-0.4,0.4-0.5c0.7-0.1,1.5-0.1,2.2-0.1h0
				c0.2,0,0.4,0.2,0.4,0.4c0,0.2-0.2,0.4-0.4,0.4C1196.3,44.5,1195.5,44.6,1194.8,44.6C1194.8,44.6,1194.8,44.6,1194.8,44.6z"/>
			<linearGradient id="XMLID_236_" gradientUnits="userSpaceOnUse" x1="1228.7263" y1="80.1585" x2="1229.729" y2="80.1585">
				<stop  offset="0" style="stop-color:#5560AB"/>
				<stop  offset="1" style="stop-color:#4C57A6"/>
			</linearGradient>
			<path id="XMLID_6_" class="st62" d="M1229.2,81.1C1229.1,81.1,1229.1,81.1,1229.2,81.1c-0.3,0-0.5-0.3-0.4-0.5
				c0-0.4,0.1-0.7,0.1-1.1c0-0.2,0.2-0.4,0.5-0.4c0.2,0,0.4,0.2,0.4,0.5c0,0.4-0.1,0.7-0.1,1.1C1229.6,81,1229.4,81.1,1229.2,81.1z"
				/>
		</g>
		<g id="XMLID_4_">
			<linearGradient id="XMLID_237_" gradientUnits="userSpaceOnUse" x1="1169.0306" y1="76.4153" x2="1224.9766" y2="76.4153">
				<stop  offset="0" style="stop-color:#5560AB"/>
				<stop  offset="1" style="stop-color:#4C57A6"/>
			</linearGradient>
			<path id="XMLID_181_" class="st63" d="M1224.9,83.8c0.1-0.2,0-0.4-0.1-0.5l-4.2-3.5c0.4-2.5,0.3-5.1-0.2-7.7l4-3.7
				c0.1-0.1,0.2-0.3,0.1-0.5l-2.6-6c-0.1-0.2-0.3-0.3-0.4-0.3l-5.4,0.5c-1.6-2.1-3.5-3.9-5.6-5.3l0.2-5.4c0-0.2-0.1-0.4-0.3-0.4
				l-6.1-2.4c-0.2-0.1-0.4,0-0.5,0.1l-3.5,4.2c-2.5-0.4-5.1-0.3-7.7,0.2l-3.7-4c-0.1-0.1-0.3-0.2-0.5-0.1l-6,2.6
				c-0.2,0.1-0.3,0.3-0.3,0.4l0.5,5.4c-2.1,1.6-3.9,3.5-5.3,5.6l-5.4-0.2c-0.2,0-0.4,0.1-0.4,0.3l-2.4,6.1c-0.1,0.2,0,0.4,0.1,0.5
				l4.2,3.5c-0.4,2.5-0.3,5.1,0.2,7.7l-4,3.7c-0.1,0.1-0.2,0.3-0.1,0.5l2.6,6c0.1,0.2,0.3,0.3,0.4,0.3l5.4-0.5
				c1.6,2.1,3.5,3.9,5.6,5.3l-0.2,5.4c0,0.2,0.1,0.4,0.3,0.4l6.1,2.4c0.2,0.1,0.4,0,0.5-0.1l3.5-4.2c2.5,0.4,5.1,0.3,7.7-0.2l3.7,4
				c0.1,0.1,0.3,0.2,0.5,0.1l6-2.6c0.2-0.1,0.3-0.3,0.3-0.4l-0.5-5.4c2.1-1.6,3.9-3.5,5.3-5.6l5.4,0.2c0.2,0,0.4-0.1,0.4-0.3
				L1224.9,83.8z"/>
			<path id="XMLID_178_" class="st2" d="M1197,82.7c-0.3,0-0.5,0-0.8,0c-1.7-0.2-3.1-1-4.2-2.4c-1-1.3-1.5-2.9-1.3-4.6
				c0.2-1.7,1-3.1,2.4-4.2c1.3-1,2.9-1.5,4.6-1.3c1.7,0.2,3.1,1,4.2,2.4l0,0c2.1,2.7,1.6,6.6-1.1,8.8
				C1199.7,82.2,1198.4,82.7,1197,82.7z M1197,71c-1.2,0-2.3,0.4-3.3,1.1c-1.1,0.9-1.9,2.2-2,3.6c-0.2,1.4,0.2,2.8,1.1,4
				c0.9,1.1,2.2,1.9,3.6,2c1.4,0.2,2.8-0.2,4-1.1c1.1-0.9,1.9-2.2,2-3.6c0.2-1.4-0.2-2.8-1.1-4l0,0c-0.9-1.1-2.2-1.9-3.6-2
				C1197.4,71.1,1197.2,71,1197,71z"/>
			<path id="XMLID_5_" class="st2" d="M1196.9,92.6c-6.2,0-12.2-3.6-14.9-9.7c-0.9-2.1-1.4-4.3-1.4-6.5c0-6.2,3.6-12.2,9.7-14.9
				c4-1.7,8.4-1.8,12.4-0.3c4,1.6,7.2,4.6,9,8.6l0,0c0.4,1,0.8,2,1,3c0,0.1,0,0.2,0.1,0.3c0,0,0,0.1,0,0.1c0,0.2-0.1,0.4-0.3,0.4
				c-0.2,0-0.5-0.1-0.5-0.3c-0.2-1.1-0.6-2.1-1-3.1l0,0c-1.6-3.5-4.3-6.3-7.8-7.9c-0.2-0.1-0.4-0.2-0.6-0.3c-3.8-1.5-8-1.4-11.7,0.3
				c-5.7,2.5-9.2,8.2-9.2,14.1c0,2.1,0.4,4.2,1.3,6.2c3.4,7.7,12.5,11.3,20.2,7.9c2.5-1.1,4.7-2.9,6.3-5.2c0.1-0.2,0.4-0.2,0.6-0.1
				c0.1,0.1,0.2,0.2,0.2,0.4c0,0.1,0,0.2-0.1,0.3c-1.7,2.4-4,4.3-6.7,5.5C1201.3,92.1,1199.1,92.6,1196.9,92.6z"/>
		</g>
	</g>
</g>
</svg>
