<?xml version="1.0" encoding="utf-8"?>
<!-- Generator: Adobe Illustrator 19.0.0, SVG Export Plug-In . SVG Version: 6.00 Build 0)  -->
<svg version="1.1" id="Layer_1" xmlns="http://www.w3.org/2000/svg" xmlns:xlink="http://www.w3.org/1999/xlink" x="0px" y="0px"
	 viewBox="0 0 792 792" style="enable-background:new 0 0 792 792;" xml:space="preserve">
<style type="text/css">
	.st0{fill:#010101;}
	.st1{fill:none;}
	.st2{font-family:'MicrosoftPhagsPa-Bold';}
	.st3{font-size:65px;}
</style>
<path id="XMLID_7_" class="st0" d="M344.1,324.4c4.4,4.4,11.5,4.4,15.8,0l7.9-7.9c4.4-4.4,4.4-11.5,0-15.8l-25-25l25-25
	c4.4-4.4,4.4-11.5,0-15.8l-7.9-7.9c-4.4-4.4-11.5-4.4-15.8,0l-40.8,40.8c-4.4,4.4-4.4,11.5,0,15.8L344.1,324.4z M411.3,316.5
	l7.9,7.9c4.4,4.4,11.5,4.4,15.8,0l40.8-40.8c4.4-4.4,4.4-11.5,0-15.8l-40.8-40.8c-4.4-4.4-11.5-4.4-15.8,0l-7.9,7.9
	c-4.4,4.4-4.4,11.5,0,15.8l25,25l-25,25C407,305.1,407,312.2,411.3,316.5L411.3,316.5z M602.4,432.5H432.7
	c-0.5,13.9-10.3,22.4-22.9,22.4h-42.6c-13.1,0-23.1-12.2-22.9-22.4H176.8c-6.2,0-11.2,5-11.2,11.2v11.2c0,24.6,20.2,44.8,44.8,44.8
	h358.4c24.6,0,44.8-20.2,44.8-44.8v-11.2C613.6,437.5,608.6,432.5,602.4,432.5z M568.8,174.9c0-18.5-15.1-33.6-33.6-33.6H244
	c-18.5,0-33.6,15.1-33.6,33.6v235.2h358.4V174.9z M524,365.3H255.2V186.1H524V365.3z"/>
<rect id="XMLID_6_" x="56.3" y="529.6" class="st1" width="660" height="102.9"/>
<text id="XMLID_8_" transform="matrix(1 0 0 1 56.2858 577.6865)" class="st2 st3">WEB DEVELOPMENT</text>
</svg>
